G04 #@! TF.FileFunction,Legend,Bot*
%FSLAX46Y46*%
G04 Gerber Fmt 4.6, Leading zero omitted, Abs format (unit mm)*
G04 Created by KiCad (PCBNEW 4.0.7) date 11/16/17 10:54:23*
%MOMM*%
%LPD*%
G01*
G04 APERTURE LIST*
%ADD10C,0.100000*%
%ADD11C,0.300000*%
%ADD12C,2.950000*%
%ADD13R,4.150000X4.150000*%
%ADD14C,4.150000*%
%ADD15C,3.400000*%
%ADD16C,3.450000*%
G04 APERTURE END LIST*
D10*
D11*
X195785714Y-106232143D02*
X194642857Y-106232143D01*
X195214286Y-106803571D02*
X195214286Y-105660714D01*
X193142857Y-106803571D02*
X194000000Y-106803571D01*
X193571428Y-106803571D02*
X193571428Y-105303571D01*
X193714285Y-105517857D01*
X193857143Y-105660714D01*
X194000000Y-105732143D01*
X192571429Y-105446429D02*
X192500000Y-105375000D01*
X192357143Y-105303571D01*
X192000000Y-105303571D01*
X191857143Y-105375000D01*
X191785714Y-105446429D01*
X191714286Y-105589286D01*
X191714286Y-105732143D01*
X191785714Y-105946429D01*
X192642857Y-106803571D01*
X191714286Y-106803571D01*
X191285715Y-105303571D02*
X190785715Y-106803571D01*
X190285715Y-105303571D01*
X188428572Y-106803571D02*
X188571430Y-106732143D01*
X188642858Y-106660714D01*
X188714287Y-106517857D01*
X188714287Y-106089286D01*
X188642858Y-105946429D01*
X188571430Y-105875000D01*
X188428572Y-105803571D01*
X188214287Y-105803571D01*
X188071430Y-105875000D01*
X188000001Y-105946429D01*
X187928572Y-106089286D01*
X187928572Y-106517857D01*
X188000001Y-106660714D01*
X188071430Y-106732143D01*
X188214287Y-106803571D01*
X188428572Y-106803571D01*
X187285715Y-105803571D02*
X187285715Y-106803571D01*
X187285715Y-105946429D02*
X187214287Y-105875000D01*
X187071429Y-105803571D01*
X186857144Y-105803571D01*
X186714287Y-105875000D01*
X186642858Y-106017857D01*
X186642858Y-106803571D01*
X184857144Y-106732143D02*
X184714287Y-106803571D01*
X184428572Y-106803571D01*
X184285715Y-106732143D01*
X184214287Y-106589286D01*
X184214287Y-106517857D01*
X184285715Y-106375000D01*
X184428572Y-106303571D01*
X184642858Y-106303571D01*
X184785715Y-106232143D01*
X184857144Y-106089286D01*
X184857144Y-106017857D01*
X184785715Y-105875000D01*
X184642858Y-105803571D01*
X184428572Y-105803571D01*
X184285715Y-105875000D01*
X182928572Y-105803571D02*
X182928572Y-107303571D01*
X182928572Y-106732143D02*
X183071429Y-106803571D01*
X183357143Y-106803571D01*
X183500001Y-106732143D01*
X183571429Y-106660714D01*
X183642858Y-106517857D01*
X183642858Y-106089286D01*
X183571429Y-105946429D01*
X183500001Y-105875000D01*
X183357143Y-105803571D01*
X183071429Y-105803571D01*
X182928572Y-105875000D01*
X181571429Y-105803571D02*
X181571429Y-106803571D01*
X182214286Y-105803571D02*
X182214286Y-106589286D01*
X182142858Y-106732143D01*
X182000000Y-106803571D01*
X181785715Y-106803571D01*
X181642858Y-106732143D01*
X181571429Y-106660714D01*
X180214286Y-106803571D02*
X180214286Y-106017857D01*
X180285715Y-105875000D01*
X180428572Y-105803571D01*
X180714286Y-105803571D01*
X180857143Y-105875000D01*
X180214286Y-106732143D02*
X180357143Y-106803571D01*
X180714286Y-106803571D01*
X180857143Y-106732143D01*
X180928572Y-106589286D01*
X180928572Y-106446429D01*
X180857143Y-106303571D01*
X180714286Y-106232143D01*
X180357143Y-106232143D01*
X180214286Y-106160714D01*
X179500000Y-106803571D02*
X179500000Y-105803571D01*
X179500000Y-106089286D02*
X179428572Y-105946429D01*
X179357143Y-105875000D01*
X179214286Y-105803571D01*
X179071429Y-105803571D01*
X178000001Y-106732143D02*
X178142858Y-106803571D01*
X178428572Y-106803571D01*
X178571429Y-106732143D01*
X178642858Y-106589286D01*
X178642858Y-106017857D01*
X178571429Y-105875000D01*
X178428572Y-105803571D01*
X178142858Y-105803571D01*
X178000001Y-105875000D01*
X177928572Y-106017857D01*
X177928572Y-106160714D01*
X178642858Y-106303571D01*
X176142858Y-105803571D02*
X176142858Y-107303571D01*
X176142858Y-105875000D02*
X176000001Y-105803571D01*
X175714287Y-105803571D01*
X175571430Y-105875000D01*
X175500001Y-105946429D01*
X175428572Y-106089286D01*
X175428572Y-106517857D01*
X175500001Y-106660714D01*
X175571430Y-106732143D01*
X175714287Y-106803571D01*
X176000001Y-106803571D01*
X176142858Y-106732143D01*
X174785715Y-106803571D02*
X174785715Y-105803571D01*
X174785715Y-105303571D02*
X174857144Y-105375000D01*
X174785715Y-105446429D01*
X174714287Y-105375000D01*
X174785715Y-105303571D01*
X174785715Y-105446429D01*
X174071429Y-105803571D02*
X174071429Y-106803571D01*
X174071429Y-105946429D02*
X174000001Y-105875000D01*
X173857143Y-105803571D01*
X173642858Y-105803571D01*
X173500001Y-105875000D01*
X173428572Y-106017857D01*
X173428572Y-106803571D01*
X172785715Y-106732143D02*
X172642858Y-106803571D01*
X172357143Y-106803571D01*
X172214286Y-106732143D01*
X172142858Y-106589286D01*
X172142858Y-106517857D01*
X172214286Y-106375000D01*
X172357143Y-106303571D01*
X172571429Y-106303571D01*
X172714286Y-106232143D01*
X172785715Y-106089286D01*
X172785715Y-106017857D01*
X172714286Y-105875000D01*
X172571429Y-105803571D01*
X172357143Y-105803571D01*
X172214286Y-105875000D01*
X193678571Y-107925000D02*
X193821428Y-107853571D01*
X194035714Y-107853571D01*
X194249999Y-107925000D01*
X194392857Y-108067857D01*
X194464285Y-108210714D01*
X194535714Y-108496429D01*
X194535714Y-108710714D01*
X194464285Y-108996429D01*
X194392857Y-109139286D01*
X194249999Y-109282143D01*
X194035714Y-109353571D01*
X193892857Y-109353571D01*
X193678571Y-109282143D01*
X193607142Y-109210714D01*
X193607142Y-108710714D01*
X193892857Y-108710714D01*
X192964285Y-109353571D02*
X192964285Y-107853571D01*
X192107142Y-109353571D01*
X192107142Y-107853571D01*
X191392856Y-109353571D02*
X191392856Y-107853571D01*
X191035713Y-107853571D01*
X190821428Y-107925000D01*
X190678570Y-108067857D01*
X190607142Y-108210714D01*
X190535713Y-108496429D01*
X190535713Y-108710714D01*
X190607142Y-108996429D01*
X190678570Y-109139286D01*
X190821428Y-109282143D01*
X191035713Y-109353571D01*
X191392856Y-109353571D01*
X188535713Y-109353571D02*
X188678571Y-109282143D01*
X188749999Y-109210714D01*
X188821428Y-109067857D01*
X188821428Y-108639286D01*
X188749999Y-108496429D01*
X188678571Y-108425000D01*
X188535713Y-108353571D01*
X188321428Y-108353571D01*
X188178571Y-108425000D01*
X188107142Y-108496429D01*
X188035713Y-108639286D01*
X188035713Y-109067857D01*
X188107142Y-109210714D01*
X188178571Y-109282143D01*
X188321428Y-109353571D01*
X188535713Y-109353571D01*
X187392856Y-108353571D02*
X187392856Y-109353571D01*
X187392856Y-108496429D02*
X187321428Y-108425000D01*
X187178570Y-108353571D01*
X186964285Y-108353571D01*
X186821428Y-108425000D01*
X186749999Y-108567857D01*
X186749999Y-109353571D01*
X184249999Y-109282143D02*
X184392856Y-109353571D01*
X184678570Y-109353571D01*
X184821428Y-109282143D01*
X184892856Y-109210714D01*
X184964285Y-109067857D01*
X184964285Y-108639286D01*
X184892856Y-108496429D01*
X184821428Y-108425000D01*
X184678570Y-108353571D01*
X184392856Y-108353571D01*
X184249999Y-108425000D01*
X183607142Y-109353571D02*
X183607142Y-108353571D01*
X183607142Y-107853571D02*
X183678571Y-107925000D01*
X183607142Y-107996429D01*
X183535714Y-107925000D01*
X183607142Y-107853571D01*
X183607142Y-107996429D01*
X182892856Y-109353571D02*
X182892856Y-108353571D01*
X182892856Y-108639286D02*
X182821428Y-108496429D01*
X182749999Y-108425000D01*
X182607142Y-108353571D01*
X182464285Y-108353571D01*
X181321428Y-109282143D02*
X181464285Y-109353571D01*
X181749999Y-109353571D01*
X181892857Y-109282143D01*
X181964285Y-109210714D01*
X182035714Y-109067857D01*
X182035714Y-108639286D01*
X181964285Y-108496429D01*
X181892857Y-108425000D01*
X181749999Y-108353571D01*
X181464285Y-108353571D01*
X181321428Y-108425000D01*
X180464285Y-109353571D02*
X180607143Y-109282143D01*
X180678571Y-109139286D01*
X180678571Y-107853571D01*
X179321429Y-109282143D02*
X179464286Y-109353571D01*
X179750000Y-109353571D01*
X179892857Y-109282143D01*
X179964286Y-109139286D01*
X179964286Y-108567857D01*
X179892857Y-108425000D01*
X179750000Y-108353571D01*
X179464286Y-108353571D01*
X179321429Y-108425000D01*
X179250000Y-108567857D01*
X179250000Y-108710714D01*
X179964286Y-108853571D01*
X177464286Y-108353571D02*
X177464286Y-109853571D01*
X177464286Y-108425000D02*
X177321429Y-108353571D01*
X177035715Y-108353571D01*
X176892858Y-108425000D01*
X176821429Y-108496429D01*
X176750000Y-108639286D01*
X176750000Y-109067857D01*
X176821429Y-109210714D01*
X176892858Y-109282143D01*
X177035715Y-109353571D01*
X177321429Y-109353571D01*
X177464286Y-109282143D01*
X176107143Y-109353571D02*
X176107143Y-108353571D01*
X176107143Y-107853571D02*
X176178572Y-107925000D01*
X176107143Y-107996429D01*
X176035715Y-107925000D01*
X176107143Y-107853571D01*
X176107143Y-107996429D01*
X175392857Y-108353571D02*
X175392857Y-109353571D01*
X175392857Y-108496429D02*
X175321429Y-108425000D01*
X175178571Y-108353571D01*
X174964286Y-108353571D01*
X174821429Y-108425000D01*
X174750000Y-108567857D01*
X174750000Y-109353571D01*
X174107143Y-109282143D02*
X173964286Y-109353571D01*
X173678571Y-109353571D01*
X173535714Y-109282143D01*
X173464286Y-109139286D01*
X173464286Y-109067857D01*
X173535714Y-108925000D01*
X173678571Y-108853571D01*
X173892857Y-108853571D01*
X174035714Y-108782143D01*
X174107143Y-108639286D01*
X174107143Y-108567857D01*
X174035714Y-108425000D01*
X173892857Y-108353571D01*
X173678571Y-108353571D01*
X173535714Y-108425000D01*
X196971429Y-91228571D02*
X196971429Y-89728571D01*
X196614286Y-89728571D01*
X196400001Y-89800000D01*
X196257143Y-89942857D01*
X196185715Y-90085714D01*
X196114286Y-90371429D01*
X196114286Y-90585714D01*
X196185715Y-90871429D01*
X196257143Y-91014286D01*
X196400001Y-91157143D01*
X196614286Y-91228571D01*
X196971429Y-91228571D01*
X194900001Y-91157143D02*
X195042858Y-91228571D01*
X195328572Y-91228571D01*
X195471429Y-91157143D01*
X195542858Y-91014286D01*
X195542858Y-90442857D01*
X195471429Y-90300000D01*
X195328572Y-90228571D01*
X195042858Y-90228571D01*
X194900001Y-90300000D01*
X194828572Y-90442857D01*
X194828572Y-90585714D01*
X195542858Y-90728571D01*
X194257144Y-91157143D02*
X194114287Y-91228571D01*
X193828572Y-91228571D01*
X193685715Y-91157143D01*
X193614287Y-91014286D01*
X193614287Y-90942857D01*
X193685715Y-90800000D01*
X193828572Y-90728571D01*
X194042858Y-90728571D01*
X194185715Y-90657143D01*
X194257144Y-90514286D01*
X194257144Y-90442857D01*
X194185715Y-90300000D01*
X194042858Y-90228571D01*
X193828572Y-90228571D01*
X193685715Y-90300000D01*
X192971429Y-91228571D02*
X192971429Y-90228571D01*
X192971429Y-89728571D02*
X193042858Y-89800000D01*
X192971429Y-89871429D01*
X192900001Y-89800000D01*
X192971429Y-89728571D01*
X192971429Y-89871429D01*
X191614286Y-90228571D02*
X191614286Y-91442857D01*
X191685715Y-91585714D01*
X191757143Y-91657143D01*
X191900000Y-91728571D01*
X192114286Y-91728571D01*
X192257143Y-91657143D01*
X191614286Y-91157143D02*
X191757143Y-91228571D01*
X192042857Y-91228571D01*
X192185715Y-91157143D01*
X192257143Y-91085714D01*
X192328572Y-90942857D01*
X192328572Y-90514286D01*
X192257143Y-90371429D01*
X192185715Y-90300000D01*
X192042857Y-90228571D01*
X191757143Y-90228571D01*
X191614286Y-90300000D01*
X190900000Y-90228571D02*
X190900000Y-91228571D01*
X190900000Y-90371429D02*
X190828572Y-90300000D01*
X190685714Y-90228571D01*
X190471429Y-90228571D01*
X190328572Y-90300000D01*
X190257143Y-90442857D01*
X190257143Y-91228571D01*
X188971429Y-91157143D02*
X189114286Y-91228571D01*
X189400000Y-91228571D01*
X189542857Y-91157143D01*
X189614286Y-91014286D01*
X189614286Y-90442857D01*
X189542857Y-90300000D01*
X189400000Y-90228571D01*
X189114286Y-90228571D01*
X188971429Y-90300000D01*
X188900000Y-90442857D01*
X188900000Y-90585714D01*
X189614286Y-90728571D01*
X187614286Y-91228571D02*
X187614286Y-89728571D01*
X187614286Y-91157143D02*
X187757143Y-91228571D01*
X188042857Y-91228571D01*
X188185715Y-91157143D01*
X188257143Y-91085714D01*
X188328572Y-90942857D01*
X188328572Y-90514286D01*
X188257143Y-90371429D01*
X188185715Y-90300000D01*
X188042857Y-90228571D01*
X187757143Y-90228571D01*
X187614286Y-90300000D01*
X185757143Y-91228571D02*
X185757143Y-89728571D01*
X185757143Y-90300000D02*
X185614286Y-90228571D01*
X185328572Y-90228571D01*
X185185715Y-90300000D01*
X185114286Y-90371429D01*
X185042857Y-90514286D01*
X185042857Y-90942857D01*
X185114286Y-91085714D01*
X185185715Y-91157143D01*
X185328572Y-91228571D01*
X185614286Y-91228571D01*
X185757143Y-91157143D01*
X184542857Y-90228571D02*
X184185714Y-91228571D01*
X183828572Y-90228571D02*
X184185714Y-91228571D01*
X184328572Y-91585714D01*
X184400000Y-91657143D01*
X184542857Y-91728571D01*
X182114286Y-89728571D02*
X182114286Y-90942857D01*
X182042858Y-91085714D01*
X181971429Y-91157143D01*
X181828572Y-91228571D01*
X181542858Y-91228571D01*
X181400000Y-91157143D01*
X181328572Y-91085714D01*
X181257143Y-90942857D01*
X181257143Y-89728571D01*
X180614286Y-91157143D02*
X180400000Y-91228571D01*
X180042857Y-91228571D01*
X179900000Y-91157143D01*
X179828571Y-91085714D01*
X179757143Y-90942857D01*
X179757143Y-90800000D01*
X179828571Y-90657143D01*
X179900000Y-90585714D01*
X180042857Y-90514286D01*
X180328571Y-90442857D01*
X180471429Y-90371429D01*
X180542857Y-90300000D01*
X180614286Y-90157143D01*
X180614286Y-90014286D01*
X180542857Y-89871429D01*
X180471429Y-89800000D01*
X180328571Y-89728571D01*
X179971429Y-89728571D01*
X179757143Y-89800000D01*
X178257143Y-91228571D02*
X178757143Y-90514286D01*
X179114286Y-91228571D02*
X179114286Y-89728571D01*
X178542858Y-89728571D01*
X178400000Y-89800000D01*
X178328572Y-89871429D01*
X178257143Y-90014286D01*
X178257143Y-90228571D01*
X178328572Y-90371429D01*
X178400000Y-90442857D01*
X178542858Y-90514286D01*
X179114286Y-90514286D01*
X176471429Y-91228571D02*
X176471429Y-90228571D01*
X176471429Y-89728571D02*
X176542858Y-89800000D01*
X176471429Y-89871429D01*
X176400001Y-89800000D01*
X176471429Y-89728571D01*
X176471429Y-89871429D01*
X175757143Y-90228571D02*
X175757143Y-91228571D01*
X175757143Y-90371429D02*
X175685715Y-90300000D01*
X175542857Y-90228571D01*
X175328572Y-90228571D01*
X175185715Y-90300000D01*
X175114286Y-90442857D01*
X175114286Y-91228571D01*
X173257143Y-89728571D02*
X173257143Y-90942857D01*
X173185715Y-91085714D01*
X173114286Y-91157143D01*
X172971429Y-91228571D01*
X172685715Y-91228571D01*
X172542857Y-91157143D01*
X172471429Y-91085714D01*
X172400000Y-90942857D01*
X172400000Y-89728571D01*
X171900000Y-90228571D02*
X171328571Y-90228571D01*
X171685714Y-89728571D02*
X171685714Y-91014286D01*
X171614286Y-91157143D01*
X171471428Y-91228571D01*
X171328571Y-91228571D01*
X170185714Y-91228571D02*
X170185714Y-90442857D01*
X170257143Y-90300000D01*
X170400000Y-90228571D01*
X170685714Y-90228571D01*
X170828571Y-90300000D01*
X170185714Y-91157143D02*
X170328571Y-91228571D01*
X170685714Y-91228571D01*
X170828571Y-91157143D01*
X170900000Y-91014286D01*
X170900000Y-90871429D01*
X170828571Y-90728571D01*
X170685714Y-90657143D01*
X170328571Y-90657143D01*
X170185714Y-90585714D01*
X169471428Y-91228571D02*
X169471428Y-89728571D01*
X168828571Y-91228571D02*
X168828571Y-90442857D01*
X168900000Y-90300000D01*
X169042857Y-90228571D01*
X169257142Y-90228571D01*
X169400000Y-90300000D01*
X169471428Y-90371429D01*
X192042857Y-93778571D02*
X192042857Y-92278571D01*
X191542857Y-93350000D01*
X191042857Y-92278571D01*
X191042857Y-93778571D01*
X189685714Y-93778571D02*
X189685714Y-92992857D01*
X189757143Y-92850000D01*
X189900000Y-92778571D01*
X190185714Y-92778571D01*
X190328571Y-92850000D01*
X189685714Y-93707143D02*
X189828571Y-93778571D01*
X190185714Y-93778571D01*
X190328571Y-93707143D01*
X190400000Y-93564286D01*
X190400000Y-93421429D01*
X190328571Y-93278571D01*
X190185714Y-93207143D01*
X189828571Y-93207143D01*
X189685714Y-93135714D01*
X188328571Y-93778571D02*
X188328571Y-92278571D01*
X188328571Y-93707143D02*
X188471428Y-93778571D01*
X188757142Y-93778571D01*
X188900000Y-93707143D01*
X188971428Y-93635714D01*
X189042857Y-93492857D01*
X189042857Y-93064286D01*
X188971428Y-92921429D01*
X188900000Y-92850000D01*
X188757142Y-92778571D01*
X188471428Y-92778571D01*
X188328571Y-92850000D01*
X187042857Y-93707143D02*
X187185714Y-93778571D01*
X187471428Y-93778571D01*
X187614285Y-93707143D01*
X187685714Y-93564286D01*
X187685714Y-92992857D01*
X187614285Y-92850000D01*
X187471428Y-92778571D01*
X187185714Y-92778571D01*
X187042857Y-92850000D01*
X186971428Y-92992857D01*
X186971428Y-93135714D01*
X187685714Y-93278571D01*
X185185714Y-93778571D02*
X185185714Y-92778571D01*
X185185714Y-92278571D02*
X185257143Y-92350000D01*
X185185714Y-92421429D01*
X185114286Y-92350000D01*
X185185714Y-92278571D01*
X185185714Y-92421429D01*
X184471428Y-92778571D02*
X184471428Y-93778571D01*
X184471428Y-92921429D02*
X184400000Y-92850000D01*
X184257142Y-92778571D01*
X184042857Y-92778571D01*
X183900000Y-92850000D01*
X183828571Y-92992857D01*
X183828571Y-93778571D01*
X182185714Y-92778571D02*
X181614285Y-92778571D01*
X181971428Y-92278571D02*
X181971428Y-93564286D01*
X181900000Y-93707143D01*
X181757142Y-93778571D01*
X181614285Y-93778571D01*
X181114285Y-93778571D02*
X181114285Y-92278571D01*
X180471428Y-93778571D02*
X180471428Y-92992857D01*
X180542857Y-92850000D01*
X180685714Y-92778571D01*
X180899999Y-92778571D01*
X181042857Y-92850000D01*
X181114285Y-92921429D01*
X179185714Y-93707143D02*
X179328571Y-93778571D01*
X179614285Y-93778571D01*
X179757142Y-93707143D01*
X179828571Y-93564286D01*
X179828571Y-92992857D01*
X179757142Y-92850000D01*
X179614285Y-92778571D01*
X179328571Y-92778571D01*
X179185714Y-92850000D01*
X179114285Y-92992857D01*
X179114285Y-93135714D01*
X179828571Y-93278571D01*
X177328571Y-92278571D02*
X177328571Y-93492857D01*
X177257143Y-93635714D01*
X177185714Y-93707143D01*
X177042857Y-93778571D01*
X176757143Y-93778571D01*
X176614285Y-93707143D01*
X176542857Y-93635714D01*
X176471428Y-93492857D01*
X176471428Y-92278571D01*
X175828571Y-93707143D02*
X175614285Y-93778571D01*
X175257142Y-93778571D01*
X175114285Y-93707143D01*
X175042856Y-93635714D01*
X174971428Y-93492857D01*
X174971428Y-93350000D01*
X175042856Y-93207143D01*
X175114285Y-93135714D01*
X175257142Y-93064286D01*
X175542856Y-92992857D01*
X175685714Y-92921429D01*
X175757142Y-92850000D01*
X175828571Y-92707143D01*
X175828571Y-92564286D01*
X175757142Y-92421429D01*
X175685714Y-92350000D01*
X175542856Y-92278571D01*
X175185714Y-92278571D01*
X174971428Y-92350000D01*
X174400000Y-93350000D02*
X173685714Y-93350000D01*
X174542857Y-93778571D02*
X174042857Y-92278571D01*
X173542857Y-93778571D01*
X201042857Y-94828571D02*
X200185714Y-94828571D01*
X200614285Y-96328571D02*
X200614285Y-94828571D01*
X199685714Y-96328571D02*
X199685714Y-95328571D01*
X199685714Y-94828571D02*
X199757143Y-94900000D01*
X199685714Y-94971429D01*
X199614286Y-94900000D01*
X199685714Y-94828571D01*
X199685714Y-94971429D01*
X198971428Y-95328571D02*
X198971428Y-96328571D01*
X198971428Y-95471429D02*
X198900000Y-95400000D01*
X198757142Y-95328571D01*
X198542857Y-95328571D01*
X198400000Y-95400000D01*
X198328571Y-95542857D01*
X198328571Y-96328571D01*
X196971428Y-96328571D02*
X196971428Y-95542857D01*
X197042857Y-95400000D01*
X197185714Y-95328571D01*
X197471428Y-95328571D01*
X197614285Y-95400000D01*
X196971428Y-96257143D02*
X197114285Y-96328571D01*
X197471428Y-96328571D01*
X197614285Y-96257143D01*
X197685714Y-96114286D01*
X197685714Y-95971429D01*
X197614285Y-95828571D01*
X197471428Y-95757143D01*
X197114285Y-95757143D01*
X196971428Y-95685714D01*
X195114285Y-96328571D02*
X195114285Y-94828571D01*
X195114285Y-95542857D02*
X194257142Y-95542857D01*
X194257142Y-96328571D02*
X194257142Y-94828571D01*
X192899999Y-96328571D02*
X192899999Y-95542857D01*
X192971428Y-95400000D01*
X193114285Y-95328571D01*
X193399999Y-95328571D01*
X193542856Y-95400000D01*
X192899999Y-96257143D02*
X193042856Y-96328571D01*
X193399999Y-96328571D01*
X193542856Y-96257143D01*
X193614285Y-96114286D01*
X193614285Y-95971429D01*
X193542856Y-95828571D01*
X193399999Y-95757143D01*
X193042856Y-95757143D01*
X192899999Y-95685714D01*
X192328570Y-95328571D02*
X191971427Y-96328571D01*
X191614285Y-95328571D02*
X191971427Y-96328571D01*
X192114285Y-96685714D01*
X192185713Y-96757143D01*
X192328570Y-96828571D01*
X191185713Y-95328571D02*
X190899999Y-96328571D01*
X190614285Y-95614286D01*
X190328570Y-96328571D01*
X190042856Y-95328571D01*
X188828570Y-96328571D02*
X188828570Y-95542857D01*
X188899999Y-95400000D01*
X189042856Y-95328571D01*
X189328570Y-95328571D01*
X189471427Y-95400000D01*
X188828570Y-96257143D02*
X188971427Y-96328571D01*
X189328570Y-96328571D01*
X189471427Y-96257143D01*
X189542856Y-96114286D01*
X189542856Y-95971429D01*
X189471427Y-95828571D01*
X189328570Y-95757143D01*
X188971427Y-95757143D01*
X188828570Y-95685714D01*
X188114284Y-96328571D02*
X188114284Y-95328571D01*
X188114284Y-95614286D02*
X188042856Y-95471429D01*
X187971427Y-95400000D01*
X187828570Y-95328571D01*
X187685713Y-95328571D01*
X186542856Y-96328571D02*
X186542856Y-94828571D01*
X186542856Y-96257143D02*
X186685713Y-96328571D01*
X186971427Y-96328571D01*
X187114285Y-96257143D01*
X187185713Y-96185714D01*
X187257142Y-96042857D01*
X187257142Y-95614286D01*
X187185713Y-95471429D01*
X187114285Y-95400000D01*
X186971427Y-95328571D01*
X186685713Y-95328571D01*
X186542856Y-95400000D01*
X183471427Y-96328571D02*
X183542856Y-96328571D01*
X183685713Y-96257143D01*
X183899999Y-96042857D01*
X184257142Y-95614286D01*
X184399999Y-95400000D01*
X184471427Y-95185714D01*
X184471427Y-95042857D01*
X184399999Y-94900000D01*
X184257142Y-94828571D01*
X184185713Y-94828571D01*
X184042856Y-94900000D01*
X183971427Y-95042857D01*
X183971427Y-95114286D01*
X184042856Y-95257143D01*
X184114285Y-95328571D01*
X184542856Y-95614286D01*
X184614285Y-95685714D01*
X184685713Y-95828571D01*
X184685713Y-96042857D01*
X184614285Y-96185714D01*
X184542856Y-96257143D01*
X184399999Y-96328571D01*
X184185713Y-96328571D01*
X184042856Y-96257143D01*
X183971427Y-96185714D01*
X183757142Y-95900000D01*
X183685713Y-95685714D01*
X183685713Y-95542857D01*
X180828570Y-96185714D02*
X180899999Y-96257143D01*
X181114285Y-96328571D01*
X181257142Y-96328571D01*
X181471427Y-96257143D01*
X181614285Y-96114286D01*
X181685713Y-95971429D01*
X181757142Y-95685714D01*
X181757142Y-95471429D01*
X181685713Y-95185714D01*
X181614285Y-95042857D01*
X181471427Y-94900000D01*
X181257142Y-94828571D01*
X181114285Y-94828571D01*
X180899999Y-94900000D01*
X180828570Y-94971429D01*
X179971427Y-96328571D02*
X180114285Y-96257143D01*
X180185713Y-96185714D01*
X180257142Y-96042857D01*
X180257142Y-95614286D01*
X180185713Y-95471429D01*
X180114285Y-95400000D01*
X179971427Y-95328571D01*
X179757142Y-95328571D01*
X179614285Y-95400000D01*
X179542856Y-95471429D01*
X179471427Y-95614286D01*
X179471427Y-96042857D01*
X179542856Y-96185714D01*
X179614285Y-96257143D01*
X179757142Y-96328571D01*
X179971427Y-96328571D01*
X178614284Y-96328571D02*
X178757142Y-96257143D01*
X178828570Y-96114286D01*
X178828570Y-94828571D01*
X177471428Y-96257143D02*
X177614285Y-96328571D01*
X177899999Y-96328571D01*
X178042856Y-96257143D01*
X178114285Y-96114286D01*
X178114285Y-95542857D01*
X178042856Y-95400000D01*
X177899999Y-95328571D01*
X177614285Y-95328571D01*
X177471428Y-95400000D01*
X177399999Y-95542857D01*
X177399999Y-95685714D01*
X178114285Y-95828571D01*
X175614285Y-96328571D02*
X175614285Y-94828571D01*
X175114285Y-95900000D01*
X174614285Y-94828571D01*
X174614285Y-96328571D01*
X173685713Y-96328571D02*
X173828571Y-96257143D01*
X173899999Y-96185714D01*
X173971428Y-96042857D01*
X173971428Y-95614286D01*
X173899999Y-95471429D01*
X173828571Y-95400000D01*
X173685713Y-95328571D01*
X173471428Y-95328571D01*
X173328571Y-95400000D01*
X173257142Y-95471429D01*
X173185713Y-95614286D01*
X173185713Y-96042857D01*
X173257142Y-96185714D01*
X173328571Y-96257143D01*
X173471428Y-96328571D01*
X173685713Y-96328571D01*
X172542856Y-96328571D02*
X172542856Y-95328571D01*
X172542856Y-95614286D02*
X172471428Y-95471429D01*
X172399999Y-95400000D01*
X172257142Y-95328571D01*
X172114285Y-95328571D01*
X171828571Y-95328571D02*
X171257142Y-95328571D01*
X171614285Y-94828571D02*
X171614285Y-96114286D01*
X171542857Y-96257143D01*
X171399999Y-96328571D01*
X171257142Y-96328571D01*
X170185714Y-96257143D02*
X170328571Y-96328571D01*
X170614285Y-96328571D01*
X170757142Y-96257143D01*
X170828571Y-96114286D01*
X170828571Y-95542857D01*
X170757142Y-95400000D01*
X170614285Y-95328571D01*
X170328571Y-95328571D01*
X170185714Y-95400000D01*
X170114285Y-95542857D01*
X170114285Y-95685714D01*
X170828571Y-95828571D01*
X169471428Y-95328571D02*
X169471428Y-96328571D01*
X169471428Y-95471429D02*
X169400000Y-95400000D01*
X169257142Y-95328571D01*
X169042857Y-95328571D01*
X168900000Y-95400000D01*
X168828571Y-95542857D01*
X168828571Y-96328571D01*
X168185714Y-96257143D02*
X168042857Y-96328571D01*
X167757142Y-96328571D01*
X167614285Y-96257143D01*
X167542857Y-96114286D01*
X167542857Y-96042857D01*
X167614285Y-95900000D01*
X167757142Y-95828571D01*
X167971428Y-95828571D01*
X168114285Y-95757143D01*
X168185714Y-95614286D01*
X168185714Y-95542857D01*
X168114285Y-95400000D01*
X167971428Y-95328571D01*
X167757142Y-95328571D01*
X167614285Y-95400000D01*
X166328571Y-96257143D02*
X166471428Y-96328571D01*
X166757142Y-96328571D01*
X166899999Y-96257143D01*
X166971428Y-96114286D01*
X166971428Y-95542857D01*
X166899999Y-95400000D01*
X166757142Y-95328571D01*
X166471428Y-95328571D01*
X166328571Y-95400000D01*
X166257142Y-95542857D01*
X166257142Y-95685714D01*
X166971428Y-95828571D01*
X165614285Y-95328571D02*
X165614285Y-96328571D01*
X165614285Y-95471429D02*
X165542857Y-95400000D01*
X165399999Y-95328571D01*
X165185714Y-95328571D01*
X165042857Y-95400000D01*
X164971428Y-95542857D01*
X164971428Y-96328571D01*
%LPC*%
D12*
X181450000Y-112210000D03*
X184850000Y-112210000D03*
X184850000Y-98740000D03*
X181450000Y-98737000D03*
D13*
X140000000Y-107750000D03*
D14*
X145500000Y-107750000D03*
D15*
X132700000Y-107750000D03*
D13*
X140025000Y-69775000D03*
D14*
X145525000Y-69775000D03*
D15*
X132725000Y-69775000D03*
D13*
X152700000Y-81450000D03*
D14*
X152700000Y-86950000D03*
D15*
X152700000Y-74150000D03*
D13*
X140000000Y-117250000D03*
D14*
X145500000Y-117250000D03*
D15*
X132700000Y-117250000D03*
D13*
X140025000Y-79225000D03*
D14*
X145525000Y-79225000D03*
D15*
X132725000Y-79225000D03*
D13*
X140025000Y-88725000D03*
D14*
X145525000Y-88725000D03*
D15*
X132725000Y-88725000D03*
D13*
X140000000Y-98250000D03*
D14*
X145500000Y-98250000D03*
D15*
X132700000Y-98250000D03*
D13*
X162200000Y-81450000D03*
D14*
X162200000Y-86950000D03*
D15*
X162200000Y-74150000D03*
D13*
X184900000Y-81450000D03*
D14*
X184900000Y-86950000D03*
D15*
X184900000Y-74150000D03*
D13*
X226100000Y-69750000D03*
D14*
X220600000Y-69750000D03*
D15*
X233400000Y-69750000D03*
D13*
X226100000Y-79250000D03*
D14*
X220600000Y-79250000D03*
D15*
X233400000Y-79250000D03*
D13*
X226100000Y-88750000D03*
D14*
X220600000Y-88750000D03*
D15*
X233400000Y-88750000D03*
D13*
X226100000Y-98200000D03*
D14*
X220600000Y-98200000D03*
D15*
X233400000Y-98200000D03*
D13*
X203900000Y-81450000D03*
D14*
X203900000Y-86950000D03*
D15*
X203900000Y-74150000D03*
D13*
X213400000Y-81450000D03*
D14*
X213400000Y-86950000D03*
D15*
X213400000Y-74150000D03*
D13*
X226100000Y-117200000D03*
D14*
X220600000Y-117200000D03*
D15*
X233400000Y-117200000D03*
D13*
X194400000Y-81450000D03*
D14*
X194400000Y-86950000D03*
D15*
X194400000Y-74150000D03*
D13*
X226100000Y-107700000D03*
D14*
X220600000Y-107700000D03*
D15*
X233400000Y-107700000D03*
D13*
X170700000Y-81450000D03*
D14*
X176400000Y-81450000D03*
X170700000Y-86950000D03*
X176400000Y-86950000D03*
D15*
X173550000Y-74150000D03*
D16*
X161350000Y-111700000D03*
X169750000Y-102200000D03*
X152950000Y-102200000D03*
X161350000Y-93800000D03*
X204800000Y-111700000D03*
X213200000Y-102200000D03*
X196400000Y-102200000D03*
X204800000Y-93800000D03*
M02*
