G04 #@! TF.FileFunction,Soldermask,Bot*
%FSLAX46Y46*%
G04 Gerber Fmt 4.6, Leading zero omitted, Abs format (unit mm)*
G04 Created by KiCad (PCBNEW 4.0.7) date 11/16/17 10:54:23*
%MOMM*%
%LPD*%
G01*
G04 APERTURE LIST*
%ADD10C,0.100000*%
%ADD11C,2.950000*%
%ADD12R,4.150000X4.150000*%
%ADD13C,4.150000*%
%ADD14C,3.400000*%
%ADD15C,3.450000*%
G04 APERTURE END LIST*
D10*
D11*
X181450000Y-112210000D03*
X184850000Y-112210000D03*
X184850000Y-98740000D03*
X181450000Y-98737000D03*
D12*
X140000000Y-107750000D03*
D13*
X145500000Y-107750000D03*
D14*
X132700000Y-107750000D03*
D12*
X140025000Y-69775000D03*
D13*
X145525000Y-69775000D03*
D14*
X132725000Y-69775000D03*
D12*
X152700000Y-81450000D03*
D13*
X152700000Y-86950000D03*
D14*
X152700000Y-74150000D03*
D12*
X140000000Y-117250000D03*
D13*
X145500000Y-117250000D03*
D14*
X132700000Y-117250000D03*
D12*
X140025000Y-79225000D03*
D13*
X145525000Y-79225000D03*
D14*
X132725000Y-79225000D03*
D12*
X140025000Y-88725000D03*
D13*
X145525000Y-88725000D03*
D14*
X132725000Y-88725000D03*
D12*
X140000000Y-98250000D03*
D13*
X145500000Y-98250000D03*
D14*
X132700000Y-98250000D03*
D12*
X162200000Y-81450000D03*
D13*
X162200000Y-86950000D03*
D14*
X162200000Y-74150000D03*
D12*
X184900000Y-81450000D03*
D13*
X184900000Y-86950000D03*
D14*
X184900000Y-74150000D03*
D12*
X226100000Y-69750000D03*
D13*
X220600000Y-69750000D03*
D14*
X233400000Y-69750000D03*
D12*
X226100000Y-79250000D03*
D13*
X220600000Y-79250000D03*
D14*
X233400000Y-79250000D03*
D12*
X226100000Y-88750000D03*
D13*
X220600000Y-88750000D03*
D14*
X233400000Y-88750000D03*
D12*
X226100000Y-98200000D03*
D13*
X220600000Y-98200000D03*
D14*
X233400000Y-98200000D03*
D12*
X203900000Y-81450000D03*
D13*
X203900000Y-86950000D03*
D14*
X203900000Y-74150000D03*
D12*
X213400000Y-81450000D03*
D13*
X213400000Y-86950000D03*
D14*
X213400000Y-74150000D03*
D12*
X226100000Y-117200000D03*
D13*
X220600000Y-117200000D03*
D14*
X233400000Y-117200000D03*
D12*
X194400000Y-81450000D03*
D13*
X194400000Y-86950000D03*
D14*
X194400000Y-74150000D03*
D12*
X226100000Y-107700000D03*
D13*
X220600000Y-107700000D03*
D14*
X233400000Y-107700000D03*
D12*
X170700000Y-81450000D03*
D13*
X176400000Y-81450000D03*
X170700000Y-86950000D03*
X176400000Y-86950000D03*
D14*
X173550000Y-74150000D03*
D15*
X161350000Y-111700000D03*
X169750000Y-102200000D03*
X152950000Y-102200000D03*
X161350000Y-93800000D03*
X204800000Y-111700000D03*
X213200000Y-102200000D03*
X196400000Y-102200000D03*
X204800000Y-93800000D03*
M02*
