G04 #@! TF.FileFunction,Copper,L2,Bot,Signal*
%FSLAX46Y46*%
G04 Gerber Fmt 4.6, Leading zero omitted, Abs format (unit mm)*
G04 Created by KiCad (PCBNEW 4.0.7) date 11/16/17 10:54:23*
%MOMM*%
%LPD*%
G01*
G04 APERTURE LIST*
%ADD10C,0.100000*%
%ADD11C,2.550000*%
%ADD12R,3.750000X3.750000*%
%ADD13C,3.750000*%
%ADD14C,3.050000*%
%ADD15C,0.600000*%
%ADD16C,0.250000*%
%ADD17C,0.254000*%
G04 APERTURE END LIST*
D10*
D11*
X181450000Y-112210000D03*
X184850000Y-112210000D03*
X184850000Y-98740000D03*
X181450000Y-98737000D03*
D12*
X140000000Y-107750000D03*
D13*
X145500000Y-107750000D03*
D12*
X140025000Y-69775000D03*
D13*
X145525000Y-69775000D03*
D12*
X152700000Y-81450000D03*
D13*
X152700000Y-86950000D03*
D12*
X140000000Y-117250000D03*
D13*
X145500000Y-117250000D03*
D12*
X140025000Y-79225000D03*
D13*
X145525000Y-79225000D03*
D12*
X140025000Y-88725000D03*
D13*
X145525000Y-88725000D03*
D12*
X140000000Y-98250000D03*
D13*
X145500000Y-98250000D03*
D12*
X162200000Y-81450000D03*
D13*
X162200000Y-86950000D03*
D12*
X184900000Y-81450000D03*
D13*
X184900000Y-86950000D03*
D12*
X226100000Y-69750000D03*
D13*
X220600000Y-69750000D03*
D12*
X226100000Y-79250000D03*
D13*
X220600000Y-79250000D03*
D12*
X226100000Y-88750000D03*
D13*
X220600000Y-88750000D03*
D12*
X226100000Y-98200000D03*
D13*
X220600000Y-98200000D03*
D12*
X203900000Y-81450000D03*
D13*
X203900000Y-86950000D03*
D12*
X213400000Y-81450000D03*
D13*
X213400000Y-86950000D03*
D12*
X226100000Y-117200000D03*
D13*
X220600000Y-117200000D03*
D12*
X194400000Y-81450000D03*
D13*
X194400000Y-86950000D03*
D12*
X226100000Y-107700000D03*
D13*
X220600000Y-107700000D03*
D12*
X170700000Y-81450000D03*
D13*
X176400000Y-81450000D03*
X170700000Y-86950000D03*
X176400000Y-86950000D03*
D14*
X161350000Y-111700000D03*
X169750000Y-102200000D03*
X152950000Y-102200000D03*
X161350000Y-93800000D03*
X204800000Y-111700000D03*
X213200000Y-102200000D03*
X196400000Y-102200000D03*
X204800000Y-93800000D03*
D15*
X151130000Y-120650000D03*
X173990000Y-120650000D03*
X217170000Y-120650000D03*
X200660000Y-120650000D03*
X165600000Y-95400000D03*
X169700000Y-116700000D03*
X155300000Y-97200000D03*
D16*
X169300000Y-99100000D02*
X169300000Y-101750000D01*
X165600000Y-95400000D02*
X169300000Y-99100000D01*
X169300000Y-101750000D02*
X169750000Y-102200000D01*
X169750000Y-115150000D02*
X169750000Y-102200000D01*
X169700000Y-116700000D02*
X169750000Y-115150000D01*
X162200000Y-86950000D02*
X159550000Y-86950000D01*
X155300000Y-91200000D02*
X155300000Y-97200000D01*
X159550000Y-86950000D02*
X155300000Y-91200000D01*
D17*
G36*
X242090000Y-121490000D02*
X123910000Y-121490000D01*
X123910000Y-117672815D01*
X130564630Y-117672815D01*
X130888980Y-118457800D01*
X131489041Y-119058909D01*
X132273459Y-119384628D01*
X133122815Y-119385370D01*
X133907800Y-119061020D01*
X134508909Y-118460959D01*
X134834628Y-117676541D01*
X134835370Y-116827185D01*
X134511020Y-116042200D01*
X133910959Y-115441091D01*
X133751795Y-115375000D01*
X137477560Y-115375000D01*
X137477560Y-119125000D01*
X137521838Y-119360317D01*
X137660910Y-119576441D01*
X137873110Y-119721431D01*
X138125000Y-119772440D01*
X141875000Y-119772440D01*
X142110317Y-119728162D01*
X142326441Y-119589090D01*
X142471431Y-119376890D01*
X142480982Y-119329721D01*
X144301335Y-119329721D01*
X144545025Y-119624320D01*
X145526331Y-119809039D01*
X146454975Y-119624320D01*
X146698665Y-119329721D01*
X146648666Y-119279721D01*
X219401335Y-119279721D01*
X219645025Y-119574320D01*
X220626331Y-119759039D01*
X221554975Y-119574320D01*
X221798665Y-119279721D01*
X220600000Y-118081055D01*
X219401335Y-119279721D01*
X146648666Y-119279721D01*
X145500000Y-118131055D01*
X144301335Y-119329721D01*
X142480982Y-119329721D01*
X142522440Y-119125000D01*
X142522440Y-117276331D01*
X142940961Y-117276331D01*
X143125680Y-118204975D01*
X143420279Y-118448665D01*
X144618945Y-117250000D01*
X146381055Y-117250000D01*
X147579721Y-118448665D01*
X147874320Y-118204975D01*
X148059039Y-117223669D01*
X147874320Y-116295025D01*
X147579721Y-116051335D01*
X146381055Y-117250000D01*
X144618945Y-117250000D01*
X143420279Y-116051335D01*
X143125680Y-116295025D01*
X142940961Y-117276331D01*
X142522440Y-117276331D01*
X142522440Y-115375000D01*
X142483920Y-115170279D01*
X144301335Y-115170279D01*
X145500000Y-116368945D01*
X146698665Y-115170279D01*
X146454975Y-114875680D01*
X145473669Y-114690961D01*
X144545025Y-114875680D01*
X144301335Y-115170279D01*
X142483920Y-115170279D01*
X142478162Y-115139683D01*
X142339090Y-114923559D01*
X142126890Y-114778569D01*
X141875000Y-114727560D01*
X138125000Y-114727560D01*
X137889683Y-114771838D01*
X137673559Y-114910910D01*
X137528569Y-115123110D01*
X137477560Y-115375000D01*
X133751795Y-115375000D01*
X133126541Y-115115372D01*
X132277185Y-115114630D01*
X131492200Y-115438980D01*
X130891091Y-116039041D01*
X130565372Y-116823459D01*
X130564630Y-117672815D01*
X123910000Y-117672815D01*
X123910000Y-112127766D01*
X159189626Y-112127766D01*
X159517773Y-112921943D01*
X160124861Y-113530091D01*
X160918464Y-113859624D01*
X161777766Y-113860374D01*
X162571943Y-113532227D01*
X163180091Y-112925139D01*
X163509624Y-112131536D01*
X163510374Y-111272234D01*
X163182227Y-110478057D01*
X162575139Y-109869909D01*
X161781536Y-109540376D01*
X160922234Y-109539626D01*
X160128057Y-109867773D01*
X159519909Y-110474861D01*
X159190376Y-111268464D01*
X159189626Y-112127766D01*
X123910000Y-112127766D01*
X123910000Y-108172815D01*
X130564630Y-108172815D01*
X130888980Y-108957800D01*
X131489041Y-109558909D01*
X132273459Y-109884628D01*
X133122815Y-109885370D01*
X133907800Y-109561020D01*
X134508909Y-108960959D01*
X134834628Y-108176541D01*
X134835370Y-107327185D01*
X134511020Y-106542200D01*
X133910959Y-105941091D01*
X133751795Y-105875000D01*
X137477560Y-105875000D01*
X137477560Y-109625000D01*
X137521838Y-109860317D01*
X137660910Y-110076441D01*
X137873110Y-110221431D01*
X138125000Y-110272440D01*
X141875000Y-110272440D01*
X142110317Y-110228162D01*
X142326441Y-110089090D01*
X142471431Y-109876890D01*
X142480982Y-109829721D01*
X144301335Y-109829721D01*
X144545025Y-110124320D01*
X145526331Y-110309039D01*
X146454975Y-110124320D01*
X146698665Y-109829721D01*
X145500000Y-108631055D01*
X144301335Y-109829721D01*
X142480982Y-109829721D01*
X142522440Y-109625000D01*
X142522440Y-107776331D01*
X142940961Y-107776331D01*
X143125680Y-108704975D01*
X143420279Y-108948665D01*
X144618945Y-107750000D01*
X146381055Y-107750000D01*
X147579721Y-108948665D01*
X147874320Y-108704975D01*
X148059039Y-107723669D01*
X147874320Y-106795025D01*
X147579721Y-106551335D01*
X146381055Y-107750000D01*
X144618945Y-107750000D01*
X143420279Y-106551335D01*
X143125680Y-106795025D01*
X142940961Y-107776331D01*
X142522440Y-107776331D01*
X142522440Y-105875000D01*
X142483920Y-105670279D01*
X144301335Y-105670279D01*
X145500000Y-106868945D01*
X146698665Y-105670279D01*
X146454975Y-105375680D01*
X145473669Y-105190961D01*
X144545025Y-105375680D01*
X144301335Y-105670279D01*
X142483920Y-105670279D01*
X142478162Y-105639683D01*
X142339090Y-105423559D01*
X142126890Y-105278569D01*
X141875000Y-105227560D01*
X138125000Y-105227560D01*
X137889683Y-105271838D01*
X137673559Y-105410910D01*
X137528569Y-105623110D01*
X137477560Y-105875000D01*
X133751795Y-105875000D01*
X133126541Y-105615372D01*
X132277185Y-105614630D01*
X131492200Y-105938980D01*
X130891091Y-106539041D01*
X130565372Y-107323459D01*
X130564630Y-108172815D01*
X123910000Y-108172815D01*
X123910000Y-104016761D01*
X152014294Y-104016761D01*
X152212402Y-104275127D01*
X153062665Y-104399434D01*
X153687598Y-104275127D01*
X153885706Y-104016761D01*
X152950000Y-103081055D01*
X152014294Y-104016761D01*
X123910000Y-104016761D01*
X123910000Y-102312665D01*
X150750566Y-102312665D01*
X150874873Y-102937598D01*
X151133239Y-103135706D01*
X152068945Y-102200000D01*
X153831055Y-102200000D01*
X154766761Y-103135706D01*
X155025127Y-102937598D01*
X155149434Y-102087335D01*
X155025127Y-101462402D01*
X154766761Y-101264294D01*
X153831055Y-102200000D01*
X152068945Y-102200000D01*
X151133239Y-101264294D01*
X150874873Y-101462402D01*
X150750566Y-102312665D01*
X123910000Y-102312665D01*
X123910000Y-98672815D01*
X130564630Y-98672815D01*
X130888980Y-99457800D01*
X131489041Y-100058909D01*
X132273459Y-100384628D01*
X133122815Y-100385370D01*
X133907800Y-100061020D01*
X134508909Y-99460959D01*
X134834628Y-98676541D01*
X134835370Y-97827185D01*
X134511020Y-97042200D01*
X133910959Y-96441091D01*
X133751795Y-96375000D01*
X137477560Y-96375000D01*
X137477560Y-100125000D01*
X137521838Y-100360317D01*
X137660910Y-100576441D01*
X137873110Y-100721431D01*
X138125000Y-100772440D01*
X141875000Y-100772440D01*
X142110317Y-100728162D01*
X142326441Y-100589090D01*
X142471431Y-100376890D01*
X142480982Y-100329721D01*
X144301335Y-100329721D01*
X144545025Y-100624320D01*
X145526331Y-100809039D01*
X146454975Y-100624320D01*
X146654395Y-100383239D01*
X152014294Y-100383239D01*
X152950000Y-101318945D01*
X153885706Y-100383239D01*
X153687598Y-100124873D01*
X152837335Y-100000566D01*
X152212402Y-100124873D01*
X152014294Y-100383239D01*
X146654395Y-100383239D01*
X146698665Y-100329721D01*
X145500000Y-99131055D01*
X144301335Y-100329721D01*
X142480982Y-100329721D01*
X142522440Y-100125000D01*
X142522440Y-98276331D01*
X142940961Y-98276331D01*
X143125680Y-99204975D01*
X143420279Y-99448665D01*
X144618945Y-98250000D01*
X146381055Y-98250000D01*
X147579721Y-99448665D01*
X147874320Y-99204975D01*
X148059039Y-98223669D01*
X147892251Y-97385167D01*
X154364838Y-97385167D01*
X154506883Y-97728943D01*
X154769673Y-97992192D01*
X155113201Y-98134838D01*
X155485167Y-98135162D01*
X155828943Y-97993117D01*
X156092192Y-97730327D01*
X156234838Y-97386799D01*
X156235162Y-97014833D01*
X156093117Y-96671057D01*
X156060000Y-96637882D01*
X156060000Y-94227766D01*
X159189626Y-94227766D01*
X159517773Y-95021943D01*
X160124861Y-95630091D01*
X160918464Y-95959624D01*
X161777766Y-95960374D01*
X162571943Y-95632227D01*
X162619085Y-95585167D01*
X164664838Y-95585167D01*
X164806883Y-95928943D01*
X165069673Y-96192192D01*
X165413201Y-96334838D01*
X165460077Y-96334879D01*
X168540000Y-99414802D01*
X168540000Y-100362838D01*
X168528057Y-100367773D01*
X167919909Y-100974861D01*
X167590376Y-101768464D01*
X167589626Y-102627766D01*
X167917773Y-103421943D01*
X168524861Y-104030091D01*
X168990000Y-104223234D01*
X168990000Y-115137742D01*
X168958339Y-116119230D01*
X168907808Y-116169673D01*
X168765162Y-116513201D01*
X168764838Y-116885167D01*
X168906883Y-117228943D01*
X169169673Y-117492192D01*
X169513201Y-117634838D01*
X169885167Y-117635162D01*
X170228943Y-117493117D01*
X170492192Y-117230327D01*
X170493851Y-117226331D01*
X218040961Y-117226331D01*
X218225680Y-118154975D01*
X218520279Y-118398665D01*
X219718945Y-117200000D01*
X221481055Y-117200000D01*
X222679721Y-118398665D01*
X222974320Y-118154975D01*
X223159039Y-117173669D01*
X222974320Y-116245025D01*
X222679721Y-116001335D01*
X221481055Y-117200000D01*
X219718945Y-117200000D01*
X218520279Y-116001335D01*
X218225680Y-116245025D01*
X218040961Y-117226331D01*
X170493851Y-117226331D01*
X170634838Y-116886799D01*
X170635162Y-116514833D01*
X170493117Y-116171057D01*
X170477948Y-116155862D01*
X170509605Y-115174504D01*
X170507570Y-115162216D01*
X170510000Y-115150000D01*
X170510000Y-115120279D01*
X219401335Y-115120279D01*
X220600000Y-116318945D01*
X221593944Y-115325000D01*
X223577560Y-115325000D01*
X223577560Y-119075000D01*
X223621838Y-119310317D01*
X223760910Y-119526441D01*
X223973110Y-119671431D01*
X224225000Y-119722440D01*
X227975000Y-119722440D01*
X228210317Y-119678162D01*
X228426441Y-119539090D01*
X228571431Y-119326890D01*
X228622440Y-119075000D01*
X228622440Y-117622815D01*
X231264630Y-117622815D01*
X231588980Y-118407800D01*
X232189041Y-119008909D01*
X232973459Y-119334628D01*
X233822815Y-119335370D01*
X234607800Y-119011020D01*
X235208909Y-118410959D01*
X235534628Y-117626541D01*
X235535370Y-116777185D01*
X235211020Y-115992200D01*
X234610959Y-115391091D01*
X233826541Y-115065372D01*
X232977185Y-115064630D01*
X232192200Y-115388980D01*
X231591091Y-115989041D01*
X231265372Y-116773459D01*
X231264630Y-117622815D01*
X228622440Y-117622815D01*
X228622440Y-115325000D01*
X228578162Y-115089683D01*
X228439090Y-114873559D01*
X228226890Y-114728569D01*
X227975000Y-114677560D01*
X224225000Y-114677560D01*
X223989683Y-114721838D01*
X223773559Y-114860910D01*
X223628569Y-115073110D01*
X223577560Y-115325000D01*
X221593944Y-115325000D01*
X221798665Y-115120279D01*
X221554975Y-114825680D01*
X220573669Y-114640961D01*
X219645025Y-114825680D01*
X219401335Y-115120279D01*
X170510000Y-115120279D01*
X170510000Y-112588256D01*
X179539669Y-112588256D01*
X179829837Y-113290515D01*
X180366659Y-113828275D01*
X181068411Y-114119668D01*
X181828256Y-114120331D01*
X182530515Y-113830163D01*
X183068275Y-113293341D01*
X183149841Y-113096909D01*
X183229837Y-113290515D01*
X183766659Y-113828275D01*
X184468411Y-114119668D01*
X185228256Y-114120331D01*
X185930515Y-113830163D01*
X186468275Y-113293341D01*
X186759668Y-112591589D01*
X186760072Y-112127766D01*
X202639626Y-112127766D01*
X202967773Y-112921943D01*
X203574861Y-113530091D01*
X204368464Y-113859624D01*
X205227766Y-113860374D01*
X206021943Y-113532227D01*
X206630091Y-112925139D01*
X206959624Y-112131536D01*
X206960374Y-111272234D01*
X206632227Y-110478057D01*
X206025139Y-109869909D01*
X205807943Y-109779721D01*
X219401335Y-109779721D01*
X219645025Y-110074320D01*
X220626331Y-110259039D01*
X221554975Y-110074320D01*
X221798665Y-109779721D01*
X220600000Y-108581055D01*
X219401335Y-109779721D01*
X205807943Y-109779721D01*
X205231536Y-109540376D01*
X204372234Y-109539626D01*
X203578057Y-109867773D01*
X202969909Y-110474861D01*
X202640376Y-111268464D01*
X202639626Y-112127766D01*
X186760072Y-112127766D01*
X186760331Y-111831744D01*
X186470163Y-111129485D01*
X185933341Y-110591725D01*
X185231589Y-110300332D01*
X184471744Y-110299669D01*
X183769485Y-110589837D01*
X183231725Y-111126659D01*
X183150159Y-111323091D01*
X183070163Y-111129485D01*
X182533341Y-110591725D01*
X181831589Y-110300332D01*
X181071744Y-110299669D01*
X180369485Y-110589837D01*
X179831725Y-111126659D01*
X179540332Y-111828411D01*
X179539669Y-112588256D01*
X170510000Y-112588256D01*
X170510000Y-107726331D01*
X218040961Y-107726331D01*
X218225680Y-108654975D01*
X218520279Y-108898665D01*
X219718945Y-107700000D01*
X221481055Y-107700000D01*
X222679721Y-108898665D01*
X222974320Y-108654975D01*
X223159039Y-107673669D01*
X222974320Y-106745025D01*
X222679721Y-106501335D01*
X221481055Y-107700000D01*
X219718945Y-107700000D01*
X218520279Y-106501335D01*
X218225680Y-106745025D01*
X218040961Y-107726331D01*
X170510000Y-107726331D01*
X170510000Y-105620279D01*
X219401335Y-105620279D01*
X220600000Y-106818945D01*
X221593944Y-105825000D01*
X223577560Y-105825000D01*
X223577560Y-109575000D01*
X223621838Y-109810317D01*
X223760910Y-110026441D01*
X223973110Y-110171431D01*
X224225000Y-110222440D01*
X227975000Y-110222440D01*
X228210317Y-110178162D01*
X228426441Y-110039090D01*
X228571431Y-109826890D01*
X228622440Y-109575000D01*
X228622440Y-108122815D01*
X231264630Y-108122815D01*
X231588980Y-108907800D01*
X232189041Y-109508909D01*
X232973459Y-109834628D01*
X233822815Y-109835370D01*
X234607800Y-109511020D01*
X235208909Y-108910959D01*
X235534628Y-108126541D01*
X235535370Y-107277185D01*
X235211020Y-106492200D01*
X234610959Y-105891091D01*
X233826541Y-105565372D01*
X232977185Y-105564630D01*
X232192200Y-105888980D01*
X231591091Y-106489041D01*
X231265372Y-107273459D01*
X231264630Y-108122815D01*
X228622440Y-108122815D01*
X228622440Y-105825000D01*
X228578162Y-105589683D01*
X228439090Y-105373559D01*
X228226890Y-105228569D01*
X227975000Y-105177560D01*
X224225000Y-105177560D01*
X223989683Y-105221838D01*
X223773559Y-105360910D01*
X223628569Y-105573110D01*
X223577560Y-105825000D01*
X221593944Y-105825000D01*
X221798665Y-105620279D01*
X221554975Y-105325680D01*
X220573669Y-105140961D01*
X219645025Y-105325680D01*
X219401335Y-105620279D01*
X170510000Y-105620279D01*
X170510000Y-104223098D01*
X170971943Y-104032227D01*
X170987436Y-104016761D01*
X195464294Y-104016761D01*
X195662402Y-104275127D01*
X196512665Y-104399434D01*
X197137598Y-104275127D01*
X197335706Y-104016761D01*
X196400000Y-103081055D01*
X195464294Y-104016761D01*
X170987436Y-104016761D01*
X171580091Y-103425139D01*
X171909624Y-102631536D01*
X171909902Y-102312665D01*
X194200566Y-102312665D01*
X194324873Y-102937598D01*
X194583239Y-103135706D01*
X195518945Y-102200000D01*
X197281055Y-102200000D01*
X198216761Y-103135706D01*
X198475127Y-102937598D01*
X198520423Y-102627766D01*
X211039626Y-102627766D01*
X211367773Y-103421943D01*
X211974861Y-104030091D01*
X212768464Y-104359624D01*
X213627766Y-104360374D01*
X214421943Y-104032227D01*
X215030091Y-103425139D01*
X215359624Y-102631536D01*
X215360374Y-101772234D01*
X215032227Y-100978057D01*
X214425139Y-100369909D01*
X214207943Y-100279721D01*
X219401335Y-100279721D01*
X219645025Y-100574320D01*
X220626331Y-100759039D01*
X221554975Y-100574320D01*
X221798665Y-100279721D01*
X220600000Y-99081055D01*
X219401335Y-100279721D01*
X214207943Y-100279721D01*
X213631536Y-100040376D01*
X212772234Y-100039626D01*
X211978057Y-100367773D01*
X211369909Y-100974861D01*
X211040376Y-101768464D01*
X211039626Y-102627766D01*
X198520423Y-102627766D01*
X198599434Y-102087335D01*
X198475127Y-101462402D01*
X198216761Y-101264294D01*
X197281055Y-102200000D01*
X195518945Y-102200000D01*
X194583239Y-101264294D01*
X194324873Y-101462402D01*
X194200566Y-102312665D01*
X171909902Y-102312665D01*
X171910374Y-101772234D01*
X171582227Y-100978057D01*
X170975139Y-100369909D01*
X170181536Y-100040376D01*
X170060000Y-100040270D01*
X170060000Y-99115256D01*
X179539669Y-99115256D01*
X179829837Y-99817515D01*
X180366659Y-100355275D01*
X181068411Y-100646668D01*
X181828256Y-100647331D01*
X182530515Y-100357163D01*
X183068275Y-99820341D01*
X183149219Y-99625406D01*
X183229837Y-99820515D01*
X183766659Y-100358275D01*
X184468411Y-100649668D01*
X185228256Y-100650331D01*
X185874666Y-100383239D01*
X195464294Y-100383239D01*
X196400000Y-101318945D01*
X197335706Y-100383239D01*
X197137598Y-100124873D01*
X196287335Y-100000566D01*
X195662402Y-100124873D01*
X195464294Y-100383239D01*
X185874666Y-100383239D01*
X185930515Y-100360163D01*
X186468275Y-99823341D01*
X186759668Y-99121589D01*
X186760331Y-98361744D01*
X186704380Y-98226331D01*
X218040961Y-98226331D01*
X218225680Y-99154975D01*
X218520279Y-99398665D01*
X219718945Y-98200000D01*
X221481055Y-98200000D01*
X222679721Y-99398665D01*
X222974320Y-99154975D01*
X223159039Y-98173669D01*
X222974320Y-97245025D01*
X222679721Y-97001335D01*
X221481055Y-98200000D01*
X219718945Y-98200000D01*
X218520279Y-97001335D01*
X218225680Y-97245025D01*
X218040961Y-98226331D01*
X186704380Y-98226331D01*
X186470163Y-97659485D01*
X185933341Y-97121725D01*
X185231589Y-96830332D01*
X184471744Y-96829669D01*
X183769485Y-97119837D01*
X183231725Y-97656659D01*
X183150781Y-97851594D01*
X183070163Y-97656485D01*
X182533341Y-97118725D01*
X181831589Y-96827332D01*
X181071744Y-96826669D01*
X180369485Y-97116837D01*
X179831725Y-97653659D01*
X179540332Y-98355411D01*
X179539669Y-99115256D01*
X170060000Y-99115256D01*
X170060000Y-99100000D01*
X170002148Y-98809161D01*
X170002148Y-98809160D01*
X169837401Y-98562599D01*
X167395081Y-96120279D01*
X219401335Y-96120279D01*
X220600000Y-97318945D01*
X221593944Y-96325000D01*
X223577560Y-96325000D01*
X223577560Y-100075000D01*
X223621838Y-100310317D01*
X223760910Y-100526441D01*
X223973110Y-100671431D01*
X224225000Y-100722440D01*
X227975000Y-100722440D01*
X228210317Y-100678162D01*
X228426441Y-100539090D01*
X228571431Y-100326890D01*
X228622440Y-100075000D01*
X228622440Y-98622815D01*
X231264630Y-98622815D01*
X231588980Y-99407800D01*
X232189041Y-100008909D01*
X232973459Y-100334628D01*
X233822815Y-100335370D01*
X234607800Y-100011020D01*
X235208909Y-99410959D01*
X235534628Y-98626541D01*
X235535370Y-97777185D01*
X235211020Y-96992200D01*
X234610959Y-96391091D01*
X233826541Y-96065372D01*
X232977185Y-96064630D01*
X232192200Y-96388980D01*
X231591091Y-96989041D01*
X231265372Y-97773459D01*
X231264630Y-98622815D01*
X228622440Y-98622815D01*
X228622440Y-96325000D01*
X228578162Y-96089683D01*
X228439090Y-95873559D01*
X228226890Y-95728569D01*
X227975000Y-95677560D01*
X224225000Y-95677560D01*
X223989683Y-95721838D01*
X223773559Y-95860910D01*
X223628569Y-96073110D01*
X223577560Y-96325000D01*
X221593944Y-96325000D01*
X221798665Y-96120279D01*
X221554975Y-95825680D01*
X220573669Y-95640961D01*
X219645025Y-95825680D01*
X219401335Y-96120279D01*
X167395081Y-96120279D01*
X166535122Y-95260320D01*
X166535162Y-95214833D01*
X166393117Y-94871057D01*
X166130327Y-94607808D01*
X165786799Y-94465162D01*
X165414833Y-94464838D01*
X165071057Y-94606883D01*
X164807808Y-94869673D01*
X164665162Y-95213201D01*
X164664838Y-95585167D01*
X162619085Y-95585167D01*
X163180091Y-95025139D01*
X163509624Y-94231536D01*
X163509627Y-94227766D01*
X202639626Y-94227766D01*
X202967773Y-95021943D01*
X203574861Y-95630091D01*
X204368464Y-95959624D01*
X205227766Y-95960374D01*
X206021943Y-95632227D01*
X206630091Y-95025139D01*
X206959624Y-94231536D01*
X206960374Y-93372234D01*
X206632227Y-92578057D01*
X206025139Y-91969909D01*
X205231536Y-91640376D01*
X204372234Y-91639626D01*
X203578057Y-91967773D01*
X202969909Y-92574861D01*
X202640376Y-93368464D01*
X202639626Y-94227766D01*
X163509627Y-94227766D01*
X163510374Y-93372234D01*
X163182227Y-92578057D01*
X162575139Y-91969909D01*
X161781536Y-91640376D01*
X160922234Y-91639626D01*
X160128057Y-91967773D01*
X159519909Y-92574861D01*
X159190376Y-93368464D01*
X159189626Y-94227766D01*
X156060000Y-94227766D01*
X156060000Y-91514802D01*
X156745081Y-90829721D01*
X219401335Y-90829721D01*
X219645025Y-91124320D01*
X220626331Y-91309039D01*
X221554975Y-91124320D01*
X221798665Y-90829721D01*
X220600000Y-89631055D01*
X219401335Y-90829721D01*
X156745081Y-90829721D01*
X159817674Y-87757128D01*
X160070885Y-88369943D01*
X160776343Y-89076634D01*
X161698540Y-89459564D01*
X162697080Y-89460435D01*
X163619943Y-89079115D01*
X163669423Y-89029721D01*
X169501335Y-89029721D01*
X169745025Y-89324320D01*
X170726331Y-89509039D01*
X171654975Y-89324320D01*
X171898665Y-89029721D01*
X175201335Y-89029721D01*
X175445025Y-89324320D01*
X176426331Y-89509039D01*
X177354975Y-89324320D01*
X177598665Y-89029721D01*
X176400000Y-87831055D01*
X175201335Y-89029721D01*
X171898665Y-89029721D01*
X170700000Y-87831055D01*
X169501335Y-89029721D01*
X163669423Y-89029721D01*
X164326634Y-88373657D01*
X164709564Y-87451460D01*
X164709978Y-86976331D01*
X168140961Y-86976331D01*
X168325680Y-87904975D01*
X168620279Y-88148665D01*
X169818945Y-86950000D01*
X171581055Y-86950000D01*
X172779721Y-88148665D01*
X173074320Y-87904975D01*
X173249126Y-86976331D01*
X173840961Y-86976331D01*
X174025680Y-87904975D01*
X174320279Y-88148665D01*
X175518945Y-86950000D01*
X177281055Y-86950000D01*
X178479721Y-88148665D01*
X178774320Y-87904975D01*
X178860513Y-87447080D01*
X182389565Y-87447080D01*
X182770885Y-88369943D01*
X183476343Y-89076634D01*
X184398540Y-89459564D01*
X185397080Y-89460435D01*
X186319943Y-89079115D01*
X186369423Y-89029721D01*
X193201335Y-89029721D01*
X193445025Y-89324320D01*
X194426331Y-89509039D01*
X195354975Y-89324320D01*
X195598665Y-89029721D01*
X202701335Y-89029721D01*
X202945025Y-89324320D01*
X203926331Y-89509039D01*
X204854975Y-89324320D01*
X205098665Y-89029721D01*
X212201335Y-89029721D01*
X212445025Y-89324320D01*
X213426331Y-89509039D01*
X214354975Y-89324320D01*
X214598665Y-89029721D01*
X214345276Y-88776331D01*
X218040961Y-88776331D01*
X218225680Y-89704975D01*
X218520279Y-89948665D01*
X219718945Y-88750000D01*
X221481055Y-88750000D01*
X222679721Y-89948665D01*
X222974320Y-89704975D01*
X223159039Y-88723669D01*
X222974320Y-87795025D01*
X222679721Y-87551335D01*
X221481055Y-88750000D01*
X219718945Y-88750000D01*
X218520279Y-87551335D01*
X218225680Y-87795025D01*
X218040961Y-88776331D01*
X214345276Y-88776331D01*
X213400000Y-87831055D01*
X212201335Y-89029721D01*
X205098665Y-89029721D01*
X203900000Y-87831055D01*
X202701335Y-89029721D01*
X195598665Y-89029721D01*
X194400000Y-87831055D01*
X193201335Y-89029721D01*
X186369423Y-89029721D01*
X187026634Y-88373657D01*
X187409564Y-87451460D01*
X187409978Y-86976331D01*
X191840961Y-86976331D01*
X192025680Y-87904975D01*
X192320279Y-88148665D01*
X193518945Y-86950000D01*
X195281055Y-86950000D01*
X196479721Y-88148665D01*
X196774320Y-87904975D01*
X196949126Y-86976331D01*
X201340961Y-86976331D01*
X201525680Y-87904975D01*
X201820279Y-88148665D01*
X203018945Y-86950000D01*
X204781055Y-86950000D01*
X205979721Y-88148665D01*
X206274320Y-87904975D01*
X206449126Y-86976331D01*
X210840961Y-86976331D01*
X211025680Y-87904975D01*
X211320279Y-88148665D01*
X212518945Y-86950000D01*
X214281055Y-86950000D01*
X215479721Y-88148665D01*
X215774320Y-87904975D01*
X215959039Y-86923669D01*
X215908637Y-86670279D01*
X219401335Y-86670279D01*
X220600000Y-87868945D01*
X221593944Y-86875000D01*
X223577560Y-86875000D01*
X223577560Y-90625000D01*
X223621838Y-90860317D01*
X223760910Y-91076441D01*
X223973110Y-91221431D01*
X224225000Y-91272440D01*
X227975000Y-91272440D01*
X228210317Y-91228162D01*
X228426441Y-91089090D01*
X228571431Y-90876890D01*
X228622440Y-90625000D01*
X228622440Y-89172815D01*
X231264630Y-89172815D01*
X231588980Y-89957800D01*
X232189041Y-90558909D01*
X232973459Y-90884628D01*
X233822815Y-90885370D01*
X234607800Y-90561020D01*
X235208909Y-89960959D01*
X235534628Y-89176541D01*
X235535370Y-88327185D01*
X235211020Y-87542200D01*
X234610959Y-86941091D01*
X233826541Y-86615372D01*
X232977185Y-86614630D01*
X232192200Y-86938980D01*
X231591091Y-87539041D01*
X231265372Y-88323459D01*
X231264630Y-89172815D01*
X228622440Y-89172815D01*
X228622440Y-86875000D01*
X228578162Y-86639683D01*
X228439090Y-86423559D01*
X228226890Y-86278569D01*
X227975000Y-86227560D01*
X224225000Y-86227560D01*
X223989683Y-86271838D01*
X223773559Y-86410910D01*
X223628569Y-86623110D01*
X223577560Y-86875000D01*
X221593944Y-86875000D01*
X221798665Y-86670279D01*
X221554975Y-86375680D01*
X220573669Y-86190961D01*
X219645025Y-86375680D01*
X219401335Y-86670279D01*
X215908637Y-86670279D01*
X215774320Y-85995025D01*
X215479721Y-85751335D01*
X214281055Y-86950000D01*
X212518945Y-86950000D01*
X211320279Y-85751335D01*
X211025680Y-85995025D01*
X210840961Y-86976331D01*
X206449126Y-86976331D01*
X206459039Y-86923669D01*
X206274320Y-85995025D01*
X205979721Y-85751335D01*
X204781055Y-86950000D01*
X203018945Y-86950000D01*
X201820279Y-85751335D01*
X201525680Y-85995025D01*
X201340961Y-86976331D01*
X196949126Y-86976331D01*
X196959039Y-86923669D01*
X196774320Y-85995025D01*
X196479721Y-85751335D01*
X195281055Y-86950000D01*
X193518945Y-86950000D01*
X192320279Y-85751335D01*
X192025680Y-85995025D01*
X191840961Y-86976331D01*
X187409978Y-86976331D01*
X187410435Y-86452920D01*
X187029115Y-85530057D01*
X186370489Y-84870279D01*
X193201335Y-84870279D01*
X194400000Y-86068945D01*
X195598665Y-84870279D01*
X202701335Y-84870279D01*
X203900000Y-86068945D01*
X205098665Y-84870279D01*
X212201335Y-84870279D01*
X213400000Y-86068945D01*
X214598665Y-84870279D01*
X214354975Y-84575680D01*
X213373669Y-84390961D01*
X212445025Y-84575680D01*
X212201335Y-84870279D01*
X205098665Y-84870279D01*
X204854975Y-84575680D01*
X203873669Y-84390961D01*
X202945025Y-84575680D01*
X202701335Y-84870279D01*
X195598665Y-84870279D01*
X195354975Y-84575680D01*
X194373669Y-84390961D01*
X193445025Y-84575680D01*
X193201335Y-84870279D01*
X186370489Y-84870279D01*
X186323657Y-84823366D01*
X185401460Y-84440436D01*
X184402920Y-84439565D01*
X183480057Y-84820885D01*
X182773366Y-85526343D01*
X182390436Y-86448540D01*
X182389565Y-87447080D01*
X178860513Y-87447080D01*
X178959039Y-86923669D01*
X178774320Y-85995025D01*
X178479721Y-85751335D01*
X177281055Y-86950000D01*
X175518945Y-86950000D01*
X174320279Y-85751335D01*
X174025680Y-85995025D01*
X173840961Y-86976331D01*
X173249126Y-86976331D01*
X173259039Y-86923669D01*
X173074320Y-85995025D01*
X172779721Y-85751335D01*
X171581055Y-86950000D01*
X169818945Y-86950000D01*
X168620279Y-85751335D01*
X168325680Y-85995025D01*
X168140961Y-86976331D01*
X164709978Y-86976331D01*
X164710435Y-86452920D01*
X164329115Y-85530057D01*
X163670489Y-84870279D01*
X169501335Y-84870279D01*
X170700000Y-86068945D01*
X171898665Y-84870279D01*
X175201335Y-84870279D01*
X176400000Y-86068945D01*
X177598665Y-84870279D01*
X177354975Y-84575680D01*
X176373669Y-84390961D01*
X175445025Y-84575680D01*
X175201335Y-84870279D01*
X171898665Y-84870279D01*
X171654975Y-84575680D01*
X170673669Y-84390961D01*
X169745025Y-84575680D01*
X169501335Y-84870279D01*
X163670489Y-84870279D01*
X163623657Y-84823366D01*
X162701460Y-84440436D01*
X161702920Y-84439565D01*
X160780057Y-84820885D01*
X160073366Y-85526343D01*
X159797791Y-86190000D01*
X159550000Y-86190000D01*
X159259161Y-86247852D01*
X159012599Y-86412599D01*
X154762599Y-90662599D01*
X154597852Y-90909161D01*
X154540000Y-91200000D01*
X154540000Y-96637537D01*
X154507808Y-96669673D01*
X154365162Y-97013201D01*
X154364838Y-97385167D01*
X147892251Y-97385167D01*
X147874320Y-97295025D01*
X147579721Y-97051335D01*
X146381055Y-98250000D01*
X144618945Y-98250000D01*
X143420279Y-97051335D01*
X143125680Y-97295025D01*
X142940961Y-98276331D01*
X142522440Y-98276331D01*
X142522440Y-96375000D01*
X142483920Y-96170279D01*
X144301335Y-96170279D01*
X145500000Y-97368945D01*
X146698665Y-96170279D01*
X146454975Y-95875680D01*
X145473669Y-95690961D01*
X144545025Y-95875680D01*
X144301335Y-96170279D01*
X142483920Y-96170279D01*
X142478162Y-96139683D01*
X142339090Y-95923559D01*
X142126890Y-95778569D01*
X141875000Y-95727560D01*
X138125000Y-95727560D01*
X137889683Y-95771838D01*
X137673559Y-95910910D01*
X137528569Y-96123110D01*
X137477560Y-96375000D01*
X133751795Y-96375000D01*
X133126541Y-96115372D01*
X132277185Y-96114630D01*
X131492200Y-96438980D01*
X130891091Y-97039041D01*
X130565372Y-97823459D01*
X130564630Y-98672815D01*
X123910000Y-98672815D01*
X123910000Y-89147815D01*
X130589630Y-89147815D01*
X130913980Y-89932800D01*
X131514041Y-90533909D01*
X132298459Y-90859628D01*
X133147815Y-90860370D01*
X133932800Y-90536020D01*
X134533909Y-89935959D01*
X134859628Y-89151541D01*
X134860370Y-88302185D01*
X134536020Y-87517200D01*
X133935959Y-86916091D01*
X133776795Y-86850000D01*
X137502560Y-86850000D01*
X137502560Y-90600000D01*
X137546838Y-90835317D01*
X137685910Y-91051441D01*
X137898110Y-91196431D01*
X138150000Y-91247440D01*
X141900000Y-91247440D01*
X142135317Y-91203162D01*
X142351441Y-91064090D01*
X142496431Y-90851890D01*
X142505982Y-90804721D01*
X144326335Y-90804721D01*
X144570025Y-91099320D01*
X145551331Y-91284039D01*
X146479975Y-91099320D01*
X146723665Y-90804721D01*
X145525000Y-89606055D01*
X144326335Y-90804721D01*
X142505982Y-90804721D01*
X142547440Y-90600000D01*
X142547440Y-88751331D01*
X142965961Y-88751331D01*
X143150680Y-89679975D01*
X143445279Y-89923665D01*
X144643945Y-88725000D01*
X146406055Y-88725000D01*
X147604721Y-89923665D01*
X147899320Y-89679975D01*
X148021722Y-89029721D01*
X151501335Y-89029721D01*
X151745025Y-89324320D01*
X152726331Y-89509039D01*
X153654975Y-89324320D01*
X153898665Y-89029721D01*
X152700000Y-87831055D01*
X151501335Y-89029721D01*
X148021722Y-89029721D01*
X148084039Y-88698669D01*
X147899320Y-87770025D01*
X147604721Y-87526335D01*
X146406055Y-88725000D01*
X144643945Y-88725000D01*
X143445279Y-87526335D01*
X143150680Y-87770025D01*
X142965961Y-88751331D01*
X142547440Y-88751331D01*
X142547440Y-86850000D01*
X142508920Y-86645279D01*
X144326335Y-86645279D01*
X145525000Y-87843945D01*
X146392613Y-86976331D01*
X150140961Y-86976331D01*
X150325680Y-87904975D01*
X150620279Y-88148665D01*
X151818945Y-86950000D01*
X153581055Y-86950000D01*
X154779721Y-88148665D01*
X155074320Y-87904975D01*
X155259039Y-86923669D01*
X155074320Y-85995025D01*
X154779721Y-85751335D01*
X153581055Y-86950000D01*
X151818945Y-86950000D01*
X150620279Y-85751335D01*
X150325680Y-85995025D01*
X150140961Y-86976331D01*
X146392613Y-86976331D01*
X146723665Y-86645279D01*
X146479975Y-86350680D01*
X145498669Y-86165961D01*
X144570025Y-86350680D01*
X144326335Y-86645279D01*
X142508920Y-86645279D01*
X142503162Y-86614683D01*
X142364090Y-86398559D01*
X142151890Y-86253569D01*
X141900000Y-86202560D01*
X138150000Y-86202560D01*
X137914683Y-86246838D01*
X137698559Y-86385910D01*
X137553569Y-86598110D01*
X137502560Y-86850000D01*
X133776795Y-86850000D01*
X133151541Y-86590372D01*
X132302185Y-86589630D01*
X131517200Y-86913980D01*
X130916091Y-87514041D01*
X130590372Y-88298459D01*
X130589630Y-89147815D01*
X123910000Y-89147815D01*
X123910000Y-84870279D01*
X151501335Y-84870279D01*
X152700000Y-86068945D01*
X153898665Y-84870279D01*
X153654975Y-84575680D01*
X152673669Y-84390961D01*
X151745025Y-84575680D01*
X151501335Y-84870279D01*
X123910000Y-84870279D01*
X123910000Y-79647815D01*
X130589630Y-79647815D01*
X130913980Y-80432800D01*
X131514041Y-81033909D01*
X132298459Y-81359628D01*
X133147815Y-81360370D01*
X133932800Y-81036020D01*
X134533909Y-80435959D01*
X134859628Y-79651541D01*
X134860370Y-78802185D01*
X134536020Y-78017200D01*
X133935959Y-77416091D01*
X133776795Y-77350000D01*
X137502560Y-77350000D01*
X137502560Y-81100000D01*
X137546838Y-81335317D01*
X137685910Y-81551441D01*
X137898110Y-81696431D01*
X138150000Y-81747440D01*
X141900000Y-81747440D01*
X142135317Y-81703162D01*
X142351441Y-81564090D01*
X142496431Y-81351890D01*
X142505982Y-81304721D01*
X144326335Y-81304721D01*
X144570025Y-81599320D01*
X145551331Y-81784039D01*
X146479975Y-81599320D01*
X146723665Y-81304721D01*
X145525000Y-80106055D01*
X144326335Y-81304721D01*
X142505982Y-81304721D01*
X142547440Y-81100000D01*
X142547440Y-79251331D01*
X142965961Y-79251331D01*
X143150680Y-80179975D01*
X143445279Y-80423665D01*
X144643945Y-79225000D01*
X146406055Y-79225000D01*
X147604721Y-80423665D01*
X147899320Y-80179975D01*
X148013199Y-79575000D01*
X150177560Y-79575000D01*
X150177560Y-83325000D01*
X150221838Y-83560317D01*
X150360910Y-83776441D01*
X150573110Y-83921431D01*
X150825000Y-83972440D01*
X154575000Y-83972440D01*
X154810317Y-83928162D01*
X155026441Y-83789090D01*
X155171431Y-83576890D01*
X155222440Y-83325000D01*
X155222440Y-79575000D01*
X159677560Y-79575000D01*
X159677560Y-83325000D01*
X159721838Y-83560317D01*
X159860910Y-83776441D01*
X160073110Y-83921431D01*
X160325000Y-83972440D01*
X164075000Y-83972440D01*
X164310317Y-83928162D01*
X164526441Y-83789090D01*
X164671431Y-83576890D01*
X164722440Y-83325000D01*
X164722440Y-79575000D01*
X168177560Y-79575000D01*
X168177560Y-83325000D01*
X168221838Y-83560317D01*
X168360910Y-83776441D01*
X168573110Y-83921431D01*
X168825000Y-83972440D01*
X172575000Y-83972440D01*
X172810317Y-83928162D01*
X173026441Y-83789090D01*
X173171431Y-83576890D01*
X173222440Y-83325000D01*
X173222440Y-81947080D01*
X173889565Y-81947080D01*
X174270885Y-82869943D01*
X174976343Y-83576634D01*
X175898540Y-83959564D01*
X176897080Y-83960435D01*
X177819943Y-83579115D01*
X178526634Y-82873657D01*
X178909564Y-81951460D01*
X178910435Y-80952920D01*
X178529115Y-80030057D01*
X178074852Y-79575000D01*
X182377560Y-79575000D01*
X182377560Y-83325000D01*
X182421838Y-83560317D01*
X182560910Y-83776441D01*
X182773110Y-83921431D01*
X183025000Y-83972440D01*
X186775000Y-83972440D01*
X187010317Y-83928162D01*
X187226441Y-83789090D01*
X187371431Y-83576890D01*
X187422440Y-83325000D01*
X187422440Y-79575000D01*
X191877560Y-79575000D01*
X191877560Y-83325000D01*
X191921838Y-83560317D01*
X192060910Y-83776441D01*
X192273110Y-83921431D01*
X192525000Y-83972440D01*
X196275000Y-83972440D01*
X196510317Y-83928162D01*
X196726441Y-83789090D01*
X196871431Y-83576890D01*
X196922440Y-83325000D01*
X196922440Y-79575000D01*
X201377560Y-79575000D01*
X201377560Y-83325000D01*
X201421838Y-83560317D01*
X201560910Y-83776441D01*
X201773110Y-83921431D01*
X202025000Y-83972440D01*
X205775000Y-83972440D01*
X206010317Y-83928162D01*
X206226441Y-83789090D01*
X206371431Y-83576890D01*
X206422440Y-83325000D01*
X206422440Y-79575000D01*
X210877560Y-79575000D01*
X210877560Y-83325000D01*
X210921838Y-83560317D01*
X211060910Y-83776441D01*
X211273110Y-83921431D01*
X211525000Y-83972440D01*
X215275000Y-83972440D01*
X215510317Y-83928162D01*
X215726441Y-83789090D01*
X215871431Y-83576890D01*
X215922440Y-83325000D01*
X215922440Y-81329721D01*
X219401335Y-81329721D01*
X219645025Y-81624320D01*
X220626331Y-81809039D01*
X221554975Y-81624320D01*
X221798665Y-81329721D01*
X220600000Y-80131055D01*
X219401335Y-81329721D01*
X215922440Y-81329721D01*
X215922440Y-79575000D01*
X215878162Y-79339683D01*
X215837397Y-79276331D01*
X218040961Y-79276331D01*
X218225680Y-80204975D01*
X218520279Y-80448665D01*
X219718945Y-79250000D01*
X221481055Y-79250000D01*
X222679721Y-80448665D01*
X222974320Y-80204975D01*
X223159039Y-79223669D01*
X222974320Y-78295025D01*
X222679721Y-78051335D01*
X221481055Y-79250000D01*
X219718945Y-79250000D01*
X218520279Y-78051335D01*
X218225680Y-78295025D01*
X218040961Y-79276331D01*
X215837397Y-79276331D01*
X215739090Y-79123559D01*
X215526890Y-78978569D01*
X215275000Y-78927560D01*
X211525000Y-78927560D01*
X211289683Y-78971838D01*
X211073559Y-79110910D01*
X210928569Y-79323110D01*
X210877560Y-79575000D01*
X206422440Y-79575000D01*
X206378162Y-79339683D01*
X206239090Y-79123559D01*
X206026890Y-78978569D01*
X205775000Y-78927560D01*
X202025000Y-78927560D01*
X201789683Y-78971838D01*
X201573559Y-79110910D01*
X201428569Y-79323110D01*
X201377560Y-79575000D01*
X196922440Y-79575000D01*
X196878162Y-79339683D01*
X196739090Y-79123559D01*
X196526890Y-78978569D01*
X196275000Y-78927560D01*
X192525000Y-78927560D01*
X192289683Y-78971838D01*
X192073559Y-79110910D01*
X191928569Y-79323110D01*
X191877560Y-79575000D01*
X187422440Y-79575000D01*
X187378162Y-79339683D01*
X187239090Y-79123559D01*
X187026890Y-78978569D01*
X186775000Y-78927560D01*
X183025000Y-78927560D01*
X182789683Y-78971838D01*
X182573559Y-79110910D01*
X182428569Y-79323110D01*
X182377560Y-79575000D01*
X178074852Y-79575000D01*
X177823657Y-79323366D01*
X176901460Y-78940436D01*
X175902920Y-78939565D01*
X174980057Y-79320885D01*
X174273366Y-80026343D01*
X173890436Y-80948540D01*
X173889565Y-81947080D01*
X173222440Y-81947080D01*
X173222440Y-79575000D01*
X173178162Y-79339683D01*
X173039090Y-79123559D01*
X172826890Y-78978569D01*
X172575000Y-78927560D01*
X168825000Y-78927560D01*
X168589683Y-78971838D01*
X168373559Y-79110910D01*
X168228569Y-79323110D01*
X168177560Y-79575000D01*
X164722440Y-79575000D01*
X164678162Y-79339683D01*
X164539090Y-79123559D01*
X164326890Y-78978569D01*
X164075000Y-78927560D01*
X160325000Y-78927560D01*
X160089683Y-78971838D01*
X159873559Y-79110910D01*
X159728569Y-79323110D01*
X159677560Y-79575000D01*
X155222440Y-79575000D01*
X155178162Y-79339683D01*
X155039090Y-79123559D01*
X154826890Y-78978569D01*
X154575000Y-78927560D01*
X150825000Y-78927560D01*
X150589683Y-78971838D01*
X150373559Y-79110910D01*
X150228569Y-79323110D01*
X150177560Y-79575000D01*
X148013199Y-79575000D01*
X148084039Y-79198669D01*
X147899320Y-78270025D01*
X147604721Y-78026335D01*
X146406055Y-79225000D01*
X144643945Y-79225000D01*
X143445279Y-78026335D01*
X143150680Y-78270025D01*
X142965961Y-79251331D01*
X142547440Y-79251331D01*
X142547440Y-77350000D01*
X142508920Y-77145279D01*
X144326335Y-77145279D01*
X145525000Y-78343945D01*
X146698665Y-77170279D01*
X219401335Y-77170279D01*
X220600000Y-78368945D01*
X221593944Y-77375000D01*
X223577560Y-77375000D01*
X223577560Y-81125000D01*
X223621838Y-81360317D01*
X223760910Y-81576441D01*
X223973110Y-81721431D01*
X224225000Y-81772440D01*
X227975000Y-81772440D01*
X228210317Y-81728162D01*
X228426441Y-81589090D01*
X228571431Y-81376890D01*
X228622440Y-81125000D01*
X228622440Y-79672815D01*
X231264630Y-79672815D01*
X231588980Y-80457800D01*
X232189041Y-81058909D01*
X232973459Y-81384628D01*
X233822815Y-81385370D01*
X234607800Y-81061020D01*
X235208909Y-80460959D01*
X235534628Y-79676541D01*
X235535370Y-78827185D01*
X235211020Y-78042200D01*
X234610959Y-77441091D01*
X233826541Y-77115372D01*
X232977185Y-77114630D01*
X232192200Y-77438980D01*
X231591091Y-78039041D01*
X231265372Y-78823459D01*
X231264630Y-79672815D01*
X228622440Y-79672815D01*
X228622440Y-77375000D01*
X228578162Y-77139683D01*
X228439090Y-76923559D01*
X228226890Y-76778569D01*
X227975000Y-76727560D01*
X224225000Y-76727560D01*
X223989683Y-76771838D01*
X223773559Y-76910910D01*
X223628569Y-77123110D01*
X223577560Y-77375000D01*
X221593944Y-77375000D01*
X221798665Y-77170279D01*
X221554975Y-76875680D01*
X220573669Y-76690961D01*
X219645025Y-76875680D01*
X219401335Y-77170279D01*
X146698665Y-77170279D01*
X146723665Y-77145279D01*
X146479975Y-76850680D01*
X145498669Y-76665961D01*
X144570025Y-76850680D01*
X144326335Y-77145279D01*
X142508920Y-77145279D01*
X142503162Y-77114683D01*
X142364090Y-76898559D01*
X142151890Y-76753569D01*
X141900000Y-76702560D01*
X138150000Y-76702560D01*
X137914683Y-76746838D01*
X137698559Y-76885910D01*
X137553569Y-77098110D01*
X137502560Y-77350000D01*
X133776795Y-77350000D01*
X133151541Y-77090372D01*
X132302185Y-77089630D01*
X131517200Y-77413980D01*
X130916091Y-78014041D01*
X130590372Y-78798459D01*
X130589630Y-79647815D01*
X123910000Y-79647815D01*
X123910000Y-74572815D01*
X150564630Y-74572815D01*
X150888980Y-75357800D01*
X151489041Y-75958909D01*
X152273459Y-76284628D01*
X153122815Y-76285370D01*
X153907800Y-75961020D01*
X154508909Y-75360959D01*
X154834628Y-74576541D01*
X154834631Y-74572815D01*
X160064630Y-74572815D01*
X160388980Y-75357800D01*
X160989041Y-75958909D01*
X161773459Y-76284628D01*
X162622815Y-76285370D01*
X163407800Y-75961020D01*
X164008909Y-75360959D01*
X164334628Y-74576541D01*
X164334631Y-74572815D01*
X171414630Y-74572815D01*
X171738980Y-75357800D01*
X172339041Y-75958909D01*
X173123459Y-76284628D01*
X173972815Y-76285370D01*
X174757800Y-75961020D01*
X175358909Y-75360959D01*
X175684628Y-74576541D01*
X175684631Y-74572815D01*
X182764630Y-74572815D01*
X183088980Y-75357800D01*
X183689041Y-75958909D01*
X184473459Y-76284628D01*
X185322815Y-76285370D01*
X186107800Y-75961020D01*
X186708909Y-75360959D01*
X187034628Y-74576541D01*
X187034631Y-74572815D01*
X192264630Y-74572815D01*
X192588980Y-75357800D01*
X193189041Y-75958909D01*
X193973459Y-76284628D01*
X194822815Y-76285370D01*
X195607800Y-75961020D01*
X196208909Y-75360959D01*
X196534628Y-74576541D01*
X196534631Y-74572815D01*
X201764630Y-74572815D01*
X202088980Y-75357800D01*
X202689041Y-75958909D01*
X203473459Y-76284628D01*
X204322815Y-76285370D01*
X205107800Y-75961020D01*
X205708909Y-75360959D01*
X206034628Y-74576541D01*
X206034631Y-74572815D01*
X211264630Y-74572815D01*
X211588980Y-75357800D01*
X212189041Y-75958909D01*
X212973459Y-76284628D01*
X213822815Y-76285370D01*
X214607800Y-75961020D01*
X215208909Y-75360959D01*
X215534628Y-74576541D01*
X215535370Y-73727185D01*
X215211020Y-72942200D01*
X214610959Y-72341091D01*
X213826541Y-72015372D01*
X212977185Y-72014630D01*
X212192200Y-72338980D01*
X211591091Y-72939041D01*
X211265372Y-73723459D01*
X211264630Y-74572815D01*
X206034631Y-74572815D01*
X206035370Y-73727185D01*
X205711020Y-72942200D01*
X205110959Y-72341091D01*
X204326541Y-72015372D01*
X203477185Y-72014630D01*
X202692200Y-72338980D01*
X202091091Y-72939041D01*
X201765372Y-73723459D01*
X201764630Y-74572815D01*
X196534631Y-74572815D01*
X196535370Y-73727185D01*
X196211020Y-72942200D01*
X195610959Y-72341091D01*
X194826541Y-72015372D01*
X193977185Y-72014630D01*
X193192200Y-72338980D01*
X192591091Y-72939041D01*
X192265372Y-73723459D01*
X192264630Y-74572815D01*
X187034631Y-74572815D01*
X187035370Y-73727185D01*
X186711020Y-72942200D01*
X186110959Y-72341091D01*
X185326541Y-72015372D01*
X184477185Y-72014630D01*
X183692200Y-72338980D01*
X183091091Y-72939041D01*
X182765372Y-73723459D01*
X182764630Y-74572815D01*
X175684631Y-74572815D01*
X175685370Y-73727185D01*
X175361020Y-72942200D01*
X174760959Y-72341091D01*
X173976541Y-72015372D01*
X173127185Y-72014630D01*
X172342200Y-72338980D01*
X171741091Y-72939041D01*
X171415372Y-73723459D01*
X171414630Y-74572815D01*
X164334631Y-74572815D01*
X164335370Y-73727185D01*
X164011020Y-72942200D01*
X163410959Y-72341091D01*
X162626541Y-72015372D01*
X161777185Y-72014630D01*
X160992200Y-72338980D01*
X160391091Y-72939041D01*
X160065372Y-73723459D01*
X160064630Y-74572815D01*
X154834631Y-74572815D01*
X154835370Y-73727185D01*
X154511020Y-72942200D01*
X153910959Y-72341091D01*
X153126541Y-72015372D01*
X152277185Y-72014630D01*
X151492200Y-72338980D01*
X150891091Y-72939041D01*
X150565372Y-73723459D01*
X150564630Y-74572815D01*
X123910000Y-74572815D01*
X123910000Y-70197815D01*
X130589630Y-70197815D01*
X130913980Y-70982800D01*
X131514041Y-71583909D01*
X132298459Y-71909628D01*
X133147815Y-71910370D01*
X133932800Y-71586020D01*
X134533909Y-70985959D01*
X134859628Y-70201541D01*
X134860370Y-69352185D01*
X134536020Y-68567200D01*
X133935959Y-67966091D01*
X133776795Y-67900000D01*
X137502560Y-67900000D01*
X137502560Y-71650000D01*
X137546838Y-71885317D01*
X137685910Y-72101441D01*
X137898110Y-72246431D01*
X138150000Y-72297440D01*
X141900000Y-72297440D01*
X142135317Y-72253162D01*
X142351441Y-72114090D01*
X142496431Y-71901890D01*
X142505982Y-71854721D01*
X144326335Y-71854721D01*
X144570025Y-72149320D01*
X145551331Y-72334039D01*
X146479975Y-72149320D01*
X146723665Y-71854721D01*
X146698666Y-71829721D01*
X219401335Y-71829721D01*
X219645025Y-72124320D01*
X220626331Y-72309039D01*
X221554975Y-72124320D01*
X221798665Y-71829721D01*
X220600000Y-70631055D01*
X219401335Y-71829721D01*
X146698666Y-71829721D01*
X145525000Y-70656055D01*
X144326335Y-71854721D01*
X142505982Y-71854721D01*
X142547440Y-71650000D01*
X142547440Y-69801331D01*
X142965961Y-69801331D01*
X143150680Y-70729975D01*
X143445279Y-70973665D01*
X144643945Y-69775000D01*
X146406055Y-69775000D01*
X147604721Y-70973665D01*
X147899320Y-70729975D01*
X148078831Y-69776331D01*
X218040961Y-69776331D01*
X218225680Y-70704975D01*
X218520279Y-70948665D01*
X219718945Y-69750000D01*
X221481055Y-69750000D01*
X222679721Y-70948665D01*
X222974320Y-70704975D01*
X223159039Y-69723669D01*
X222974320Y-68795025D01*
X222679721Y-68551335D01*
X221481055Y-69750000D01*
X219718945Y-69750000D01*
X218520279Y-68551335D01*
X218225680Y-68795025D01*
X218040961Y-69776331D01*
X148078831Y-69776331D01*
X148084039Y-69748669D01*
X147899320Y-68820025D01*
X147604721Y-68576335D01*
X146406055Y-69775000D01*
X144643945Y-69775000D01*
X143445279Y-68576335D01*
X143150680Y-68820025D01*
X142965961Y-69801331D01*
X142547440Y-69801331D01*
X142547440Y-67900000D01*
X142508920Y-67695279D01*
X144326335Y-67695279D01*
X145525000Y-68893945D01*
X146723665Y-67695279D01*
X146702986Y-67670279D01*
X219401335Y-67670279D01*
X220600000Y-68868945D01*
X221593944Y-67875000D01*
X223577560Y-67875000D01*
X223577560Y-71625000D01*
X223621838Y-71860317D01*
X223760910Y-72076441D01*
X223973110Y-72221431D01*
X224225000Y-72272440D01*
X227975000Y-72272440D01*
X228210317Y-72228162D01*
X228426441Y-72089090D01*
X228571431Y-71876890D01*
X228622440Y-71625000D01*
X228622440Y-70172815D01*
X231264630Y-70172815D01*
X231588980Y-70957800D01*
X232189041Y-71558909D01*
X232973459Y-71884628D01*
X233822815Y-71885370D01*
X234607800Y-71561020D01*
X235208909Y-70960959D01*
X235534628Y-70176541D01*
X235535370Y-69327185D01*
X235211020Y-68542200D01*
X234610959Y-67941091D01*
X233826541Y-67615372D01*
X232977185Y-67614630D01*
X232192200Y-67938980D01*
X231591091Y-68539041D01*
X231265372Y-69323459D01*
X231264630Y-70172815D01*
X228622440Y-70172815D01*
X228622440Y-67875000D01*
X228578162Y-67639683D01*
X228439090Y-67423559D01*
X228226890Y-67278569D01*
X227975000Y-67227560D01*
X224225000Y-67227560D01*
X223989683Y-67271838D01*
X223773559Y-67410910D01*
X223628569Y-67623110D01*
X223577560Y-67875000D01*
X221593944Y-67875000D01*
X221798665Y-67670279D01*
X221554975Y-67375680D01*
X220573669Y-67190961D01*
X219645025Y-67375680D01*
X219401335Y-67670279D01*
X146702986Y-67670279D01*
X146479975Y-67400680D01*
X145498669Y-67215961D01*
X144570025Y-67400680D01*
X144326335Y-67695279D01*
X142508920Y-67695279D01*
X142503162Y-67664683D01*
X142364090Y-67448559D01*
X142151890Y-67303569D01*
X141900000Y-67252560D01*
X138150000Y-67252560D01*
X137914683Y-67296838D01*
X137698559Y-67435910D01*
X137553569Y-67648110D01*
X137502560Y-67900000D01*
X133776795Y-67900000D01*
X133151541Y-67640372D01*
X132302185Y-67639630D01*
X131517200Y-67963980D01*
X130916091Y-68564041D01*
X130590372Y-69348459D01*
X130589630Y-70197815D01*
X123910000Y-70197815D01*
X123910000Y-65510000D01*
X242090000Y-65510000D01*
X242090000Y-121490000D01*
X242090000Y-121490000D01*
G37*
X242090000Y-121490000D02*
X123910000Y-121490000D01*
X123910000Y-117672815D01*
X130564630Y-117672815D01*
X130888980Y-118457800D01*
X131489041Y-119058909D01*
X132273459Y-119384628D01*
X133122815Y-119385370D01*
X133907800Y-119061020D01*
X134508909Y-118460959D01*
X134834628Y-117676541D01*
X134835370Y-116827185D01*
X134511020Y-116042200D01*
X133910959Y-115441091D01*
X133751795Y-115375000D01*
X137477560Y-115375000D01*
X137477560Y-119125000D01*
X137521838Y-119360317D01*
X137660910Y-119576441D01*
X137873110Y-119721431D01*
X138125000Y-119772440D01*
X141875000Y-119772440D01*
X142110317Y-119728162D01*
X142326441Y-119589090D01*
X142471431Y-119376890D01*
X142480982Y-119329721D01*
X144301335Y-119329721D01*
X144545025Y-119624320D01*
X145526331Y-119809039D01*
X146454975Y-119624320D01*
X146698665Y-119329721D01*
X146648666Y-119279721D01*
X219401335Y-119279721D01*
X219645025Y-119574320D01*
X220626331Y-119759039D01*
X221554975Y-119574320D01*
X221798665Y-119279721D01*
X220600000Y-118081055D01*
X219401335Y-119279721D01*
X146648666Y-119279721D01*
X145500000Y-118131055D01*
X144301335Y-119329721D01*
X142480982Y-119329721D01*
X142522440Y-119125000D01*
X142522440Y-117276331D01*
X142940961Y-117276331D01*
X143125680Y-118204975D01*
X143420279Y-118448665D01*
X144618945Y-117250000D01*
X146381055Y-117250000D01*
X147579721Y-118448665D01*
X147874320Y-118204975D01*
X148059039Y-117223669D01*
X147874320Y-116295025D01*
X147579721Y-116051335D01*
X146381055Y-117250000D01*
X144618945Y-117250000D01*
X143420279Y-116051335D01*
X143125680Y-116295025D01*
X142940961Y-117276331D01*
X142522440Y-117276331D01*
X142522440Y-115375000D01*
X142483920Y-115170279D01*
X144301335Y-115170279D01*
X145500000Y-116368945D01*
X146698665Y-115170279D01*
X146454975Y-114875680D01*
X145473669Y-114690961D01*
X144545025Y-114875680D01*
X144301335Y-115170279D01*
X142483920Y-115170279D01*
X142478162Y-115139683D01*
X142339090Y-114923559D01*
X142126890Y-114778569D01*
X141875000Y-114727560D01*
X138125000Y-114727560D01*
X137889683Y-114771838D01*
X137673559Y-114910910D01*
X137528569Y-115123110D01*
X137477560Y-115375000D01*
X133751795Y-115375000D01*
X133126541Y-115115372D01*
X132277185Y-115114630D01*
X131492200Y-115438980D01*
X130891091Y-116039041D01*
X130565372Y-116823459D01*
X130564630Y-117672815D01*
X123910000Y-117672815D01*
X123910000Y-112127766D01*
X159189626Y-112127766D01*
X159517773Y-112921943D01*
X160124861Y-113530091D01*
X160918464Y-113859624D01*
X161777766Y-113860374D01*
X162571943Y-113532227D01*
X163180091Y-112925139D01*
X163509624Y-112131536D01*
X163510374Y-111272234D01*
X163182227Y-110478057D01*
X162575139Y-109869909D01*
X161781536Y-109540376D01*
X160922234Y-109539626D01*
X160128057Y-109867773D01*
X159519909Y-110474861D01*
X159190376Y-111268464D01*
X159189626Y-112127766D01*
X123910000Y-112127766D01*
X123910000Y-108172815D01*
X130564630Y-108172815D01*
X130888980Y-108957800D01*
X131489041Y-109558909D01*
X132273459Y-109884628D01*
X133122815Y-109885370D01*
X133907800Y-109561020D01*
X134508909Y-108960959D01*
X134834628Y-108176541D01*
X134835370Y-107327185D01*
X134511020Y-106542200D01*
X133910959Y-105941091D01*
X133751795Y-105875000D01*
X137477560Y-105875000D01*
X137477560Y-109625000D01*
X137521838Y-109860317D01*
X137660910Y-110076441D01*
X137873110Y-110221431D01*
X138125000Y-110272440D01*
X141875000Y-110272440D01*
X142110317Y-110228162D01*
X142326441Y-110089090D01*
X142471431Y-109876890D01*
X142480982Y-109829721D01*
X144301335Y-109829721D01*
X144545025Y-110124320D01*
X145526331Y-110309039D01*
X146454975Y-110124320D01*
X146698665Y-109829721D01*
X145500000Y-108631055D01*
X144301335Y-109829721D01*
X142480982Y-109829721D01*
X142522440Y-109625000D01*
X142522440Y-107776331D01*
X142940961Y-107776331D01*
X143125680Y-108704975D01*
X143420279Y-108948665D01*
X144618945Y-107750000D01*
X146381055Y-107750000D01*
X147579721Y-108948665D01*
X147874320Y-108704975D01*
X148059039Y-107723669D01*
X147874320Y-106795025D01*
X147579721Y-106551335D01*
X146381055Y-107750000D01*
X144618945Y-107750000D01*
X143420279Y-106551335D01*
X143125680Y-106795025D01*
X142940961Y-107776331D01*
X142522440Y-107776331D01*
X142522440Y-105875000D01*
X142483920Y-105670279D01*
X144301335Y-105670279D01*
X145500000Y-106868945D01*
X146698665Y-105670279D01*
X146454975Y-105375680D01*
X145473669Y-105190961D01*
X144545025Y-105375680D01*
X144301335Y-105670279D01*
X142483920Y-105670279D01*
X142478162Y-105639683D01*
X142339090Y-105423559D01*
X142126890Y-105278569D01*
X141875000Y-105227560D01*
X138125000Y-105227560D01*
X137889683Y-105271838D01*
X137673559Y-105410910D01*
X137528569Y-105623110D01*
X137477560Y-105875000D01*
X133751795Y-105875000D01*
X133126541Y-105615372D01*
X132277185Y-105614630D01*
X131492200Y-105938980D01*
X130891091Y-106539041D01*
X130565372Y-107323459D01*
X130564630Y-108172815D01*
X123910000Y-108172815D01*
X123910000Y-104016761D01*
X152014294Y-104016761D01*
X152212402Y-104275127D01*
X153062665Y-104399434D01*
X153687598Y-104275127D01*
X153885706Y-104016761D01*
X152950000Y-103081055D01*
X152014294Y-104016761D01*
X123910000Y-104016761D01*
X123910000Y-102312665D01*
X150750566Y-102312665D01*
X150874873Y-102937598D01*
X151133239Y-103135706D01*
X152068945Y-102200000D01*
X153831055Y-102200000D01*
X154766761Y-103135706D01*
X155025127Y-102937598D01*
X155149434Y-102087335D01*
X155025127Y-101462402D01*
X154766761Y-101264294D01*
X153831055Y-102200000D01*
X152068945Y-102200000D01*
X151133239Y-101264294D01*
X150874873Y-101462402D01*
X150750566Y-102312665D01*
X123910000Y-102312665D01*
X123910000Y-98672815D01*
X130564630Y-98672815D01*
X130888980Y-99457800D01*
X131489041Y-100058909D01*
X132273459Y-100384628D01*
X133122815Y-100385370D01*
X133907800Y-100061020D01*
X134508909Y-99460959D01*
X134834628Y-98676541D01*
X134835370Y-97827185D01*
X134511020Y-97042200D01*
X133910959Y-96441091D01*
X133751795Y-96375000D01*
X137477560Y-96375000D01*
X137477560Y-100125000D01*
X137521838Y-100360317D01*
X137660910Y-100576441D01*
X137873110Y-100721431D01*
X138125000Y-100772440D01*
X141875000Y-100772440D01*
X142110317Y-100728162D01*
X142326441Y-100589090D01*
X142471431Y-100376890D01*
X142480982Y-100329721D01*
X144301335Y-100329721D01*
X144545025Y-100624320D01*
X145526331Y-100809039D01*
X146454975Y-100624320D01*
X146654395Y-100383239D01*
X152014294Y-100383239D01*
X152950000Y-101318945D01*
X153885706Y-100383239D01*
X153687598Y-100124873D01*
X152837335Y-100000566D01*
X152212402Y-100124873D01*
X152014294Y-100383239D01*
X146654395Y-100383239D01*
X146698665Y-100329721D01*
X145500000Y-99131055D01*
X144301335Y-100329721D01*
X142480982Y-100329721D01*
X142522440Y-100125000D01*
X142522440Y-98276331D01*
X142940961Y-98276331D01*
X143125680Y-99204975D01*
X143420279Y-99448665D01*
X144618945Y-98250000D01*
X146381055Y-98250000D01*
X147579721Y-99448665D01*
X147874320Y-99204975D01*
X148059039Y-98223669D01*
X147892251Y-97385167D01*
X154364838Y-97385167D01*
X154506883Y-97728943D01*
X154769673Y-97992192D01*
X155113201Y-98134838D01*
X155485167Y-98135162D01*
X155828943Y-97993117D01*
X156092192Y-97730327D01*
X156234838Y-97386799D01*
X156235162Y-97014833D01*
X156093117Y-96671057D01*
X156060000Y-96637882D01*
X156060000Y-94227766D01*
X159189626Y-94227766D01*
X159517773Y-95021943D01*
X160124861Y-95630091D01*
X160918464Y-95959624D01*
X161777766Y-95960374D01*
X162571943Y-95632227D01*
X162619085Y-95585167D01*
X164664838Y-95585167D01*
X164806883Y-95928943D01*
X165069673Y-96192192D01*
X165413201Y-96334838D01*
X165460077Y-96334879D01*
X168540000Y-99414802D01*
X168540000Y-100362838D01*
X168528057Y-100367773D01*
X167919909Y-100974861D01*
X167590376Y-101768464D01*
X167589626Y-102627766D01*
X167917773Y-103421943D01*
X168524861Y-104030091D01*
X168990000Y-104223234D01*
X168990000Y-115137742D01*
X168958339Y-116119230D01*
X168907808Y-116169673D01*
X168765162Y-116513201D01*
X168764838Y-116885167D01*
X168906883Y-117228943D01*
X169169673Y-117492192D01*
X169513201Y-117634838D01*
X169885167Y-117635162D01*
X170228943Y-117493117D01*
X170492192Y-117230327D01*
X170493851Y-117226331D01*
X218040961Y-117226331D01*
X218225680Y-118154975D01*
X218520279Y-118398665D01*
X219718945Y-117200000D01*
X221481055Y-117200000D01*
X222679721Y-118398665D01*
X222974320Y-118154975D01*
X223159039Y-117173669D01*
X222974320Y-116245025D01*
X222679721Y-116001335D01*
X221481055Y-117200000D01*
X219718945Y-117200000D01*
X218520279Y-116001335D01*
X218225680Y-116245025D01*
X218040961Y-117226331D01*
X170493851Y-117226331D01*
X170634838Y-116886799D01*
X170635162Y-116514833D01*
X170493117Y-116171057D01*
X170477948Y-116155862D01*
X170509605Y-115174504D01*
X170507570Y-115162216D01*
X170510000Y-115150000D01*
X170510000Y-115120279D01*
X219401335Y-115120279D01*
X220600000Y-116318945D01*
X221593944Y-115325000D01*
X223577560Y-115325000D01*
X223577560Y-119075000D01*
X223621838Y-119310317D01*
X223760910Y-119526441D01*
X223973110Y-119671431D01*
X224225000Y-119722440D01*
X227975000Y-119722440D01*
X228210317Y-119678162D01*
X228426441Y-119539090D01*
X228571431Y-119326890D01*
X228622440Y-119075000D01*
X228622440Y-117622815D01*
X231264630Y-117622815D01*
X231588980Y-118407800D01*
X232189041Y-119008909D01*
X232973459Y-119334628D01*
X233822815Y-119335370D01*
X234607800Y-119011020D01*
X235208909Y-118410959D01*
X235534628Y-117626541D01*
X235535370Y-116777185D01*
X235211020Y-115992200D01*
X234610959Y-115391091D01*
X233826541Y-115065372D01*
X232977185Y-115064630D01*
X232192200Y-115388980D01*
X231591091Y-115989041D01*
X231265372Y-116773459D01*
X231264630Y-117622815D01*
X228622440Y-117622815D01*
X228622440Y-115325000D01*
X228578162Y-115089683D01*
X228439090Y-114873559D01*
X228226890Y-114728569D01*
X227975000Y-114677560D01*
X224225000Y-114677560D01*
X223989683Y-114721838D01*
X223773559Y-114860910D01*
X223628569Y-115073110D01*
X223577560Y-115325000D01*
X221593944Y-115325000D01*
X221798665Y-115120279D01*
X221554975Y-114825680D01*
X220573669Y-114640961D01*
X219645025Y-114825680D01*
X219401335Y-115120279D01*
X170510000Y-115120279D01*
X170510000Y-112588256D01*
X179539669Y-112588256D01*
X179829837Y-113290515D01*
X180366659Y-113828275D01*
X181068411Y-114119668D01*
X181828256Y-114120331D01*
X182530515Y-113830163D01*
X183068275Y-113293341D01*
X183149841Y-113096909D01*
X183229837Y-113290515D01*
X183766659Y-113828275D01*
X184468411Y-114119668D01*
X185228256Y-114120331D01*
X185930515Y-113830163D01*
X186468275Y-113293341D01*
X186759668Y-112591589D01*
X186760072Y-112127766D01*
X202639626Y-112127766D01*
X202967773Y-112921943D01*
X203574861Y-113530091D01*
X204368464Y-113859624D01*
X205227766Y-113860374D01*
X206021943Y-113532227D01*
X206630091Y-112925139D01*
X206959624Y-112131536D01*
X206960374Y-111272234D01*
X206632227Y-110478057D01*
X206025139Y-109869909D01*
X205807943Y-109779721D01*
X219401335Y-109779721D01*
X219645025Y-110074320D01*
X220626331Y-110259039D01*
X221554975Y-110074320D01*
X221798665Y-109779721D01*
X220600000Y-108581055D01*
X219401335Y-109779721D01*
X205807943Y-109779721D01*
X205231536Y-109540376D01*
X204372234Y-109539626D01*
X203578057Y-109867773D01*
X202969909Y-110474861D01*
X202640376Y-111268464D01*
X202639626Y-112127766D01*
X186760072Y-112127766D01*
X186760331Y-111831744D01*
X186470163Y-111129485D01*
X185933341Y-110591725D01*
X185231589Y-110300332D01*
X184471744Y-110299669D01*
X183769485Y-110589837D01*
X183231725Y-111126659D01*
X183150159Y-111323091D01*
X183070163Y-111129485D01*
X182533341Y-110591725D01*
X181831589Y-110300332D01*
X181071744Y-110299669D01*
X180369485Y-110589837D01*
X179831725Y-111126659D01*
X179540332Y-111828411D01*
X179539669Y-112588256D01*
X170510000Y-112588256D01*
X170510000Y-107726331D01*
X218040961Y-107726331D01*
X218225680Y-108654975D01*
X218520279Y-108898665D01*
X219718945Y-107700000D01*
X221481055Y-107700000D01*
X222679721Y-108898665D01*
X222974320Y-108654975D01*
X223159039Y-107673669D01*
X222974320Y-106745025D01*
X222679721Y-106501335D01*
X221481055Y-107700000D01*
X219718945Y-107700000D01*
X218520279Y-106501335D01*
X218225680Y-106745025D01*
X218040961Y-107726331D01*
X170510000Y-107726331D01*
X170510000Y-105620279D01*
X219401335Y-105620279D01*
X220600000Y-106818945D01*
X221593944Y-105825000D01*
X223577560Y-105825000D01*
X223577560Y-109575000D01*
X223621838Y-109810317D01*
X223760910Y-110026441D01*
X223973110Y-110171431D01*
X224225000Y-110222440D01*
X227975000Y-110222440D01*
X228210317Y-110178162D01*
X228426441Y-110039090D01*
X228571431Y-109826890D01*
X228622440Y-109575000D01*
X228622440Y-108122815D01*
X231264630Y-108122815D01*
X231588980Y-108907800D01*
X232189041Y-109508909D01*
X232973459Y-109834628D01*
X233822815Y-109835370D01*
X234607800Y-109511020D01*
X235208909Y-108910959D01*
X235534628Y-108126541D01*
X235535370Y-107277185D01*
X235211020Y-106492200D01*
X234610959Y-105891091D01*
X233826541Y-105565372D01*
X232977185Y-105564630D01*
X232192200Y-105888980D01*
X231591091Y-106489041D01*
X231265372Y-107273459D01*
X231264630Y-108122815D01*
X228622440Y-108122815D01*
X228622440Y-105825000D01*
X228578162Y-105589683D01*
X228439090Y-105373559D01*
X228226890Y-105228569D01*
X227975000Y-105177560D01*
X224225000Y-105177560D01*
X223989683Y-105221838D01*
X223773559Y-105360910D01*
X223628569Y-105573110D01*
X223577560Y-105825000D01*
X221593944Y-105825000D01*
X221798665Y-105620279D01*
X221554975Y-105325680D01*
X220573669Y-105140961D01*
X219645025Y-105325680D01*
X219401335Y-105620279D01*
X170510000Y-105620279D01*
X170510000Y-104223098D01*
X170971943Y-104032227D01*
X170987436Y-104016761D01*
X195464294Y-104016761D01*
X195662402Y-104275127D01*
X196512665Y-104399434D01*
X197137598Y-104275127D01*
X197335706Y-104016761D01*
X196400000Y-103081055D01*
X195464294Y-104016761D01*
X170987436Y-104016761D01*
X171580091Y-103425139D01*
X171909624Y-102631536D01*
X171909902Y-102312665D01*
X194200566Y-102312665D01*
X194324873Y-102937598D01*
X194583239Y-103135706D01*
X195518945Y-102200000D01*
X197281055Y-102200000D01*
X198216761Y-103135706D01*
X198475127Y-102937598D01*
X198520423Y-102627766D01*
X211039626Y-102627766D01*
X211367773Y-103421943D01*
X211974861Y-104030091D01*
X212768464Y-104359624D01*
X213627766Y-104360374D01*
X214421943Y-104032227D01*
X215030091Y-103425139D01*
X215359624Y-102631536D01*
X215360374Y-101772234D01*
X215032227Y-100978057D01*
X214425139Y-100369909D01*
X214207943Y-100279721D01*
X219401335Y-100279721D01*
X219645025Y-100574320D01*
X220626331Y-100759039D01*
X221554975Y-100574320D01*
X221798665Y-100279721D01*
X220600000Y-99081055D01*
X219401335Y-100279721D01*
X214207943Y-100279721D01*
X213631536Y-100040376D01*
X212772234Y-100039626D01*
X211978057Y-100367773D01*
X211369909Y-100974861D01*
X211040376Y-101768464D01*
X211039626Y-102627766D01*
X198520423Y-102627766D01*
X198599434Y-102087335D01*
X198475127Y-101462402D01*
X198216761Y-101264294D01*
X197281055Y-102200000D01*
X195518945Y-102200000D01*
X194583239Y-101264294D01*
X194324873Y-101462402D01*
X194200566Y-102312665D01*
X171909902Y-102312665D01*
X171910374Y-101772234D01*
X171582227Y-100978057D01*
X170975139Y-100369909D01*
X170181536Y-100040376D01*
X170060000Y-100040270D01*
X170060000Y-99115256D01*
X179539669Y-99115256D01*
X179829837Y-99817515D01*
X180366659Y-100355275D01*
X181068411Y-100646668D01*
X181828256Y-100647331D01*
X182530515Y-100357163D01*
X183068275Y-99820341D01*
X183149219Y-99625406D01*
X183229837Y-99820515D01*
X183766659Y-100358275D01*
X184468411Y-100649668D01*
X185228256Y-100650331D01*
X185874666Y-100383239D01*
X195464294Y-100383239D01*
X196400000Y-101318945D01*
X197335706Y-100383239D01*
X197137598Y-100124873D01*
X196287335Y-100000566D01*
X195662402Y-100124873D01*
X195464294Y-100383239D01*
X185874666Y-100383239D01*
X185930515Y-100360163D01*
X186468275Y-99823341D01*
X186759668Y-99121589D01*
X186760331Y-98361744D01*
X186704380Y-98226331D01*
X218040961Y-98226331D01*
X218225680Y-99154975D01*
X218520279Y-99398665D01*
X219718945Y-98200000D01*
X221481055Y-98200000D01*
X222679721Y-99398665D01*
X222974320Y-99154975D01*
X223159039Y-98173669D01*
X222974320Y-97245025D01*
X222679721Y-97001335D01*
X221481055Y-98200000D01*
X219718945Y-98200000D01*
X218520279Y-97001335D01*
X218225680Y-97245025D01*
X218040961Y-98226331D01*
X186704380Y-98226331D01*
X186470163Y-97659485D01*
X185933341Y-97121725D01*
X185231589Y-96830332D01*
X184471744Y-96829669D01*
X183769485Y-97119837D01*
X183231725Y-97656659D01*
X183150781Y-97851594D01*
X183070163Y-97656485D01*
X182533341Y-97118725D01*
X181831589Y-96827332D01*
X181071744Y-96826669D01*
X180369485Y-97116837D01*
X179831725Y-97653659D01*
X179540332Y-98355411D01*
X179539669Y-99115256D01*
X170060000Y-99115256D01*
X170060000Y-99100000D01*
X170002148Y-98809161D01*
X170002148Y-98809160D01*
X169837401Y-98562599D01*
X167395081Y-96120279D01*
X219401335Y-96120279D01*
X220600000Y-97318945D01*
X221593944Y-96325000D01*
X223577560Y-96325000D01*
X223577560Y-100075000D01*
X223621838Y-100310317D01*
X223760910Y-100526441D01*
X223973110Y-100671431D01*
X224225000Y-100722440D01*
X227975000Y-100722440D01*
X228210317Y-100678162D01*
X228426441Y-100539090D01*
X228571431Y-100326890D01*
X228622440Y-100075000D01*
X228622440Y-98622815D01*
X231264630Y-98622815D01*
X231588980Y-99407800D01*
X232189041Y-100008909D01*
X232973459Y-100334628D01*
X233822815Y-100335370D01*
X234607800Y-100011020D01*
X235208909Y-99410959D01*
X235534628Y-98626541D01*
X235535370Y-97777185D01*
X235211020Y-96992200D01*
X234610959Y-96391091D01*
X233826541Y-96065372D01*
X232977185Y-96064630D01*
X232192200Y-96388980D01*
X231591091Y-96989041D01*
X231265372Y-97773459D01*
X231264630Y-98622815D01*
X228622440Y-98622815D01*
X228622440Y-96325000D01*
X228578162Y-96089683D01*
X228439090Y-95873559D01*
X228226890Y-95728569D01*
X227975000Y-95677560D01*
X224225000Y-95677560D01*
X223989683Y-95721838D01*
X223773559Y-95860910D01*
X223628569Y-96073110D01*
X223577560Y-96325000D01*
X221593944Y-96325000D01*
X221798665Y-96120279D01*
X221554975Y-95825680D01*
X220573669Y-95640961D01*
X219645025Y-95825680D01*
X219401335Y-96120279D01*
X167395081Y-96120279D01*
X166535122Y-95260320D01*
X166535162Y-95214833D01*
X166393117Y-94871057D01*
X166130327Y-94607808D01*
X165786799Y-94465162D01*
X165414833Y-94464838D01*
X165071057Y-94606883D01*
X164807808Y-94869673D01*
X164665162Y-95213201D01*
X164664838Y-95585167D01*
X162619085Y-95585167D01*
X163180091Y-95025139D01*
X163509624Y-94231536D01*
X163509627Y-94227766D01*
X202639626Y-94227766D01*
X202967773Y-95021943D01*
X203574861Y-95630091D01*
X204368464Y-95959624D01*
X205227766Y-95960374D01*
X206021943Y-95632227D01*
X206630091Y-95025139D01*
X206959624Y-94231536D01*
X206960374Y-93372234D01*
X206632227Y-92578057D01*
X206025139Y-91969909D01*
X205231536Y-91640376D01*
X204372234Y-91639626D01*
X203578057Y-91967773D01*
X202969909Y-92574861D01*
X202640376Y-93368464D01*
X202639626Y-94227766D01*
X163509627Y-94227766D01*
X163510374Y-93372234D01*
X163182227Y-92578057D01*
X162575139Y-91969909D01*
X161781536Y-91640376D01*
X160922234Y-91639626D01*
X160128057Y-91967773D01*
X159519909Y-92574861D01*
X159190376Y-93368464D01*
X159189626Y-94227766D01*
X156060000Y-94227766D01*
X156060000Y-91514802D01*
X156745081Y-90829721D01*
X219401335Y-90829721D01*
X219645025Y-91124320D01*
X220626331Y-91309039D01*
X221554975Y-91124320D01*
X221798665Y-90829721D01*
X220600000Y-89631055D01*
X219401335Y-90829721D01*
X156745081Y-90829721D01*
X159817674Y-87757128D01*
X160070885Y-88369943D01*
X160776343Y-89076634D01*
X161698540Y-89459564D01*
X162697080Y-89460435D01*
X163619943Y-89079115D01*
X163669423Y-89029721D01*
X169501335Y-89029721D01*
X169745025Y-89324320D01*
X170726331Y-89509039D01*
X171654975Y-89324320D01*
X171898665Y-89029721D01*
X175201335Y-89029721D01*
X175445025Y-89324320D01*
X176426331Y-89509039D01*
X177354975Y-89324320D01*
X177598665Y-89029721D01*
X176400000Y-87831055D01*
X175201335Y-89029721D01*
X171898665Y-89029721D01*
X170700000Y-87831055D01*
X169501335Y-89029721D01*
X163669423Y-89029721D01*
X164326634Y-88373657D01*
X164709564Y-87451460D01*
X164709978Y-86976331D01*
X168140961Y-86976331D01*
X168325680Y-87904975D01*
X168620279Y-88148665D01*
X169818945Y-86950000D01*
X171581055Y-86950000D01*
X172779721Y-88148665D01*
X173074320Y-87904975D01*
X173249126Y-86976331D01*
X173840961Y-86976331D01*
X174025680Y-87904975D01*
X174320279Y-88148665D01*
X175518945Y-86950000D01*
X177281055Y-86950000D01*
X178479721Y-88148665D01*
X178774320Y-87904975D01*
X178860513Y-87447080D01*
X182389565Y-87447080D01*
X182770885Y-88369943D01*
X183476343Y-89076634D01*
X184398540Y-89459564D01*
X185397080Y-89460435D01*
X186319943Y-89079115D01*
X186369423Y-89029721D01*
X193201335Y-89029721D01*
X193445025Y-89324320D01*
X194426331Y-89509039D01*
X195354975Y-89324320D01*
X195598665Y-89029721D01*
X202701335Y-89029721D01*
X202945025Y-89324320D01*
X203926331Y-89509039D01*
X204854975Y-89324320D01*
X205098665Y-89029721D01*
X212201335Y-89029721D01*
X212445025Y-89324320D01*
X213426331Y-89509039D01*
X214354975Y-89324320D01*
X214598665Y-89029721D01*
X214345276Y-88776331D01*
X218040961Y-88776331D01*
X218225680Y-89704975D01*
X218520279Y-89948665D01*
X219718945Y-88750000D01*
X221481055Y-88750000D01*
X222679721Y-89948665D01*
X222974320Y-89704975D01*
X223159039Y-88723669D01*
X222974320Y-87795025D01*
X222679721Y-87551335D01*
X221481055Y-88750000D01*
X219718945Y-88750000D01*
X218520279Y-87551335D01*
X218225680Y-87795025D01*
X218040961Y-88776331D01*
X214345276Y-88776331D01*
X213400000Y-87831055D01*
X212201335Y-89029721D01*
X205098665Y-89029721D01*
X203900000Y-87831055D01*
X202701335Y-89029721D01*
X195598665Y-89029721D01*
X194400000Y-87831055D01*
X193201335Y-89029721D01*
X186369423Y-89029721D01*
X187026634Y-88373657D01*
X187409564Y-87451460D01*
X187409978Y-86976331D01*
X191840961Y-86976331D01*
X192025680Y-87904975D01*
X192320279Y-88148665D01*
X193518945Y-86950000D01*
X195281055Y-86950000D01*
X196479721Y-88148665D01*
X196774320Y-87904975D01*
X196949126Y-86976331D01*
X201340961Y-86976331D01*
X201525680Y-87904975D01*
X201820279Y-88148665D01*
X203018945Y-86950000D01*
X204781055Y-86950000D01*
X205979721Y-88148665D01*
X206274320Y-87904975D01*
X206449126Y-86976331D01*
X210840961Y-86976331D01*
X211025680Y-87904975D01*
X211320279Y-88148665D01*
X212518945Y-86950000D01*
X214281055Y-86950000D01*
X215479721Y-88148665D01*
X215774320Y-87904975D01*
X215959039Y-86923669D01*
X215908637Y-86670279D01*
X219401335Y-86670279D01*
X220600000Y-87868945D01*
X221593944Y-86875000D01*
X223577560Y-86875000D01*
X223577560Y-90625000D01*
X223621838Y-90860317D01*
X223760910Y-91076441D01*
X223973110Y-91221431D01*
X224225000Y-91272440D01*
X227975000Y-91272440D01*
X228210317Y-91228162D01*
X228426441Y-91089090D01*
X228571431Y-90876890D01*
X228622440Y-90625000D01*
X228622440Y-89172815D01*
X231264630Y-89172815D01*
X231588980Y-89957800D01*
X232189041Y-90558909D01*
X232973459Y-90884628D01*
X233822815Y-90885370D01*
X234607800Y-90561020D01*
X235208909Y-89960959D01*
X235534628Y-89176541D01*
X235535370Y-88327185D01*
X235211020Y-87542200D01*
X234610959Y-86941091D01*
X233826541Y-86615372D01*
X232977185Y-86614630D01*
X232192200Y-86938980D01*
X231591091Y-87539041D01*
X231265372Y-88323459D01*
X231264630Y-89172815D01*
X228622440Y-89172815D01*
X228622440Y-86875000D01*
X228578162Y-86639683D01*
X228439090Y-86423559D01*
X228226890Y-86278569D01*
X227975000Y-86227560D01*
X224225000Y-86227560D01*
X223989683Y-86271838D01*
X223773559Y-86410910D01*
X223628569Y-86623110D01*
X223577560Y-86875000D01*
X221593944Y-86875000D01*
X221798665Y-86670279D01*
X221554975Y-86375680D01*
X220573669Y-86190961D01*
X219645025Y-86375680D01*
X219401335Y-86670279D01*
X215908637Y-86670279D01*
X215774320Y-85995025D01*
X215479721Y-85751335D01*
X214281055Y-86950000D01*
X212518945Y-86950000D01*
X211320279Y-85751335D01*
X211025680Y-85995025D01*
X210840961Y-86976331D01*
X206449126Y-86976331D01*
X206459039Y-86923669D01*
X206274320Y-85995025D01*
X205979721Y-85751335D01*
X204781055Y-86950000D01*
X203018945Y-86950000D01*
X201820279Y-85751335D01*
X201525680Y-85995025D01*
X201340961Y-86976331D01*
X196949126Y-86976331D01*
X196959039Y-86923669D01*
X196774320Y-85995025D01*
X196479721Y-85751335D01*
X195281055Y-86950000D01*
X193518945Y-86950000D01*
X192320279Y-85751335D01*
X192025680Y-85995025D01*
X191840961Y-86976331D01*
X187409978Y-86976331D01*
X187410435Y-86452920D01*
X187029115Y-85530057D01*
X186370489Y-84870279D01*
X193201335Y-84870279D01*
X194400000Y-86068945D01*
X195598665Y-84870279D01*
X202701335Y-84870279D01*
X203900000Y-86068945D01*
X205098665Y-84870279D01*
X212201335Y-84870279D01*
X213400000Y-86068945D01*
X214598665Y-84870279D01*
X214354975Y-84575680D01*
X213373669Y-84390961D01*
X212445025Y-84575680D01*
X212201335Y-84870279D01*
X205098665Y-84870279D01*
X204854975Y-84575680D01*
X203873669Y-84390961D01*
X202945025Y-84575680D01*
X202701335Y-84870279D01*
X195598665Y-84870279D01*
X195354975Y-84575680D01*
X194373669Y-84390961D01*
X193445025Y-84575680D01*
X193201335Y-84870279D01*
X186370489Y-84870279D01*
X186323657Y-84823366D01*
X185401460Y-84440436D01*
X184402920Y-84439565D01*
X183480057Y-84820885D01*
X182773366Y-85526343D01*
X182390436Y-86448540D01*
X182389565Y-87447080D01*
X178860513Y-87447080D01*
X178959039Y-86923669D01*
X178774320Y-85995025D01*
X178479721Y-85751335D01*
X177281055Y-86950000D01*
X175518945Y-86950000D01*
X174320279Y-85751335D01*
X174025680Y-85995025D01*
X173840961Y-86976331D01*
X173249126Y-86976331D01*
X173259039Y-86923669D01*
X173074320Y-85995025D01*
X172779721Y-85751335D01*
X171581055Y-86950000D01*
X169818945Y-86950000D01*
X168620279Y-85751335D01*
X168325680Y-85995025D01*
X168140961Y-86976331D01*
X164709978Y-86976331D01*
X164710435Y-86452920D01*
X164329115Y-85530057D01*
X163670489Y-84870279D01*
X169501335Y-84870279D01*
X170700000Y-86068945D01*
X171898665Y-84870279D01*
X175201335Y-84870279D01*
X176400000Y-86068945D01*
X177598665Y-84870279D01*
X177354975Y-84575680D01*
X176373669Y-84390961D01*
X175445025Y-84575680D01*
X175201335Y-84870279D01*
X171898665Y-84870279D01*
X171654975Y-84575680D01*
X170673669Y-84390961D01*
X169745025Y-84575680D01*
X169501335Y-84870279D01*
X163670489Y-84870279D01*
X163623657Y-84823366D01*
X162701460Y-84440436D01*
X161702920Y-84439565D01*
X160780057Y-84820885D01*
X160073366Y-85526343D01*
X159797791Y-86190000D01*
X159550000Y-86190000D01*
X159259161Y-86247852D01*
X159012599Y-86412599D01*
X154762599Y-90662599D01*
X154597852Y-90909161D01*
X154540000Y-91200000D01*
X154540000Y-96637537D01*
X154507808Y-96669673D01*
X154365162Y-97013201D01*
X154364838Y-97385167D01*
X147892251Y-97385167D01*
X147874320Y-97295025D01*
X147579721Y-97051335D01*
X146381055Y-98250000D01*
X144618945Y-98250000D01*
X143420279Y-97051335D01*
X143125680Y-97295025D01*
X142940961Y-98276331D01*
X142522440Y-98276331D01*
X142522440Y-96375000D01*
X142483920Y-96170279D01*
X144301335Y-96170279D01*
X145500000Y-97368945D01*
X146698665Y-96170279D01*
X146454975Y-95875680D01*
X145473669Y-95690961D01*
X144545025Y-95875680D01*
X144301335Y-96170279D01*
X142483920Y-96170279D01*
X142478162Y-96139683D01*
X142339090Y-95923559D01*
X142126890Y-95778569D01*
X141875000Y-95727560D01*
X138125000Y-95727560D01*
X137889683Y-95771838D01*
X137673559Y-95910910D01*
X137528569Y-96123110D01*
X137477560Y-96375000D01*
X133751795Y-96375000D01*
X133126541Y-96115372D01*
X132277185Y-96114630D01*
X131492200Y-96438980D01*
X130891091Y-97039041D01*
X130565372Y-97823459D01*
X130564630Y-98672815D01*
X123910000Y-98672815D01*
X123910000Y-89147815D01*
X130589630Y-89147815D01*
X130913980Y-89932800D01*
X131514041Y-90533909D01*
X132298459Y-90859628D01*
X133147815Y-90860370D01*
X133932800Y-90536020D01*
X134533909Y-89935959D01*
X134859628Y-89151541D01*
X134860370Y-88302185D01*
X134536020Y-87517200D01*
X133935959Y-86916091D01*
X133776795Y-86850000D01*
X137502560Y-86850000D01*
X137502560Y-90600000D01*
X137546838Y-90835317D01*
X137685910Y-91051441D01*
X137898110Y-91196431D01*
X138150000Y-91247440D01*
X141900000Y-91247440D01*
X142135317Y-91203162D01*
X142351441Y-91064090D01*
X142496431Y-90851890D01*
X142505982Y-90804721D01*
X144326335Y-90804721D01*
X144570025Y-91099320D01*
X145551331Y-91284039D01*
X146479975Y-91099320D01*
X146723665Y-90804721D01*
X145525000Y-89606055D01*
X144326335Y-90804721D01*
X142505982Y-90804721D01*
X142547440Y-90600000D01*
X142547440Y-88751331D01*
X142965961Y-88751331D01*
X143150680Y-89679975D01*
X143445279Y-89923665D01*
X144643945Y-88725000D01*
X146406055Y-88725000D01*
X147604721Y-89923665D01*
X147899320Y-89679975D01*
X148021722Y-89029721D01*
X151501335Y-89029721D01*
X151745025Y-89324320D01*
X152726331Y-89509039D01*
X153654975Y-89324320D01*
X153898665Y-89029721D01*
X152700000Y-87831055D01*
X151501335Y-89029721D01*
X148021722Y-89029721D01*
X148084039Y-88698669D01*
X147899320Y-87770025D01*
X147604721Y-87526335D01*
X146406055Y-88725000D01*
X144643945Y-88725000D01*
X143445279Y-87526335D01*
X143150680Y-87770025D01*
X142965961Y-88751331D01*
X142547440Y-88751331D01*
X142547440Y-86850000D01*
X142508920Y-86645279D01*
X144326335Y-86645279D01*
X145525000Y-87843945D01*
X146392613Y-86976331D01*
X150140961Y-86976331D01*
X150325680Y-87904975D01*
X150620279Y-88148665D01*
X151818945Y-86950000D01*
X153581055Y-86950000D01*
X154779721Y-88148665D01*
X155074320Y-87904975D01*
X155259039Y-86923669D01*
X155074320Y-85995025D01*
X154779721Y-85751335D01*
X153581055Y-86950000D01*
X151818945Y-86950000D01*
X150620279Y-85751335D01*
X150325680Y-85995025D01*
X150140961Y-86976331D01*
X146392613Y-86976331D01*
X146723665Y-86645279D01*
X146479975Y-86350680D01*
X145498669Y-86165961D01*
X144570025Y-86350680D01*
X144326335Y-86645279D01*
X142508920Y-86645279D01*
X142503162Y-86614683D01*
X142364090Y-86398559D01*
X142151890Y-86253569D01*
X141900000Y-86202560D01*
X138150000Y-86202560D01*
X137914683Y-86246838D01*
X137698559Y-86385910D01*
X137553569Y-86598110D01*
X137502560Y-86850000D01*
X133776795Y-86850000D01*
X133151541Y-86590372D01*
X132302185Y-86589630D01*
X131517200Y-86913980D01*
X130916091Y-87514041D01*
X130590372Y-88298459D01*
X130589630Y-89147815D01*
X123910000Y-89147815D01*
X123910000Y-84870279D01*
X151501335Y-84870279D01*
X152700000Y-86068945D01*
X153898665Y-84870279D01*
X153654975Y-84575680D01*
X152673669Y-84390961D01*
X151745025Y-84575680D01*
X151501335Y-84870279D01*
X123910000Y-84870279D01*
X123910000Y-79647815D01*
X130589630Y-79647815D01*
X130913980Y-80432800D01*
X131514041Y-81033909D01*
X132298459Y-81359628D01*
X133147815Y-81360370D01*
X133932800Y-81036020D01*
X134533909Y-80435959D01*
X134859628Y-79651541D01*
X134860370Y-78802185D01*
X134536020Y-78017200D01*
X133935959Y-77416091D01*
X133776795Y-77350000D01*
X137502560Y-77350000D01*
X137502560Y-81100000D01*
X137546838Y-81335317D01*
X137685910Y-81551441D01*
X137898110Y-81696431D01*
X138150000Y-81747440D01*
X141900000Y-81747440D01*
X142135317Y-81703162D01*
X142351441Y-81564090D01*
X142496431Y-81351890D01*
X142505982Y-81304721D01*
X144326335Y-81304721D01*
X144570025Y-81599320D01*
X145551331Y-81784039D01*
X146479975Y-81599320D01*
X146723665Y-81304721D01*
X145525000Y-80106055D01*
X144326335Y-81304721D01*
X142505982Y-81304721D01*
X142547440Y-81100000D01*
X142547440Y-79251331D01*
X142965961Y-79251331D01*
X143150680Y-80179975D01*
X143445279Y-80423665D01*
X144643945Y-79225000D01*
X146406055Y-79225000D01*
X147604721Y-80423665D01*
X147899320Y-80179975D01*
X148013199Y-79575000D01*
X150177560Y-79575000D01*
X150177560Y-83325000D01*
X150221838Y-83560317D01*
X150360910Y-83776441D01*
X150573110Y-83921431D01*
X150825000Y-83972440D01*
X154575000Y-83972440D01*
X154810317Y-83928162D01*
X155026441Y-83789090D01*
X155171431Y-83576890D01*
X155222440Y-83325000D01*
X155222440Y-79575000D01*
X159677560Y-79575000D01*
X159677560Y-83325000D01*
X159721838Y-83560317D01*
X159860910Y-83776441D01*
X160073110Y-83921431D01*
X160325000Y-83972440D01*
X164075000Y-83972440D01*
X164310317Y-83928162D01*
X164526441Y-83789090D01*
X164671431Y-83576890D01*
X164722440Y-83325000D01*
X164722440Y-79575000D01*
X168177560Y-79575000D01*
X168177560Y-83325000D01*
X168221838Y-83560317D01*
X168360910Y-83776441D01*
X168573110Y-83921431D01*
X168825000Y-83972440D01*
X172575000Y-83972440D01*
X172810317Y-83928162D01*
X173026441Y-83789090D01*
X173171431Y-83576890D01*
X173222440Y-83325000D01*
X173222440Y-81947080D01*
X173889565Y-81947080D01*
X174270885Y-82869943D01*
X174976343Y-83576634D01*
X175898540Y-83959564D01*
X176897080Y-83960435D01*
X177819943Y-83579115D01*
X178526634Y-82873657D01*
X178909564Y-81951460D01*
X178910435Y-80952920D01*
X178529115Y-80030057D01*
X178074852Y-79575000D01*
X182377560Y-79575000D01*
X182377560Y-83325000D01*
X182421838Y-83560317D01*
X182560910Y-83776441D01*
X182773110Y-83921431D01*
X183025000Y-83972440D01*
X186775000Y-83972440D01*
X187010317Y-83928162D01*
X187226441Y-83789090D01*
X187371431Y-83576890D01*
X187422440Y-83325000D01*
X187422440Y-79575000D01*
X191877560Y-79575000D01*
X191877560Y-83325000D01*
X191921838Y-83560317D01*
X192060910Y-83776441D01*
X192273110Y-83921431D01*
X192525000Y-83972440D01*
X196275000Y-83972440D01*
X196510317Y-83928162D01*
X196726441Y-83789090D01*
X196871431Y-83576890D01*
X196922440Y-83325000D01*
X196922440Y-79575000D01*
X201377560Y-79575000D01*
X201377560Y-83325000D01*
X201421838Y-83560317D01*
X201560910Y-83776441D01*
X201773110Y-83921431D01*
X202025000Y-83972440D01*
X205775000Y-83972440D01*
X206010317Y-83928162D01*
X206226441Y-83789090D01*
X206371431Y-83576890D01*
X206422440Y-83325000D01*
X206422440Y-79575000D01*
X210877560Y-79575000D01*
X210877560Y-83325000D01*
X210921838Y-83560317D01*
X211060910Y-83776441D01*
X211273110Y-83921431D01*
X211525000Y-83972440D01*
X215275000Y-83972440D01*
X215510317Y-83928162D01*
X215726441Y-83789090D01*
X215871431Y-83576890D01*
X215922440Y-83325000D01*
X215922440Y-81329721D01*
X219401335Y-81329721D01*
X219645025Y-81624320D01*
X220626331Y-81809039D01*
X221554975Y-81624320D01*
X221798665Y-81329721D01*
X220600000Y-80131055D01*
X219401335Y-81329721D01*
X215922440Y-81329721D01*
X215922440Y-79575000D01*
X215878162Y-79339683D01*
X215837397Y-79276331D01*
X218040961Y-79276331D01*
X218225680Y-80204975D01*
X218520279Y-80448665D01*
X219718945Y-79250000D01*
X221481055Y-79250000D01*
X222679721Y-80448665D01*
X222974320Y-80204975D01*
X223159039Y-79223669D01*
X222974320Y-78295025D01*
X222679721Y-78051335D01*
X221481055Y-79250000D01*
X219718945Y-79250000D01*
X218520279Y-78051335D01*
X218225680Y-78295025D01*
X218040961Y-79276331D01*
X215837397Y-79276331D01*
X215739090Y-79123559D01*
X215526890Y-78978569D01*
X215275000Y-78927560D01*
X211525000Y-78927560D01*
X211289683Y-78971838D01*
X211073559Y-79110910D01*
X210928569Y-79323110D01*
X210877560Y-79575000D01*
X206422440Y-79575000D01*
X206378162Y-79339683D01*
X206239090Y-79123559D01*
X206026890Y-78978569D01*
X205775000Y-78927560D01*
X202025000Y-78927560D01*
X201789683Y-78971838D01*
X201573559Y-79110910D01*
X201428569Y-79323110D01*
X201377560Y-79575000D01*
X196922440Y-79575000D01*
X196878162Y-79339683D01*
X196739090Y-79123559D01*
X196526890Y-78978569D01*
X196275000Y-78927560D01*
X192525000Y-78927560D01*
X192289683Y-78971838D01*
X192073559Y-79110910D01*
X191928569Y-79323110D01*
X191877560Y-79575000D01*
X187422440Y-79575000D01*
X187378162Y-79339683D01*
X187239090Y-79123559D01*
X187026890Y-78978569D01*
X186775000Y-78927560D01*
X183025000Y-78927560D01*
X182789683Y-78971838D01*
X182573559Y-79110910D01*
X182428569Y-79323110D01*
X182377560Y-79575000D01*
X178074852Y-79575000D01*
X177823657Y-79323366D01*
X176901460Y-78940436D01*
X175902920Y-78939565D01*
X174980057Y-79320885D01*
X174273366Y-80026343D01*
X173890436Y-80948540D01*
X173889565Y-81947080D01*
X173222440Y-81947080D01*
X173222440Y-79575000D01*
X173178162Y-79339683D01*
X173039090Y-79123559D01*
X172826890Y-78978569D01*
X172575000Y-78927560D01*
X168825000Y-78927560D01*
X168589683Y-78971838D01*
X168373559Y-79110910D01*
X168228569Y-79323110D01*
X168177560Y-79575000D01*
X164722440Y-79575000D01*
X164678162Y-79339683D01*
X164539090Y-79123559D01*
X164326890Y-78978569D01*
X164075000Y-78927560D01*
X160325000Y-78927560D01*
X160089683Y-78971838D01*
X159873559Y-79110910D01*
X159728569Y-79323110D01*
X159677560Y-79575000D01*
X155222440Y-79575000D01*
X155178162Y-79339683D01*
X155039090Y-79123559D01*
X154826890Y-78978569D01*
X154575000Y-78927560D01*
X150825000Y-78927560D01*
X150589683Y-78971838D01*
X150373559Y-79110910D01*
X150228569Y-79323110D01*
X150177560Y-79575000D01*
X148013199Y-79575000D01*
X148084039Y-79198669D01*
X147899320Y-78270025D01*
X147604721Y-78026335D01*
X146406055Y-79225000D01*
X144643945Y-79225000D01*
X143445279Y-78026335D01*
X143150680Y-78270025D01*
X142965961Y-79251331D01*
X142547440Y-79251331D01*
X142547440Y-77350000D01*
X142508920Y-77145279D01*
X144326335Y-77145279D01*
X145525000Y-78343945D01*
X146698665Y-77170279D01*
X219401335Y-77170279D01*
X220600000Y-78368945D01*
X221593944Y-77375000D01*
X223577560Y-77375000D01*
X223577560Y-81125000D01*
X223621838Y-81360317D01*
X223760910Y-81576441D01*
X223973110Y-81721431D01*
X224225000Y-81772440D01*
X227975000Y-81772440D01*
X228210317Y-81728162D01*
X228426441Y-81589090D01*
X228571431Y-81376890D01*
X228622440Y-81125000D01*
X228622440Y-79672815D01*
X231264630Y-79672815D01*
X231588980Y-80457800D01*
X232189041Y-81058909D01*
X232973459Y-81384628D01*
X233822815Y-81385370D01*
X234607800Y-81061020D01*
X235208909Y-80460959D01*
X235534628Y-79676541D01*
X235535370Y-78827185D01*
X235211020Y-78042200D01*
X234610959Y-77441091D01*
X233826541Y-77115372D01*
X232977185Y-77114630D01*
X232192200Y-77438980D01*
X231591091Y-78039041D01*
X231265372Y-78823459D01*
X231264630Y-79672815D01*
X228622440Y-79672815D01*
X228622440Y-77375000D01*
X228578162Y-77139683D01*
X228439090Y-76923559D01*
X228226890Y-76778569D01*
X227975000Y-76727560D01*
X224225000Y-76727560D01*
X223989683Y-76771838D01*
X223773559Y-76910910D01*
X223628569Y-77123110D01*
X223577560Y-77375000D01*
X221593944Y-77375000D01*
X221798665Y-77170279D01*
X221554975Y-76875680D01*
X220573669Y-76690961D01*
X219645025Y-76875680D01*
X219401335Y-77170279D01*
X146698665Y-77170279D01*
X146723665Y-77145279D01*
X146479975Y-76850680D01*
X145498669Y-76665961D01*
X144570025Y-76850680D01*
X144326335Y-77145279D01*
X142508920Y-77145279D01*
X142503162Y-77114683D01*
X142364090Y-76898559D01*
X142151890Y-76753569D01*
X141900000Y-76702560D01*
X138150000Y-76702560D01*
X137914683Y-76746838D01*
X137698559Y-76885910D01*
X137553569Y-77098110D01*
X137502560Y-77350000D01*
X133776795Y-77350000D01*
X133151541Y-77090372D01*
X132302185Y-77089630D01*
X131517200Y-77413980D01*
X130916091Y-78014041D01*
X130590372Y-78798459D01*
X130589630Y-79647815D01*
X123910000Y-79647815D01*
X123910000Y-74572815D01*
X150564630Y-74572815D01*
X150888980Y-75357800D01*
X151489041Y-75958909D01*
X152273459Y-76284628D01*
X153122815Y-76285370D01*
X153907800Y-75961020D01*
X154508909Y-75360959D01*
X154834628Y-74576541D01*
X154834631Y-74572815D01*
X160064630Y-74572815D01*
X160388980Y-75357800D01*
X160989041Y-75958909D01*
X161773459Y-76284628D01*
X162622815Y-76285370D01*
X163407800Y-75961020D01*
X164008909Y-75360959D01*
X164334628Y-74576541D01*
X164334631Y-74572815D01*
X171414630Y-74572815D01*
X171738980Y-75357800D01*
X172339041Y-75958909D01*
X173123459Y-76284628D01*
X173972815Y-76285370D01*
X174757800Y-75961020D01*
X175358909Y-75360959D01*
X175684628Y-74576541D01*
X175684631Y-74572815D01*
X182764630Y-74572815D01*
X183088980Y-75357800D01*
X183689041Y-75958909D01*
X184473459Y-76284628D01*
X185322815Y-76285370D01*
X186107800Y-75961020D01*
X186708909Y-75360959D01*
X187034628Y-74576541D01*
X187034631Y-74572815D01*
X192264630Y-74572815D01*
X192588980Y-75357800D01*
X193189041Y-75958909D01*
X193973459Y-76284628D01*
X194822815Y-76285370D01*
X195607800Y-75961020D01*
X196208909Y-75360959D01*
X196534628Y-74576541D01*
X196534631Y-74572815D01*
X201764630Y-74572815D01*
X202088980Y-75357800D01*
X202689041Y-75958909D01*
X203473459Y-76284628D01*
X204322815Y-76285370D01*
X205107800Y-75961020D01*
X205708909Y-75360959D01*
X206034628Y-74576541D01*
X206034631Y-74572815D01*
X211264630Y-74572815D01*
X211588980Y-75357800D01*
X212189041Y-75958909D01*
X212973459Y-76284628D01*
X213822815Y-76285370D01*
X214607800Y-75961020D01*
X215208909Y-75360959D01*
X215534628Y-74576541D01*
X215535370Y-73727185D01*
X215211020Y-72942200D01*
X214610959Y-72341091D01*
X213826541Y-72015372D01*
X212977185Y-72014630D01*
X212192200Y-72338980D01*
X211591091Y-72939041D01*
X211265372Y-73723459D01*
X211264630Y-74572815D01*
X206034631Y-74572815D01*
X206035370Y-73727185D01*
X205711020Y-72942200D01*
X205110959Y-72341091D01*
X204326541Y-72015372D01*
X203477185Y-72014630D01*
X202692200Y-72338980D01*
X202091091Y-72939041D01*
X201765372Y-73723459D01*
X201764630Y-74572815D01*
X196534631Y-74572815D01*
X196535370Y-73727185D01*
X196211020Y-72942200D01*
X195610959Y-72341091D01*
X194826541Y-72015372D01*
X193977185Y-72014630D01*
X193192200Y-72338980D01*
X192591091Y-72939041D01*
X192265372Y-73723459D01*
X192264630Y-74572815D01*
X187034631Y-74572815D01*
X187035370Y-73727185D01*
X186711020Y-72942200D01*
X186110959Y-72341091D01*
X185326541Y-72015372D01*
X184477185Y-72014630D01*
X183692200Y-72338980D01*
X183091091Y-72939041D01*
X182765372Y-73723459D01*
X182764630Y-74572815D01*
X175684631Y-74572815D01*
X175685370Y-73727185D01*
X175361020Y-72942200D01*
X174760959Y-72341091D01*
X173976541Y-72015372D01*
X173127185Y-72014630D01*
X172342200Y-72338980D01*
X171741091Y-72939041D01*
X171415372Y-73723459D01*
X171414630Y-74572815D01*
X164334631Y-74572815D01*
X164335370Y-73727185D01*
X164011020Y-72942200D01*
X163410959Y-72341091D01*
X162626541Y-72015372D01*
X161777185Y-72014630D01*
X160992200Y-72338980D01*
X160391091Y-72939041D01*
X160065372Y-73723459D01*
X160064630Y-74572815D01*
X154834631Y-74572815D01*
X154835370Y-73727185D01*
X154511020Y-72942200D01*
X153910959Y-72341091D01*
X153126541Y-72015372D01*
X152277185Y-72014630D01*
X151492200Y-72338980D01*
X150891091Y-72939041D01*
X150565372Y-73723459D01*
X150564630Y-74572815D01*
X123910000Y-74572815D01*
X123910000Y-70197815D01*
X130589630Y-70197815D01*
X130913980Y-70982800D01*
X131514041Y-71583909D01*
X132298459Y-71909628D01*
X133147815Y-71910370D01*
X133932800Y-71586020D01*
X134533909Y-70985959D01*
X134859628Y-70201541D01*
X134860370Y-69352185D01*
X134536020Y-68567200D01*
X133935959Y-67966091D01*
X133776795Y-67900000D01*
X137502560Y-67900000D01*
X137502560Y-71650000D01*
X137546838Y-71885317D01*
X137685910Y-72101441D01*
X137898110Y-72246431D01*
X138150000Y-72297440D01*
X141900000Y-72297440D01*
X142135317Y-72253162D01*
X142351441Y-72114090D01*
X142496431Y-71901890D01*
X142505982Y-71854721D01*
X144326335Y-71854721D01*
X144570025Y-72149320D01*
X145551331Y-72334039D01*
X146479975Y-72149320D01*
X146723665Y-71854721D01*
X146698666Y-71829721D01*
X219401335Y-71829721D01*
X219645025Y-72124320D01*
X220626331Y-72309039D01*
X221554975Y-72124320D01*
X221798665Y-71829721D01*
X220600000Y-70631055D01*
X219401335Y-71829721D01*
X146698666Y-71829721D01*
X145525000Y-70656055D01*
X144326335Y-71854721D01*
X142505982Y-71854721D01*
X142547440Y-71650000D01*
X142547440Y-69801331D01*
X142965961Y-69801331D01*
X143150680Y-70729975D01*
X143445279Y-70973665D01*
X144643945Y-69775000D01*
X146406055Y-69775000D01*
X147604721Y-70973665D01*
X147899320Y-70729975D01*
X148078831Y-69776331D01*
X218040961Y-69776331D01*
X218225680Y-70704975D01*
X218520279Y-70948665D01*
X219718945Y-69750000D01*
X221481055Y-69750000D01*
X222679721Y-70948665D01*
X222974320Y-70704975D01*
X223159039Y-69723669D01*
X222974320Y-68795025D01*
X222679721Y-68551335D01*
X221481055Y-69750000D01*
X219718945Y-69750000D01*
X218520279Y-68551335D01*
X218225680Y-68795025D01*
X218040961Y-69776331D01*
X148078831Y-69776331D01*
X148084039Y-69748669D01*
X147899320Y-68820025D01*
X147604721Y-68576335D01*
X146406055Y-69775000D01*
X144643945Y-69775000D01*
X143445279Y-68576335D01*
X143150680Y-68820025D01*
X142965961Y-69801331D01*
X142547440Y-69801331D01*
X142547440Y-67900000D01*
X142508920Y-67695279D01*
X144326335Y-67695279D01*
X145525000Y-68893945D01*
X146723665Y-67695279D01*
X146702986Y-67670279D01*
X219401335Y-67670279D01*
X220600000Y-68868945D01*
X221593944Y-67875000D01*
X223577560Y-67875000D01*
X223577560Y-71625000D01*
X223621838Y-71860317D01*
X223760910Y-72076441D01*
X223973110Y-72221431D01*
X224225000Y-72272440D01*
X227975000Y-72272440D01*
X228210317Y-72228162D01*
X228426441Y-72089090D01*
X228571431Y-71876890D01*
X228622440Y-71625000D01*
X228622440Y-70172815D01*
X231264630Y-70172815D01*
X231588980Y-70957800D01*
X232189041Y-71558909D01*
X232973459Y-71884628D01*
X233822815Y-71885370D01*
X234607800Y-71561020D01*
X235208909Y-70960959D01*
X235534628Y-70176541D01*
X235535370Y-69327185D01*
X235211020Y-68542200D01*
X234610959Y-67941091D01*
X233826541Y-67615372D01*
X232977185Y-67614630D01*
X232192200Y-67938980D01*
X231591091Y-68539041D01*
X231265372Y-69323459D01*
X231264630Y-70172815D01*
X228622440Y-70172815D01*
X228622440Y-67875000D01*
X228578162Y-67639683D01*
X228439090Y-67423559D01*
X228226890Y-67278569D01*
X227975000Y-67227560D01*
X224225000Y-67227560D01*
X223989683Y-67271838D01*
X223773559Y-67410910D01*
X223628569Y-67623110D01*
X223577560Y-67875000D01*
X221593944Y-67875000D01*
X221798665Y-67670279D01*
X221554975Y-67375680D01*
X220573669Y-67190961D01*
X219645025Y-67375680D01*
X219401335Y-67670279D01*
X146702986Y-67670279D01*
X146479975Y-67400680D01*
X145498669Y-67215961D01*
X144570025Y-67400680D01*
X144326335Y-67695279D01*
X142508920Y-67695279D01*
X142503162Y-67664683D01*
X142364090Y-67448559D01*
X142151890Y-67303569D01*
X141900000Y-67252560D01*
X138150000Y-67252560D01*
X137914683Y-67296838D01*
X137698559Y-67435910D01*
X137553569Y-67648110D01*
X137502560Y-67900000D01*
X133776795Y-67900000D01*
X133151541Y-67640372D01*
X132302185Y-67639630D01*
X131517200Y-67963980D01*
X130916091Y-68564041D01*
X130590372Y-69348459D01*
X130589630Y-70197815D01*
X123910000Y-70197815D01*
X123910000Y-65510000D01*
X242090000Y-65510000D01*
X242090000Y-121490000D01*
M02*
