G04 #@! TF.FileFunction,Copper,L1,Top,Signal*
%FSLAX46Y46*%
G04 Gerber Fmt 4.6, Leading zero omitted, Abs format (unit mm)*
G04 Created by KiCad (PCBNEW 4.0.7) date 11/16/17 10:54:23*
%MOMM*%
%LPD*%
G01*
G04 APERTURE LIST*
%ADD10C,0.100000*%
%ADD11R,2.000000X1.700000*%
%ADD12R,3.500000X1.800000*%
%ADD13C,2.550000*%
%ADD14R,3.750000X3.750000*%
%ADD15C,3.750000*%
%ADD16C,3.050000*%
%ADD17C,0.600000*%
%ADD18C,0.250000*%
%ADD19C,0.254000*%
G04 APERTURE END LIST*
D10*
D11*
X150700000Y-118950000D03*
X154700000Y-118950000D03*
X215400000Y-118950000D03*
X211400000Y-118950000D03*
D12*
X167650000Y-118950000D03*
X172650000Y-118950000D03*
X193450000Y-118950000D03*
X198450000Y-118950000D03*
D13*
X181450000Y-112210000D03*
X184850000Y-112210000D03*
X184850000Y-98740000D03*
X181450000Y-98737000D03*
D14*
X140000000Y-107750000D03*
D15*
X145500000Y-107750000D03*
D14*
X140025000Y-69775000D03*
D15*
X145525000Y-69775000D03*
D14*
X152700000Y-81450000D03*
D15*
X152700000Y-86950000D03*
D14*
X140000000Y-117250000D03*
D15*
X145500000Y-117250000D03*
D14*
X140025000Y-79225000D03*
D15*
X145525000Y-79225000D03*
D14*
X140025000Y-88725000D03*
D15*
X145525000Y-88725000D03*
D14*
X140000000Y-98250000D03*
D15*
X145500000Y-98250000D03*
D14*
X162200000Y-81450000D03*
D15*
X162200000Y-86950000D03*
D14*
X184900000Y-81450000D03*
D15*
X184900000Y-86950000D03*
D14*
X226100000Y-69750000D03*
D15*
X220600000Y-69750000D03*
D14*
X226100000Y-79250000D03*
D15*
X220600000Y-79250000D03*
D14*
X226100000Y-88750000D03*
D15*
X220600000Y-88750000D03*
D14*
X226100000Y-98200000D03*
D15*
X220600000Y-98200000D03*
D14*
X203900000Y-81450000D03*
D15*
X203900000Y-86950000D03*
D14*
X213400000Y-81450000D03*
D15*
X213400000Y-86950000D03*
D14*
X226100000Y-117200000D03*
D15*
X220600000Y-117200000D03*
D14*
X194400000Y-81450000D03*
D15*
X194400000Y-86950000D03*
D14*
X226100000Y-107700000D03*
D15*
X220600000Y-107700000D03*
D14*
X170700000Y-81450000D03*
D15*
X176400000Y-81450000D03*
X170700000Y-86950000D03*
X176400000Y-86950000D03*
D16*
X161350000Y-111700000D03*
X169750000Y-102200000D03*
X152950000Y-102200000D03*
X161350000Y-93800000D03*
X204800000Y-111700000D03*
X213200000Y-102200000D03*
X196400000Y-102200000D03*
X204800000Y-93800000D03*
D11*
X162800000Y-118950000D03*
X158800000Y-118950000D03*
X203300000Y-118950000D03*
X207300000Y-118950000D03*
D17*
X151130000Y-120650000D03*
X173990000Y-120650000D03*
X217170000Y-120650000D03*
X200660000Y-120650000D03*
X165600000Y-95400000D03*
X169700000Y-116700000D03*
X155300000Y-97200000D03*
D18*
X150700000Y-118950000D02*
X150700000Y-120220000D01*
X150700000Y-120220000D02*
X151130000Y-120650000D01*
X172650000Y-118950000D02*
X172650000Y-119310000D01*
X172650000Y-119310000D02*
X173990000Y-120650000D01*
X215400000Y-118950000D02*
X215470000Y-118950000D01*
X215470000Y-118950000D02*
X217170000Y-120650000D01*
X198450000Y-118950000D02*
X198960000Y-118950000D01*
X198960000Y-118950000D02*
X200660000Y-120650000D01*
X158800000Y-118950000D02*
X154700000Y-118950000D01*
X207300000Y-118950000D02*
X211400000Y-118950000D01*
X162200000Y-81450000D02*
X163550000Y-81450000D01*
X163550000Y-81450000D02*
X165600000Y-83500000D01*
X165600000Y-83500000D02*
X165600000Y-95400000D01*
X167650000Y-118950000D02*
X167650000Y-117250000D01*
X167650000Y-117250000D02*
X169700000Y-116700000D01*
X169750000Y-103550000D02*
X169750000Y-102200000D01*
X162200000Y-81450000D02*
X162250000Y-81450000D01*
X215900000Y-99500000D02*
X214900000Y-99500000D01*
X193450000Y-117850000D02*
X194700000Y-116600000D01*
X194700000Y-116600000D02*
X216100000Y-116600000D01*
X216100000Y-116600000D02*
X217200000Y-115500000D01*
X217200000Y-115500000D02*
X217200000Y-100800000D01*
X217200000Y-100800000D02*
X215900000Y-99500000D01*
X193450000Y-118950000D02*
X193450000Y-117850000D01*
X214900000Y-99500000D02*
X213200000Y-101200000D01*
X213200000Y-101200000D02*
X213200000Y-102200000D01*
X184900000Y-81450000D02*
X187150000Y-81450000D01*
X210400000Y-99400000D02*
X213200000Y-102200000D01*
X203800000Y-99400000D02*
X210400000Y-99400000D01*
X196500000Y-92100000D02*
X203800000Y-99400000D01*
X191400000Y-92100000D02*
X196500000Y-92100000D01*
X189300000Y-90000000D02*
X191400000Y-92100000D01*
X189300000Y-83600000D02*
X189300000Y-90000000D01*
X187150000Y-81450000D02*
X189300000Y-83600000D01*
X158100000Y-111700000D02*
X161350000Y-111700000D01*
X155300000Y-108900000D02*
X158100000Y-111700000D01*
X155300000Y-97200000D02*
X155300000Y-108900000D01*
X162200000Y-86950000D02*
X162750000Y-86950000D01*
X184900000Y-86950000D02*
X186850000Y-86950000D01*
X188600000Y-88700000D02*
X188600000Y-102400000D01*
X186850000Y-86950000D02*
X188600000Y-88700000D01*
X162800000Y-118950000D02*
X162800000Y-117000000D01*
X149300000Y-116400000D02*
X147900000Y-114400000D01*
X161600000Y-116400000D02*
X149300000Y-116400000D01*
X162800000Y-117000000D02*
X161600000Y-116400000D01*
X203300000Y-118950000D02*
X203300000Y-117800000D01*
X216900000Y-117100000D02*
X219200000Y-114800000D01*
X204000000Y-117100000D02*
X216900000Y-117100000D01*
X203300000Y-117800000D02*
X204000000Y-117100000D01*
D19*
G36*
X242090000Y-121490000D02*
X218519015Y-121490000D01*
X218474044Y-118623108D01*
X219176343Y-119326634D01*
X220098540Y-119709564D01*
X221097080Y-119710435D01*
X222019943Y-119329115D01*
X222726634Y-118623657D01*
X222993177Y-117981750D01*
X223590000Y-117981750D01*
X223590000Y-119201309D01*
X223686673Y-119434698D01*
X223865301Y-119613327D01*
X224098690Y-119710000D01*
X225318250Y-119710000D01*
X225477000Y-119551250D01*
X225477000Y-117823000D01*
X226723000Y-117823000D01*
X226723000Y-119551250D01*
X226881750Y-119710000D01*
X228101310Y-119710000D01*
X228334699Y-119613327D01*
X228513327Y-119434698D01*
X228610000Y-119201309D01*
X228610000Y-117981750D01*
X228451250Y-117823000D01*
X226723000Y-117823000D01*
X225477000Y-117823000D01*
X223748750Y-117823000D01*
X223590000Y-117981750D01*
X222993177Y-117981750D01*
X223109564Y-117701460D01*
X223109632Y-117622815D01*
X231264630Y-117622815D01*
X231588980Y-118407800D01*
X232189041Y-119008909D01*
X232973459Y-119334628D01*
X233822815Y-119335370D01*
X234607800Y-119011020D01*
X235208909Y-118410959D01*
X235534628Y-117626541D01*
X235535370Y-116777185D01*
X235211020Y-115992200D01*
X234610959Y-115391091D01*
X233826541Y-115065372D01*
X232977185Y-115064630D01*
X232192200Y-115388980D01*
X231591091Y-115989041D01*
X231265372Y-116773459D01*
X231264630Y-117622815D01*
X223109632Y-117622815D01*
X223110435Y-116702920D01*
X222729115Y-115780057D01*
X222148764Y-115198691D01*
X223590000Y-115198691D01*
X223590000Y-116418250D01*
X223748750Y-116577000D01*
X225477000Y-116577000D01*
X225477000Y-114848750D01*
X226723000Y-114848750D01*
X226723000Y-116577000D01*
X228451250Y-116577000D01*
X228610000Y-116418250D01*
X228610000Y-115198691D01*
X228513327Y-114965302D01*
X228334699Y-114786673D01*
X228101310Y-114690000D01*
X226881750Y-114690000D01*
X226723000Y-114848750D01*
X225477000Y-114848750D01*
X225318250Y-114690000D01*
X224098690Y-114690000D01*
X223865301Y-114786673D01*
X223686673Y-114965302D01*
X223590000Y-115198691D01*
X222148764Y-115198691D01*
X222023657Y-115073366D01*
X221101460Y-114690436D01*
X220102920Y-114689565D01*
X219180057Y-115070885D01*
X218473366Y-115776343D01*
X218430990Y-115878396D01*
X218319217Y-108752880D01*
X218470885Y-109119943D01*
X219176343Y-109826634D01*
X220098540Y-110209564D01*
X221097080Y-110210435D01*
X222019943Y-109829115D01*
X222726634Y-109123657D01*
X222993177Y-108481750D01*
X223590000Y-108481750D01*
X223590000Y-109701309D01*
X223686673Y-109934698D01*
X223865301Y-110113327D01*
X224098690Y-110210000D01*
X225318250Y-110210000D01*
X225477000Y-110051250D01*
X225477000Y-108323000D01*
X226723000Y-108323000D01*
X226723000Y-110051250D01*
X226881750Y-110210000D01*
X228101310Y-110210000D01*
X228334699Y-110113327D01*
X228513327Y-109934698D01*
X228610000Y-109701309D01*
X228610000Y-108481750D01*
X228451250Y-108323000D01*
X226723000Y-108323000D01*
X225477000Y-108323000D01*
X223748750Y-108323000D01*
X223590000Y-108481750D01*
X222993177Y-108481750D01*
X223109564Y-108201460D01*
X223109632Y-108122815D01*
X231264630Y-108122815D01*
X231588980Y-108907800D01*
X232189041Y-109508909D01*
X232973459Y-109834628D01*
X233822815Y-109835370D01*
X234607800Y-109511020D01*
X235208909Y-108910959D01*
X235534628Y-108126541D01*
X235535370Y-107277185D01*
X235211020Y-106492200D01*
X234610959Y-105891091D01*
X233826541Y-105565372D01*
X232977185Y-105564630D01*
X232192200Y-105888980D01*
X231591091Y-106489041D01*
X231265372Y-107273459D01*
X231264630Y-108122815D01*
X223109632Y-108122815D01*
X223110435Y-107202920D01*
X222729115Y-106280057D01*
X222148764Y-105698691D01*
X223590000Y-105698691D01*
X223590000Y-106918250D01*
X223748750Y-107077000D01*
X225477000Y-107077000D01*
X225477000Y-105348750D01*
X226723000Y-105348750D01*
X226723000Y-107077000D01*
X228451250Y-107077000D01*
X228610000Y-106918250D01*
X228610000Y-105698691D01*
X228513327Y-105465302D01*
X228334699Y-105286673D01*
X228101310Y-105190000D01*
X226881750Y-105190000D01*
X226723000Y-105348750D01*
X225477000Y-105348750D01*
X225318250Y-105190000D01*
X224098690Y-105190000D01*
X223865301Y-105286673D01*
X223686673Y-105465302D01*
X223590000Y-105698691D01*
X222148764Y-105698691D01*
X222023657Y-105573366D01*
X221101460Y-105190436D01*
X220102920Y-105189565D01*
X219180057Y-105570885D01*
X218473366Y-106276343D01*
X218287395Y-106724211D01*
X218164317Y-98877993D01*
X218470885Y-99619943D01*
X219176343Y-100326634D01*
X220098540Y-100709564D01*
X221097080Y-100710435D01*
X222019943Y-100329115D01*
X222726634Y-99623657D01*
X222993177Y-98981750D01*
X223590000Y-98981750D01*
X223590000Y-100201309D01*
X223686673Y-100434698D01*
X223865301Y-100613327D01*
X224098690Y-100710000D01*
X225318250Y-100710000D01*
X225477000Y-100551250D01*
X225477000Y-98823000D01*
X226723000Y-98823000D01*
X226723000Y-100551250D01*
X226881750Y-100710000D01*
X228101310Y-100710000D01*
X228334699Y-100613327D01*
X228513327Y-100434698D01*
X228610000Y-100201309D01*
X228610000Y-98981750D01*
X228451250Y-98823000D01*
X226723000Y-98823000D01*
X225477000Y-98823000D01*
X223748750Y-98823000D01*
X223590000Y-98981750D01*
X222993177Y-98981750D01*
X223109564Y-98701460D01*
X223109632Y-98622815D01*
X231264630Y-98622815D01*
X231588980Y-99407800D01*
X232189041Y-100008909D01*
X232973459Y-100334628D01*
X233822815Y-100335370D01*
X234607800Y-100011020D01*
X235208909Y-99410959D01*
X235534628Y-98626541D01*
X235535370Y-97777185D01*
X235211020Y-96992200D01*
X234610959Y-96391091D01*
X233826541Y-96065372D01*
X232977185Y-96064630D01*
X232192200Y-96388980D01*
X231591091Y-96989041D01*
X231265372Y-97773459D01*
X231264630Y-98622815D01*
X223109632Y-98622815D01*
X223110435Y-97702920D01*
X222729115Y-96780057D01*
X222148764Y-96198691D01*
X223590000Y-96198691D01*
X223590000Y-97418250D01*
X223748750Y-97577000D01*
X225477000Y-97577000D01*
X225477000Y-95848750D01*
X226723000Y-95848750D01*
X226723000Y-97577000D01*
X228451250Y-97577000D01*
X228610000Y-97418250D01*
X228610000Y-96198691D01*
X228513327Y-95965302D01*
X228334699Y-95786673D01*
X228101310Y-95690000D01*
X226881750Y-95690000D01*
X226723000Y-95848750D01*
X225477000Y-95848750D01*
X225318250Y-95690000D01*
X224098690Y-95690000D01*
X223865301Y-95786673D01*
X223686673Y-95965302D01*
X223590000Y-96198691D01*
X222148764Y-96198691D01*
X222023657Y-96073366D01*
X221101460Y-95690436D01*
X220102920Y-95689565D01*
X219180057Y-96070885D01*
X218473366Y-96776343D01*
X218143800Y-97570025D01*
X218126984Y-96498008D01*
X218116205Y-96448761D01*
X218087115Y-96407588D01*
X218044298Y-96380976D01*
X218000000Y-96373000D01*
X202127000Y-96373000D01*
X202127000Y-95616761D01*
X203864294Y-95616761D01*
X204062402Y-95875127D01*
X204912665Y-95999434D01*
X205537598Y-95875127D01*
X205735706Y-95616761D01*
X204800000Y-94681055D01*
X203864294Y-95616761D01*
X202127000Y-95616761D01*
X202127000Y-93912665D01*
X202600566Y-93912665D01*
X202724873Y-94537598D01*
X202983239Y-94735706D01*
X203918945Y-93800000D01*
X205681055Y-93800000D01*
X206616761Y-94735706D01*
X206875127Y-94537598D01*
X206999434Y-93687335D01*
X206875127Y-93062402D01*
X206616761Y-92864294D01*
X205681055Y-93800000D01*
X203918945Y-93800000D01*
X202983239Y-92864294D01*
X202724873Y-93062402D01*
X202600566Y-93912665D01*
X202127000Y-93912665D01*
X202127000Y-91983239D01*
X203864294Y-91983239D01*
X204800000Y-92918945D01*
X205735706Y-91983239D01*
X205537598Y-91724873D01*
X204687335Y-91600566D01*
X204062402Y-91724873D01*
X203864294Y-91983239D01*
X202127000Y-91983239D01*
X202127000Y-89200000D01*
X202116994Y-89150590D01*
X202088553Y-89108965D01*
X202046159Y-89081685D01*
X202000000Y-89073000D01*
X195826069Y-89073000D01*
X196526634Y-88373657D01*
X196909564Y-87451460D01*
X196909567Y-87447080D01*
X201389565Y-87447080D01*
X201770885Y-88369943D01*
X202476343Y-89076634D01*
X203398540Y-89459564D01*
X204397080Y-89460435D01*
X205319943Y-89079115D01*
X206026634Y-88373657D01*
X206409564Y-87451460D01*
X206409567Y-87447080D01*
X210889565Y-87447080D01*
X211270885Y-88369943D01*
X211976343Y-89076634D01*
X212898540Y-89459564D01*
X213897080Y-89460435D01*
X214413437Y-89247080D01*
X218089565Y-89247080D01*
X218470885Y-90169943D01*
X219176343Y-90876634D01*
X220098540Y-91259564D01*
X221097080Y-91260435D01*
X222019943Y-90879115D01*
X222726634Y-90173657D01*
X222993177Y-89531750D01*
X223590000Y-89531750D01*
X223590000Y-90751309D01*
X223686673Y-90984698D01*
X223865301Y-91163327D01*
X224098690Y-91260000D01*
X225318250Y-91260000D01*
X225477000Y-91101250D01*
X225477000Y-89373000D01*
X226723000Y-89373000D01*
X226723000Y-91101250D01*
X226881750Y-91260000D01*
X228101310Y-91260000D01*
X228334699Y-91163327D01*
X228513327Y-90984698D01*
X228610000Y-90751309D01*
X228610000Y-89531750D01*
X228451250Y-89373000D01*
X226723000Y-89373000D01*
X225477000Y-89373000D01*
X223748750Y-89373000D01*
X223590000Y-89531750D01*
X222993177Y-89531750D01*
X223109564Y-89251460D01*
X223109632Y-89172815D01*
X231264630Y-89172815D01*
X231588980Y-89957800D01*
X232189041Y-90558909D01*
X232973459Y-90884628D01*
X233822815Y-90885370D01*
X234607800Y-90561020D01*
X235208909Y-89960959D01*
X235534628Y-89176541D01*
X235535370Y-88327185D01*
X235211020Y-87542200D01*
X234610959Y-86941091D01*
X233826541Y-86615372D01*
X232977185Y-86614630D01*
X232192200Y-86938980D01*
X231591091Y-87539041D01*
X231265372Y-88323459D01*
X231264630Y-89172815D01*
X223109632Y-89172815D01*
X223110435Y-88252920D01*
X222729115Y-87330057D01*
X222148764Y-86748691D01*
X223590000Y-86748691D01*
X223590000Y-87968250D01*
X223748750Y-88127000D01*
X225477000Y-88127000D01*
X225477000Y-86398750D01*
X226723000Y-86398750D01*
X226723000Y-88127000D01*
X228451250Y-88127000D01*
X228610000Y-87968250D01*
X228610000Y-86748691D01*
X228513327Y-86515302D01*
X228334699Y-86336673D01*
X228101310Y-86240000D01*
X226881750Y-86240000D01*
X226723000Y-86398750D01*
X225477000Y-86398750D01*
X225318250Y-86240000D01*
X224098690Y-86240000D01*
X223865301Y-86336673D01*
X223686673Y-86515302D01*
X223590000Y-86748691D01*
X222148764Y-86748691D01*
X222023657Y-86623366D01*
X221101460Y-86240436D01*
X220102920Y-86239565D01*
X219180057Y-86620885D01*
X218473366Y-87326343D01*
X218090436Y-88248540D01*
X218089565Y-89247080D01*
X214413437Y-89247080D01*
X214819943Y-89079115D01*
X215526634Y-88373657D01*
X215909564Y-87451460D01*
X215910435Y-86452920D01*
X215529115Y-85530057D01*
X214823657Y-84823366D01*
X213901460Y-84440436D01*
X212902920Y-84439565D01*
X211980057Y-84820885D01*
X211273366Y-85526343D01*
X210890436Y-86448540D01*
X210889565Y-87447080D01*
X206409567Y-87447080D01*
X206410435Y-86452920D01*
X206029115Y-85530057D01*
X205323657Y-84823366D01*
X204401460Y-84440436D01*
X203402920Y-84439565D01*
X202480057Y-84820885D01*
X201773366Y-85526343D01*
X201390436Y-86448540D01*
X201389565Y-87447080D01*
X196909567Y-87447080D01*
X196910435Y-86452920D01*
X196529115Y-85530057D01*
X195823657Y-84823366D01*
X194901460Y-84440436D01*
X193902920Y-84439565D01*
X192980057Y-84820885D01*
X192273366Y-85526343D01*
X191890436Y-86448540D01*
X191889565Y-87447080D01*
X192270885Y-88369943D01*
X192972715Y-89073000D01*
X190060000Y-89073000D01*
X190060000Y-83600000D01*
X190002148Y-83309161D01*
X189876769Y-83121518D01*
X189869416Y-82231750D01*
X191890000Y-82231750D01*
X191890000Y-83451310D01*
X191986673Y-83684699D01*
X192165302Y-83863327D01*
X192398691Y-83960000D01*
X193618250Y-83960000D01*
X193777000Y-83801250D01*
X193777000Y-82073000D01*
X195023000Y-82073000D01*
X195023000Y-83801250D01*
X195181750Y-83960000D01*
X196401309Y-83960000D01*
X196634698Y-83863327D01*
X196813327Y-83684699D01*
X196910000Y-83451310D01*
X196910000Y-82231750D01*
X201390000Y-82231750D01*
X201390000Y-83451310D01*
X201486673Y-83684699D01*
X201665302Y-83863327D01*
X201898691Y-83960000D01*
X203118250Y-83960000D01*
X203277000Y-83801250D01*
X203277000Y-82073000D01*
X204523000Y-82073000D01*
X204523000Y-83801250D01*
X204681750Y-83960000D01*
X205901309Y-83960000D01*
X206134698Y-83863327D01*
X206313327Y-83684699D01*
X206410000Y-83451310D01*
X206410000Y-82231750D01*
X210890000Y-82231750D01*
X210890000Y-83451310D01*
X210986673Y-83684699D01*
X211165302Y-83863327D01*
X211398691Y-83960000D01*
X212618250Y-83960000D01*
X212777000Y-83801250D01*
X212777000Y-82073000D01*
X214023000Y-82073000D01*
X214023000Y-83801250D01*
X214181750Y-83960000D01*
X215401309Y-83960000D01*
X215634698Y-83863327D01*
X215813327Y-83684699D01*
X215910000Y-83451310D01*
X215910000Y-82231750D01*
X215751250Y-82073000D01*
X214023000Y-82073000D01*
X212777000Y-82073000D01*
X211048750Y-82073000D01*
X210890000Y-82231750D01*
X206410000Y-82231750D01*
X206251250Y-82073000D01*
X204523000Y-82073000D01*
X203277000Y-82073000D01*
X201548750Y-82073000D01*
X201390000Y-82231750D01*
X196910000Y-82231750D01*
X196751250Y-82073000D01*
X195023000Y-82073000D01*
X193777000Y-82073000D01*
X192048750Y-82073000D01*
X191890000Y-82231750D01*
X189869416Y-82231750D01*
X189846416Y-79448690D01*
X191890000Y-79448690D01*
X191890000Y-80668250D01*
X192048750Y-80827000D01*
X193777000Y-80827000D01*
X193777000Y-79098750D01*
X195023000Y-79098750D01*
X195023000Y-80827000D01*
X196751250Y-80827000D01*
X196910000Y-80668250D01*
X196910000Y-79448690D01*
X201390000Y-79448690D01*
X201390000Y-80668250D01*
X201548750Y-80827000D01*
X203277000Y-80827000D01*
X203277000Y-79098750D01*
X204523000Y-79098750D01*
X204523000Y-80827000D01*
X206251250Y-80827000D01*
X206410000Y-80668250D01*
X206410000Y-79448690D01*
X210890000Y-79448690D01*
X210890000Y-80668250D01*
X211048750Y-80827000D01*
X212777000Y-80827000D01*
X212777000Y-79098750D01*
X214023000Y-79098750D01*
X214023000Y-80827000D01*
X215751250Y-80827000D01*
X215910000Y-80668250D01*
X215910000Y-79747080D01*
X218089565Y-79747080D01*
X218470885Y-80669943D01*
X219176343Y-81376634D01*
X220098540Y-81759564D01*
X221097080Y-81760435D01*
X222019943Y-81379115D01*
X222726634Y-80673657D01*
X222993177Y-80031750D01*
X223590000Y-80031750D01*
X223590000Y-81251309D01*
X223686673Y-81484698D01*
X223865301Y-81663327D01*
X224098690Y-81760000D01*
X225318250Y-81760000D01*
X225477000Y-81601250D01*
X225477000Y-79873000D01*
X226723000Y-79873000D01*
X226723000Y-81601250D01*
X226881750Y-81760000D01*
X228101310Y-81760000D01*
X228334699Y-81663327D01*
X228513327Y-81484698D01*
X228610000Y-81251309D01*
X228610000Y-80031750D01*
X228451250Y-79873000D01*
X226723000Y-79873000D01*
X225477000Y-79873000D01*
X223748750Y-79873000D01*
X223590000Y-80031750D01*
X222993177Y-80031750D01*
X223109564Y-79751460D01*
X223109632Y-79672815D01*
X231264630Y-79672815D01*
X231588980Y-80457800D01*
X232189041Y-81058909D01*
X232973459Y-81384628D01*
X233822815Y-81385370D01*
X234607800Y-81061020D01*
X235208909Y-80460959D01*
X235534628Y-79676541D01*
X235535370Y-78827185D01*
X235211020Y-78042200D01*
X234610959Y-77441091D01*
X233826541Y-77115372D01*
X232977185Y-77114630D01*
X232192200Y-77438980D01*
X231591091Y-78039041D01*
X231265372Y-78823459D01*
X231264630Y-79672815D01*
X223109632Y-79672815D01*
X223110435Y-78752920D01*
X222729115Y-77830057D01*
X222148764Y-77248691D01*
X223590000Y-77248691D01*
X223590000Y-78468250D01*
X223748750Y-78627000D01*
X225477000Y-78627000D01*
X225477000Y-76898750D01*
X226723000Y-76898750D01*
X226723000Y-78627000D01*
X228451250Y-78627000D01*
X228610000Y-78468250D01*
X228610000Y-77248691D01*
X228513327Y-77015302D01*
X228334699Y-76836673D01*
X228101310Y-76740000D01*
X226881750Y-76740000D01*
X226723000Y-76898750D01*
X225477000Y-76898750D01*
X225318250Y-76740000D01*
X224098690Y-76740000D01*
X223865301Y-76836673D01*
X223686673Y-77015302D01*
X223590000Y-77248691D01*
X222148764Y-77248691D01*
X222023657Y-77123366D01*
X221101460Y-76740436D01*
X220102920Y-76739565D01*
X219180057Y-77120885D01*
X218473366Y-77826343D01*
X218090436Y-78748540D01*
X218089565Y-79747080D01*
X215910000Y-79747080D01*
X215910000Y-79448690D01*
X215813327Y-79215301D01*
X215634698Y-79036673D01*
X215401309Y-78940000D01*
X214181750Y-78940000D01*
X214023000Y-79098750D01*
X212777000Y-79098750D01*
X212618250Y-78940000D01*
X211398691Y-78940000D01*
X211165302Y-79036673D01*
X210986673Y-79215301D01*
X210890000Y-79448690D01*
X206410000Y-79448690D01*
X206313327Y-79215301D01*
X206134698Y-79036673D01*
X205901309Y-78940000D01*
X204681750Y-78940000D01*
X204523000Y-79098750D01*
X203277000Y-79098750D01*
X203118250Y-78940000D01*
X201898691Y-78940000D01*
X201665302Y-79036673D01*
X201486673Y-79215301D01*
X201390000Y-79448690D01*
X196910000Y-79448690D01*
X196813327Y-79215301D01*
X196634698Y-79036673D01*
X196401309Y-78940000D01*
X195181750Y-78940000D01*
X195023000Y-79098750D01*
X193777000Y-79098750D01*
X193618250Y-78940000D01*
X192398691Y-78940000D01*
X192165302Y-79036673D01*
X191986673Y-79215301D01*
X191890000Y-79448690D01*
X189846416Y-79448690D01*
X189806120Y-74572815D01*
X192264630Y-74572815D01*
X192588980Y-75357800D01*
X193189041Y-75958909D01*
X193973459Y-76284628D01*
X194822815Y-76285370D01*
X195607800Y-75961020D01*
X196208909Y-75360959D01*
X196534628Y-74576541D01*
X196534631Y-74572815D01*
X201764630Y-74572815D01*
X202088980Y-75357800D01*
X202689041Y-75958909D01*
X203473459Y-76284628D01*
X204322815Y-76285370D01*
X205107800Y-75961020D01*
X205708909Y-75360959D01*
X206034628Y-74576541D01*
X206034631Y-74572815D01*
X211264630Y-74572815D01*
X211588980Y-75357800D01*
X212189041Y-75958909D01*
X212973459Y-76284628D01*
X213822815Y-76285370D01*
X214607800Y-75961020D01*
X215208909Y-75360959D01*
X215534628Y-74576541D01*
X215535370Y-73727185D01*
X215211020Y-72942200D01*
X214610959Y-72341091D01*
X213826541Y-72015372D01*
X212977185Y-72014630D01*
X212192200Y-72338980D01*
X211591091Y-72939041D01*
X211265372Y-73723459D01*
X211264630Y-74572815D01*
X206034631Y-74572815D01*
X206035370Y-73727185D01*
X205711020Y-72942200D01*
X205110959Y-72341091D01*
X204326541Y-72015372D01*
X203477185Y-72014630D01*
X202692200Y-72338980D01*
X202091091Y-72939041D01*
X201765372Y-73723459D01*
X201764630Y-74572815D01*
X196534631Y-74572815D01*
X196535370Y-73727185D01*
X196211020Y-72942200D01*
X195610959Y-72341091D01*
X194826541Y-72015372D01*
X193977185Y-72014630D01*
X193192200Y-72338980D01*
X192591091Y-72939041D01*
X192265372Y-73723459D01*
X192264630Y-74572815D01*
X189806120Y-74572815D01*
X189770370Y-70247080D01*
X218089565Y-70247080D01*
X218470885Y-71169943D01*
X219176343Y-71876634D01*
X220098540Y-72259564D01*
X221097080Y-72260435D01*
X222019943Y-71879115D01*
X222726634Y-71173657D01*
X222993177Y-70531750D01*
X223590000Y-70531750D01*
X223590000Y-71751309D01*
X223686673Y-71984698D01*
X223865301Y-72163327D01*
X224098690Y-72260000D01*
X225318250Y-72260000D01*
X225477000Y-72101250D01*
X225477000Y-70373000D01*
X226723000Y-70373000D01*
X226723000Y-72101250D01*
X226881750Y-72260000D01*
X228101310Y-72260000D01*
X228334699Y-72163327D01*
X228513327Y-71984698D01*
X228610000Y-71751309D01*
X228610000Y-70531750D01*
X228451250Y-70373000D01*
X226723000Y-70373000D01*
X225477000Y-70373000D01*
X223748750Y-70373000D01*
X223590000Y-70531750D01*
X222993177Y-70531750D01*
X223109564Y-70251460D01*
X223109632Y-70172815D01*
X231264630Y-70172815D01*
X231588980Y-70957800D01*
X232189041Y-71558909D01*
X232973459Y-71884628D01*
X233822815Y-71885370D01*
X234607800Y-71561020D01*
X235208909Y-70960959D01*
X235534628Y-70176541D01*
X235535370Y-69327185D01*
X235211020Y-68542200D01*
X234610959Y-67941091D01*
X233826541Y-67615372D01*
X232977185Y-67614630D01*
X232192200Y-67938980D01*
X231591091Y-68539041D01*
X231265372Y-69323459D01*
X231264630Y-70172815D01*
X223109632Y-70172815D01*
X223110435Y-69252920D01*
X222729115Y-68330057D01*
X222148764Y-67748691D01*
X223590000Y-67748691D01*
X223590000Y-68968250D01*
X223748750Y-69127000D01*
X225477000Y-69127000D01*
X225477000Y-67398750D01*
X226723000Y-67398750D01*
X226723000Y-69127000D01*
X228451250Y-69127000D01*
X228610000Y-68968250D01*
X228610000Y-67748691D01*
X228513327Y-67515302D01*
X228334699Y-67336673D01*
X228101310Y-67240000D01*
X226881750Y-67240000D01*
X226723000Y-67398750D01*
X225477000Y-67398750D01*
X225318250Y-67240000D01*
X224098690Y-67240000D01*
X223865301Y-67336673D01*
X223686673Y-67515302D01*
X223590000Y-67748691D01*
X222148764Y-67748691D01*
X222023657Y-67623366D01*
X221101460Y-67240436D01*
X220102920Y-67239565D01*
X219180057Y-67620885D01*
X218473366Y-68326343D01*
X218090436Y-69248540D01*
X218089565Y-70247080D01*
X189770370Y-70247080D01*
X189731219Y-65510000D01*
X242090000Y-65510000D01*
X242090000Y-121490000D01*
X242090000Y-121490000D01*
G37*
X242090000Y-121490000D02*
X218519015Y-121490000D01*
X218474044Y-118623108D01*
X219176343Y-119326634D01*
X220098540Y-119709564D01*
X221097080Y-119710435D01*
X222019943Y-119329115D01*
X222726634Y-118623657D01*
X222993177Y-117981750D01*
X223590000Y-117981750D01*
X223590000Y-119201309D01*
X223686673Y-119434698D01*
X223865301Y-119613327D01*
X224098690Y-119710000D01*
X225318250Y-119710000D01*
X225477000Y-119551250D01*
X225477000Y-117823000D01*
X226723000Y-117823000D01*
X226723000Y-119551250D01*
X226881750Y-119710000D01*
X228101310Y-119710000D01*
X228334699Y-119613327D01*
X228513327Y-119434698D01*
X228610000Y-119201309D01*
X228610000Y-117981750D01*
X228451250Y-117823000D01*
X226723000Y-117823000D01*
X225477000Y-117823000D01*
X223748750Y-117823000D01*
X223590000Y-117981750D01*
X222993177Y-117981750D01*
X223109564Y-117701460D01*
X223109632Y-117622815D01*
X231264630Y-117622815D01*
X231588980Y-118407800D01*
X232189041Y-119008909D01*
X232973459Y-119334628D01*
X233822815Y-119335370D01*
X234607800Y-119011020D01*
X235208909Y-118410959D01*
X235534628Y-117626541D01*
X235535370Y-116777185D01*
X235211020Y-115992200D01*
X234610959Y-115391091D01*
X233826541Y-115065372D01*
X232977185Y-115064630D01*
X232192200Y-115388980D01*
X231591091Y-115989041D01*
X231265372Y-116773459D01*
X231264630Y-117622815D01*
X223109632Y-117622815D01*
X223110435Y-116702920D01*
X222729115Y-115780057D01*
X222148764Y-115198691D01*
X223590000Y-115198691D01*
X223590000Y-116418250D01*
X223748750Y-116577000D01*
X225477000Y-116577000D01*
X225477000Y-114848750D01*
X226723000Y-114848750D01*
X226723000Y-116577000D01*
X228451250Y-116577000D01*
X228610000Y-116418250D01*
X228610000Y-115198691D01*
X228513327Y-114965302D01*
X228334699Y-114786673D01*
X228101310Y-114690000D01*
X226881750Y-114690000D01*
X226723000Y-114848750D01*
X225477000Y-114848750D01*
X225318250Y-114690000D01*
X224098690Y-114690000D01*
X223865301Y-114786673D01*
X223686673Y-114965302D01*
X223590000Y-115198691D01*
X222148764Y-115198691D01*
X222023657Y-115073366D01*
X221101460Y-114690436D01*
X220102920Y-114689565D01*
X219180057Y-115070885D01*
X218473366Y-115776343D01*
X218430990Y-115878396D01*
X218319217Y-108752880D01*
X218470885Y-109119943D01*
X219176343Y-109826634D01*
X220098540Y-110209564D01*
X221097080Y-110210435D01*
X222019943Y-109829115D01*
X222726634Y-109123657D01*
X222993177Y-108481750D01*
X223590000Y-108481750D01*
X223590000Y-109701309D01*
X223686673Y-109934698D01*
X223865301Y-110113327D01*
X224098690Y-110210000D01*
X225318250Y-110210000D01*
X225477000Y-110051250D01*
X225477000Y-108323000D01*
X226723000Y-108323000D01*
X226723000Y-110051250D01*
X226881750Y-110210000D01*
X228101310Y-110210000D01*
X228334699Y-110113327D01*
X228513327Y-109934698D01*
X228610000Y-109701309D01*
X228610000Y-108481750D01*
X228451250Y-108323000D01*
X226723000Y-108323000D01*
X225477000Y-108323000D01*
X223748750Y-108323000D01*
X223590000Y-108481750D01*
X222993177Y-108481750D01*
X223109564Y-108201460D01*
X223109632Y-108122815D01*
X231264630Y-108122815D01*
X231588980Y-108907800D01*
X232189041Y-109508909D01*
X232973459Y-109834628D01*
X233822815Y-109835370D01*
X234607800Y-109511020D01*
X235208909Y-108910959D01*
X235534628Y-108126541D01*
X235535370Y-107277185D01*
X235211020Y-106492200D01*
X234610959Y-105891091D01*
X233826541Y-105565372D01*
X232977185Y-105564630D01*
X232192200Y-105888980D01*
X231591091Y-106489041D01*
X231265372Y-107273459D01*
X231264630Y-108122815D01*
X223109632Y-108122815D01*
X223110435Y-107202920D01*
X222729115Y-106280057D01*
X222148764Y-105698691D01*
X223590000Y-105698691D01*
X223590000Y-106918250D01*
X223748750Y-107077000D01*
X225477000Y-107077000D01*
X225477000Y-105348750D01*
X226723000Y-105348750D01*
X226723000Y-107077000D01*
X228451250Y-107077000D01*
X228610000Y-106918250D01*
X228610000Y-105698691D01*
X228513327Y-105465302D01*
X228334699Y-105286673D01*
X228101310Y-105190000D01*
X226881750Y-105190000D01*
X226723000Y-105348750D01*
X225477000Y-105348750D01*
X225318250Y-105190000D01*
X224098690Y-105190000D01*
X223865301Y-105286673D01*
X223686673Y-105465302D01*
X223590000Y-105698691D01*
X222148764Y-105698691D01*
X222023657Y-105573366D01*
X221101460Y-105190436D01*
X220102920Y-105189565D01*
X219180057Y-105570885D01*
X218473366Y-106276343D01*
X218287395Y-106724211D01*
X218164317Y-98877993D01*
X218470885Y-99619943D01*
X219176343Y-100326634D01*
X220098540Y-100709564D01*
X221097080Y-100710435D01*
X222019943Y-100329115D01*
X222726634Y-99623657D01*
X222993177Y-98981750D01*
X223590000Y-98981750D01*
X223590000Y-100201309D01*
X223686673Y-100434698D01*
X223865301Y-100613327D01*
X224098690Y-100710000D01*
X225318250Y-100710000D01*
X225477000Y-100551250D01*
X225477000Y-98823000D01*
X226723000Y-98823000D01*
X226723000Y-100551250D01*
X226881750Y-100710000D01*
X228101310Y-100710000D01*
X228334699Y-100613327D01*
X228513327Y-100434698D01*
X228610000Y-100201309D01*
X228610000Y-98981750D01*
X228451250Y-98823000D01*
X226723000Y-98823000D01*
X225477000Y-98823000D01*
X223748750Y-98823000D01*
X223590000Y-98981750D01*
X222993177Y-98981750D01*
X223109564Y-98701460D01*
X223109632Y-98622815D01*
X231264630Y-98622815D01*
X231588980Y-99407800D01*
X232189041Y-100008909D01*
X232973459Y-100334628D01*
X233822815Y-100335370D01*
X234607800Y-100011020D01*
X235208909Y-99410959D01*
X235534628Y-98626541D01*
X235535370Y-97777185D01*
X235211020Y-96992200D01*
X234610959Y-96391091D01*
X233826541Y-96065372D01*
X232977185Y-96064630D01*
X232192200Y-96388980D01*
X231591091Y-96989041D01*
X231265372Y-97773459D01*
X231264630Y-98622815D01*
X223109632Y-98622815D01*
X223110435Y-97702920D01*
X222729115Y-96780057D01*
X222148764Y-96198691D01*
X223590000Y-96198691D01*
X223590000Y-97418250D01*
X223748750Y-97577000D01*
X225477000Y-97577000D01*
X225477000Y-95848750D01*
X226723000Y-95848750D01*
X226723000Y-97577000D01*
X228451250Y-97577000D01*
X228610000Y-97418250D01*
X228610000Y-96198691D01*
X228513327Y-95965302D01*
X228334699Y-95786673D01*
X228101310Y-95690000D01*
X226881750Y-95690000D01*
X226723000Y-95848750D01*
X225477000Y-95848750D01*
X225318250Y-95690000D01*
X224098690Y-95690000D01*
X223865301Y-95786673D01*
X223686673Y-95965302D01*
X223590000Y-96198691D01*
X222148764Y-96198691D01*
X222023657Y-96073366D01*
X221101460Y-95690436D01*
X220102920Y-95689565D01*
X219180057Y-96070885D01*
X218473366Y-96776343D01*
X218143800Y-97570025D01*
X218126984Y-96498008D01*
X218116205Y-96448761D01*
X218087115Y-96407588D01*
X218044298Y-96380976D01*
X218000000Y-96373000D01*
X202127000Y-96373000D01*
X202127000Y-95616761D01*
X203864294Y-95616761D01*
X204062402Y-95875127D01*
X204912665Y-95999434D01*
X205537598Y-95875127D01*
X205735706Y-95616761D01*
X204800000Y-94681055D01*
X203864294Y-95616761D01*
X202127000Y-95616761D01*
X202127000Y-93912665D01*
X202600566Y-93912665D01*
X202724873Y-94537598D01*
X202983239Y-94735706D01*
X203918945Y-93800000D01*
X205681055Y-93800000D01*
X206616761Y-94735706D01*
X206875127Y-94537598D01*
X206999434Y-93687335D01*
X206875127Y-93062402D01*
X206616761Y-92864294D01*
X205681055Y-93800000D01*
X203918945Y-93800000D01*
X202983239Y-92864294D01*
X202724873Y-93062402D01*
X202600566Y-93912665D01*
X202127000Y-93912665D01*
X202127000Y-91983239D01*
X203864294Y-91983239D01*
X204800000Y-92918945D01*
X205735706Y-91983239D01*
X205537598Y-91724873D01*
X204687335Y-91600566D01*
X204062402Y-91724873D01*
X203864294Y-91983239D01*
X202127000Y-91983239D01*
X202127000Y-89200000D01*
X202116994Y-89150590D01*
X202088553Y-89108965D01*
X202046159Y-89081685D01*
X202000000Y-89073000D01*
X195826069Y-89073000D01*
X196526634Y-88373657D01*
X196909564Y-87451460D01*
X196909567Y-87447080D01*
X201389565Y-87447080D01*
X201770885Y-88369943D01*
X202476343Y-89076634D01*
X203398540Y-89459564D01*
X204397080Y-89460435D01*
X205319943Y-89079115D01*
X206026634Y-88373657D01*
X206409564Y-87451460D01*
X206409567Y-87447080D01*
X210889565Y-87447080D01*
X211270885Y-88369943D01*
X211976343Y-89076634D01*
X212898540Y-89459564D01*
X213897080Y-89460435D01*
X214413437Y-89247080D01*
X218089565Y-89247080D01*
X218470885Y-90169943D01*
X219176343Y-90876634D01*
X220098540Y-91259564D01*
X221097080Y-91260435D01*
X222019943Y-90879115D01*
X222726634Y-90173657D01*
X222993177Y-89531750D01*
X223590000Y-89531750D01*
X223590000Y-90751309D01*
X223686673Y-90984698D01*
X223865301Y-91163327D01*
X224098690Y-91260000D01*
X225318250Y-91260000D01*
X225477000Y-91101250D01*
X225477000Y-89373000D01*
X226723000Y-89373000D01*
X226723000Y-91101250D01*
X226881750Y-91260000D01*
X228101310Y-91260000D01*
X228334699Y-91163327D01*
X228513327Y-90984698D01*
X228610000Y-90751309D01*
X228610000Y-89531750D01*
X228451250Y-89373000D01*
X226723000Y-89373000D01*
X225477000Y-89373000D01*
X223748750Y-89373000D01*
X223590000Y-89531750D01*
X222993177Y-89531750D01*
X223109564Y-89251460D01*
X223109632Y-89172815D01*
X231264630Y-89172815D01*
X231588980Y-89957800D01*
X232189041Y-90558909D01*
X232973459Y-90884628D01*
X233822815Y-90885370D01*
X234607800Y-90561020D01*
X235208909Y-89960959D01*
X235534628Y-89176541D01*
X235535370Y-88327185D01*
X235211020Y-87542200D01*
X234610959Y-86941091D01*
X233826541Y-86615372D01*
X232977185Y-86614630D01*
X232192200Y-86938980D01*
X231591091Y-87539041D01*
X231265372Y-88323459D01*
X231264630Y-89172815D01*
X223109632Y-89172815D01*
X223110435Y-88252920D01*
X222729115Y-87330057D01*
X222148764Y-86748691D01*
X223590000Y-86748691D01*
X223590000Y-87968250D01*
X223748750Y-88127000D01*
X225477000Y-88127000D01*
X225477000Y-86398750D01*
X226723000Y-86398750D01*
X226723000Y-88127000D01*
X228451250Y-88127000D01*
X228610000Y-87968250D01*
X228610000Y-86748691D01*
X228513327Y-86515302D01*
X228334699Y-86336673D01*
X228101310Y-86240000D01*
X226881750Y-86240000D01*
X226723000Y-86398750D01*
X225477000Y-86398750D01*
X225318250Y-86240000D01*
X224098690Y-86240000D01*
X223865301Y-86336673D01*
X223686673Y-86515302D01*
X223590000Y-86748691D01*
X222148764Y-86748691D01*
X222023657Y-86623366D01*
X221101460Y-86240436D01*
X220102920Y-86239565D01*
X219180057Y-86620885D01*
X218473366Y-87326343D01*
X218090436Y-88248540D01*
X218089565Y-89247080D01*
X214413437Y-89247080D01*
X214819943Y-89079115D01*
X215526634Y-88373657D01*
X215909564Y-87451460D01*
X215910435Y-86452920D01*
X215529115Y-85530057D01*
X214823657Y-84823366D01*
X213901460Y-84440436D01*
X212902920Y-84439565D01*
X211980057Y-84820885D01*
X211273366Y-85526343D01*
X210890436Y-86448540D01*
X210889565Y-87447080D01*
X206409567Y-87447080D01*
X206410435Y-86452920D01*
X206029115Y-85530057D01*
X205323657Y-84823366D01*
X204401460Y-84440436D01*
X203402920Y-84439565D01*
X202480057Y-84820885D01*
X201773366Y-85526343D01*
X201390436Y-86448540D01*
X201389565Y-87447080D01*
X196909567Y-87447080D01*
X196910435Y-86452920D01*
X196529115Y-85530057D01*
X195823657Y-84823366D01*
X194901460Y-84440436D01*
X193902920Y-84439565D01*
X192980057Y-84820885D01*
X192273366Y-85526343D01*
X191890436Y-86448540D01*
X191889565Y-87447080D01*
X192270885Y-88369943D01*
X192972715Y-89073000D01*
X190060000Y-89073000D01*
X190060000Y-83600000D01*
X190002148Y-83309161D01*
X189876769Y-83121518D01*
X189869416Y-82231750D01*
X191890000Y-82231750D01*
X191890000Y-83451310D01*
X191986673Y-83684699D01*
X192165302Y-83863327D01*
X192398691Y-83960000D01*
X193618250Y-83960000D01*
X193777000Y-83801250D01*
X193777000Y-82073000D01*
X195023000Y-82073000D01*
X195023000Y-83801250D01*
X195181750Y-83960000D01*
X196401309Y-83960000D01*
X196634698Y-83863327D01*
X196813327Y-83684699D01*
X196910000Y-83451310D01*
X196910000Y-82231750D01*
X201390000Y-82231750D01*
X201390000Y-83451310D01*
X201486673Y-83684699D01*
X201665302Y-83863327D01*
X201898691Y-83960000D01*
X203118250Y-83960000D01*
X203277000Y-83801250D01*
X203277000Y-82073000D01*
X204523000Y-82073000D01*
X204523000Y-83801250D01*
X204681750Y-83960000D01*
X205901309Y-83960000D01*
X206134698Y-83863327D01*
X206313327Y-83684699D01*
X206410000Y-83451310D01*
X206410000Y-82231750D01*
X210890000Y-82231750D01*
X210890000Y-83451310D01*
X210986673Y-83684699D01*
X211165302Y-83863327D01*
X211398691Y-83960000D01*
X212618250Y-83960000D01*
X212777000Y-83801250D01*
X212777000Y-82073000D01*
X214023000Y-82073000D01*
X214023000Y-83801250D01*
X214181750Y-83960000D01*
X215401309Y-83960000D01*
X215634698Y-83863327D01*
X215813327Y-83684699D01*
X215910000Y-83451310D01*
X215910000Y-82231750D01*
X215751250Y-82073000D01*
X214023000Y-82073000D01*
X212777000Y-82073000D01*
X211048750Y-82073000D01*
X210890000Y-82231750D01*
X206410000Y-82231750D01*
X206251250Y-82073000D01*
X204523000Y-82073000D01*
X203277000Y-82073000D01*
X201548750Y-82073000D01*
X201390000Y-82231750D01*
X196910000Y-82231750D01*
X196751250Y-82073000D01*
X195023000Y-82073000D01*
X193777000Y-82073000D01*
X192048750Y-82073000D01*
X191890000Y-82231750D01*
X189869416Y-82231750D01*
X189846416Y-79448690D01*
X191890000Y-79448690D01*
X191890000Y-80668250D01*
X192048750Y-80827000D01*
X193777000Y-80827000D01*
X193777000Y-79098750D01*
X195023000Y-79098750D01*
X195023000Y-80827000D01*
X196751250Y-80827000D01*
X196910000Y-80668250D01*
X196910000Y-79448690D01*
X201390000Y-79448690D01*
X201390000Y-80668250D01*
X201548750Y-80827000D01*
X203277000Y-80827000D01*
X203277000Y-79098750D01*
X204523000Y-79098750D01*
X204523000Y-80827000D01*
X206251250Y-80827000D01*
X206410000Y-80668250D01*
X206410000Y-79448690D01*
X210890000Y-79448690D01*
X210890000Y-80668250D01*
X211048750Y-80827000D01*
X212777000Y-80827000D01*
X212777000Y-79098750D01*
X214023000Y-79098750D01*
X214023000Y-80827000D01*
X215751250Y-80827000D01*
X215910000Y-80668250D01*
X215910000Y-79747080D01*
X218089565Y-79747080D01*
X218470885Y-80669943D01*
X219176343Y-81376634D01*
X220098540Y-81759564D01*
X221097080Y-81760435D01*
X222019943Y-81379115D01*
X222726634Y-80673657D01*
X222993177Y-80031750D01*
X223590000Y-80031750D01*
X223590000Y-81251309D01*
X223686673Y-81484698D01*
X223865301Y-81663327D01*
X224098690Y-81760000D01*
X225318250Y-81760000D01*
X225477000Y-81601250D01*
X225477000Y-79873000D01*
X226723000Y-79873000D01*
X226723000Y-81601250D01*
X226881750Y-81760000D01*
X228101310Y-81760000D01*
X228334699Y-81663327D01*
X228513327Y-81484698D01*
X228610000Y-81251309D01*
X228610000Y-80031750D01*
X228451250Y-79873000D01*
X226723000Y-79873000D01*
X225477000Y-79873000D01*
X223748750Y-79873000D01*
X223590000Y-80031750D01*
X222993177Y-80031750D01*
X223109564Y-79751460D01*
X223109632Y-79672815D01*
X231264630Y-79672815D01*
X231588980Y-80457800D01*
X232189041Y-81058909D01*
X232973459Y-81384628D01*
X233822815Y-81385370D01*
X234607800Y-81061020D01*
X235208909Y-80460959D01*
X235534628Y-79676541D01*
X235535370Y-78827185D01*
X235211020Y-78042200D01*
X234610959Y-77441091D01*
X233826541Y-77115372D01*
X232977185Y-77114630D01*
X232192200Y-77438980D01*
X231591091Y-78039041D01*
X231265372Y-78823459D01*
X231264630Y-79672815D01*
X223109632Y-79672815D01*
X223110435Y-78752920D01*
X222729115Y-77830057D01*
X222148764Y-77248691D01*
X223590000Y-77248691D01*
X223590000Y-78468250D01*
X223748750Y-78627000D01*
X225477000Y-78627000D01*
X225477000Y-76898750D01*
X226723000Y-76898750D01*
X226723000Y-78627000D01*
X228451250Y-78627000D01*
X228610000Y-78468250D01*
X228610000Y-77248691D01*
X228513327Y-77015302D01*
X228334699Y-76836673D01*
X228101310Y-76740000D01*
X226881750Y-76740000D01*
X226723000Y-76898750D01*
X225477000Y-76898750D01*
X225318250Y-76740000D01*
X224098690Y-76740000D01*
X223865301Y-76836673D01*
X223686673Y-77015302D01*
X223590000Y-77248691D01*
X222148764Y-77248691D01*
X222023657Y-77123366D01*
X221101460Y-76740436D01*
X220102920Y-76739565D01*
X219180057Y-77120885D01*
X218473366Y-77826343D01*
X218090436Y-78748540D01*
X218089565Y-79747080D01*
X215910000Y-79747080D01*
X215910000Y-79448690D01*
X215813327Y-79215301D01*
X215634698Y-79036673D01*
X215401309Y-78940000D01*
X214181750Y-78940000D01*
X214023000Y-79098750D01*
X212777000Y-79098750D01*
X212618250Y-78940000D01*
X211398691Y-78940000D01*
X211165302Y-79036673D01*
X210986673Y-79215301D01*
X210890000Y-79448690D01*
X206410000Y-79448690D01*
X206313327Y-79215301D01*
X206134698Y-79036673D01*
X205901309Y-78940000D01*
X204681750Y-78940000D01*
X204523000Y-79098750D01*
X203277000Y-79098750D01*
X203118250Y-78940000D01*
X201898691Y-78940000D01*
X201665302Y-79036673D01*
X201486673Y-79215301D01*
X201390000Y-79448690D01*
X196910000Y-79448690D01*
X196813327Y-79215301D01*
X196634698Y-79036673D01*
X196401309Y-78940000D01*
X195181750Y-78940000D01*
X195023000Y-79098750D01*
X193777000Y-79098750D01*
X193618250Y-78940000D01*
X192398691Y-78940000D01*
X192165302Y-79036673D01*
X191986673Y-79215301D01*
X191890000Y-79448690D01*
X189846416Y-79448690D01*
X189806120Y-74572815D01*
X192264630Y-74572815D01*
X192588980Y-75357800D01*
X193189041Y-75958909D01*
X193973459Y-76284628D01*
X194822815Y-76285370D01*
X195607800Y-75961020D01*
X196208909Y-75360959D01*
X196534628Y-74576541D01*
X196534631Y-74572815D01*
X201764630Y-74572815D01*
X202088980Y-75357800D01*
X202689041Y-75958909D01*
X203473459Y-76284628D01*
X204322815Y-76285370D01*
X205107800Y-75961020D01*
X205708909Y-75360959D01*
X206034628Y-74576541D01*
X206034631Y-74572815D01*
X211264630Y-74572815D01*
X211588980Y-75357800D01*
X212189041Y-75958909D01*
X212973459Y-76284628D01*
X213822815Y-76285370D01*
X214607800Y-75961020D01*
X215208909Y-75360959D01*
X215534628Y-74576541D01*
X215535370Y-73727185D01*
X215211020Y-72942200D01*
X214610959Y-72341091D01*
X213826541Y-72015372D01*
X212977185Y-72014630D01*
X212192200Y-72338980D01*
X211591091Y-72939041D01*
X211265372Y-73723459D01*
X211264630Y-74572815D01*
X206034631Y-74572815D01*
X206035370Y-73727185D01*
X205711020Y-72942200D01*
X205110959Y-72341091D01*
X204326541Y-72015372D01*
X203477185Y-72014630D01*
X202692200Y-72338980D01*
X202091091Y-72939041D01*
X201765372Y-73723459D01*
X201764630Y-74572815D01*
X196534631Y-74572815D01*
X196535370Y-73727185D01*
X196211020Y-72942200D01*
X195610959Y-72341091D01*
X194826541Y-72015372D01*
X193977185Y-72014630D01*
X193192200Y-72338980D01*
X192591091Y-72939041D01*
X192265372Y-73723459D01*
X192264630Y-74572815D01*
X189806120Y-74572815D01*
X189770370Y-70247080D01*
X218089565Y-70247080D01*
X218470885Y-71169943D01*
X219176343Y-71876634D01*
X220098540Y-72259564D01*
X221097080Y-72260435D01*
X222019943Y-71879115D01*
X222726634Y-71173657D01*
X222993177Y-70531750D01*
X223590000Y-70531750D01*
X223590000Y-71751309D01*
X223686673Y-71984698D01*
X223865301Y-72163327D01*
X224098690Y-72260000D01*
X225318250Y-72260000D01*
X225477000Y-72101250D01*
X225477000Y-70373000D01*
X226723000Y-70373000D01*
X226723000Y-72101250D01*
X226881750Y-72260000D01*
X228101310Y-72260000D01*
X228334699Y-72163327D01*
X228513327Y-71984698D01*
X228610000Y-71751309D01*
X228610000Y-70531750D01*
X228451250Y-70373000D01*
X226723000Y-70373000D01*
X225477000Y-70373000D01*
X223748750Y-70373000D01*
X223590000Y-70531750D01*
X222993177Y-70531750D01*
X223109564Y-70251460D01*
X223109632Y-70172815D01*
X231264630Y-70172815D01*
X231588980Y-70957800D01*
X232189041Y-71558909D01*
X232973459Y-71884628D01*
X233822815Y-71885370D01*
X234607800Y-71561020D01*
X235208909Y-70960959D01*
X235534628Y-70176541D01*
X235535370Y-69327185D01*
X235211020Y-68542200D01*
X234610959Y-67941091D01*
X233826541Y-67615372D01*
X232977185Y-67614630D01*
X232192200Y-67938980D01*
X231591091Y-68539041D01*
X231265372Y-69323459D01*
X231264630Y-70172815D01*
X223109632Y-70172815D01*
X223110435Y-69252920D01*
X222729115Y-68330057D01*
X222148764Y-67748691D01*
X223590000Y-67748691D01*
X223590000Y-68968250D01*
X223748750Y-69127000D01*
X225477000Y-69127000D01*
X225477000Y-67398750D01*
X226723000Y-67398750D01*
X226723000Y-69127000D01*
X228451250Y-69127000D01*
X228610000Y-68968250D01*
X228610000Y-67748691D01*
X228513327Y-67515302D01*
X228334699Y-67336673D01*
X228101310Y-67240000D01*
X226881750Y-67240000D01*
X226723000Y-67398750D01*
X225477000Y-67398750D01*
X225318250Y-67240000D01*
X224098690Y-67240000D01*
X223865301Y-67336673D01*
X223686673Y-67515302D01*
X223590000Y-67748691D01*
X222148764Y-67748691D01*
X222023657Y-67623366D01*
X221101460Y-67240436D01*
X220102920Y-67239565D01*
X219180057Y-67620885D01*
X218473366Y-68326343D01*
X218090436Y-69248540D01*
X218089565Y-70247080D01*
X189770370Y-70247080D01*
X189731219Y-65510000D01*
X242090000Y-65510000D01*
X242090000Y-121490000D01*
G36*
X157273000Y-89600000D02*
X157283006Y-89649410D01*
X157311447Y-89691035D01*
X157353841Y-89718315D01*
X157400000Y-89727000D01*
X163873000Y-89727000D01*
X163873000Y-96600000D01*
X163883006Y-96649410D01*
X163911447Y-96691035D01*
X163953841Y-96718315D01*
X164000000Y-96727000D01*
X175375465Y-96727000D01*
X175473024Y-101702490D01*
X175483997Y-101751694D01*
X175513248Y-101792753D01*
X175556169Y-101819197D01*
X175601560Y-101826990D01*
X194311517Y-101597138D01*
X194240376Y-101768464D01*
X194239626Y-102627766D01*
X194567773Y-103421943D01*
X195174861Y-104030091D01*
X195968464Y-104359624D01*
X196827766Y-104360374D01*
X197621943Y-104032227D01*
X198230091Y-103425139D01*
X198559624Y-102631536D01*
X198560374Y-101772234D01*
X198466933Y-101546089D01*
X211197656Y-101389692D01*
X211040376Y-101768464D01*
X211039626Y-102627766D01*
X211367773Y-103421943D01*
X211974861Y-104030091D01*
X212768464Y-104359624D01*
X213627766Y-104360374D01*
X214421943Y-104032227D01*
X215030091Y-103425139D01*
X215359624Y-102631536D01*
X215360374Y-101772234D01*
X215182086Y-101340743D01*
X216173884Y-101328559D01*
X216270615Y-115354583D01*
X216052198Y-115573000D01*
X190427000Y-115573000D01*
X190427000Y-113516761D01*
X203864294Y-113516761D01*
X204062402Y-113775127D01*
X204912665Y-113899434D01*
X205537598Y-113775127D01*
X205735706Y-113516761D01*
X204800000Y-112581055D01*
X203864294Y-113516761D01*
X190427000Y-113516761D01*
X190427000Y-111812665D01*
X202600566Y-111812665D01*
X202724873Y-112437598D01*
X202983239Y-112635706D01*
X203918945Y-111700000D01*
X205681055Y-111700000D01*
X206616761Y-112635706D01*
X206875127Y-112437598D01*
X206999434Y-111587335D01*
X206875127Y-110962402D01*
X206616761Y-110764294D01*
X205681055Y-111700000D01*
X203918945Y-111700000D01*
X202983239Y-110764294D01*
X202724873Y-110962402D01*
X202600566Y-111812665D01*
X190427000Y-111812665D01*
X190427000Y-109883239D01*
X203864294Y-109883239D01*
X204800000Y-110818945D01*
X205735706Y-109883239D01*
X205537598Y-109624873D01*
X204687335Y-109500566D01*
X204062402Y-109624873D01*
X203864294Y-109883239D01*
X190427000Y-109883239D01*
X190427000Y-108000000D01*
X190416994Y-107950590D01*
X190388553Y-107908965D01*
X190346159Y-107881685D01*
X190299625Y-107873001D01*
X156527000Y-107972625D01*
X156527000Y-102627766D01*
X167589626Y-102627766D01*
X167917773Y-103421943D01*
X168524861Y-104030091D01*
X169318464Y-104359624D01*
X170177766Y-104360374D01*
X170971943Y-104032227D01*
X171580091Y-103425139D01*
X171909624Y-102631536D01*
X171910374Y-101772234D01*
X171582227Y-100978057D01*
X170975139Y-100369909D01*
X170181536Y-100040376D01*
X169322234Y-100039626D01*
X168528057Y-100367773D01*
X167919909Y-100974861D01*
X167590376Y-101768464D01*
X167589626Y-102627766D01*
X156527000Y-102627766D01*
X156527000Y-96600000D01*
X156516994Y-96550590D01*
X156488553Y-96508965D01*
X156446159Y-96481685D01*
X156400000Y-96473000D01*
X155895405Y-96473000D01*
X155830327Y-96407808D01*
X155486799Y-96265162D01*
X155114833Y-96264838D01*
X154771057Y-96406883D01*
X154704825Y-96473000D01*
X148200000Y-96473000D01*
X148150590Y-96483006D01*
X148108965Y-96511447D01*
X148081685Y-96553841D01*
X148073000Y-96600000D01*
X148073000Y-121490000D01*
X123910000Y-121490000D01*
X123910000Y-117672815D01*
X130564630Y-117672815D01*
X130888980Y-118457800D01*
X131489041Y-119058909D01*
X132273459Y-119384628D01*
X133122815Y-119385370D01*
X133907800Y-119061020D01*
X134508909Y-118460959D01*
X134687132Y-118031750D01*
X137490000Y-118031750D01*
X137490000Y-119251309D01*
X137586673Y-119484698D01*
X137765301Y-119663327D01*
X137998690Y-119760000D01*
X139218250Y-119760000D01*
X139377000Y-119601250D01*
X139377000Y-117873000D01*
X140623000Y-117873000D01*
X140623000Y-119601250D01*
X140781750Y-119760000D01*
X142001310Y-119760000D01*
X142234699Y-119663327D01*
X142413327Y-119484698D01*
X142510000Y-119251309D01*
X142510000Y-118031750D01*
X142351250Y-117873000D01*
X140623000Y-117873000D01*
X139377000Y-117873000D01*
X137648750Y-117873000D01*
X137490000Y-118031750D01*
X134687132Y-118031750D01*
X134805337Y-117747080D01*
X142989565Y-117747080D01*
X143370885Y-118669943D01*
X144076343Y-119376634D01*
X144998540Y-119759564D01*
X145997080Y-119760435D01*
X146919943Y-119379115D01*
X147626634Y-118673657D01*
X148009564Y-117751460D01*
X148010435Y-116752920D01*
X147629115Y-115830057D01*
X146923657Y-115123366D01*
X146001460Y-114740436D01*
X145002920Y-114739565D01*
X144080057Y-115120885D01*
X143373366Y-115826343D01*
X142990436Y-116748540D01*
X142989565Y-117747080D01*
X134805337Y-117747080D01*
X134834628Y-117676541D01*
X134835370Y-116827185D01*
X134511020Y-116042200D01*
X133910959Y-115441091D01*
X133447609Y-115248691D01*
X137490000Y-115248691D01*
X137490000Y-116468250D01*
X137648750Y-116627000D01*
X139377000Y-116627000D01*
X139377000Y-114898750D01*
X140623000Y-114898750D01*
X140623000Y-116627000D01*
X142351250Y-116627000D01*
X142510000Y-116468250D01*
X142510000Y-115248691D01*
X142413327Y-115015302D01*
X142234699Y-114836673D01*
X142001310Y-114740000D01*
X140781750Y-114740000D01*
X140623000Y-114898750D01*
X139377000Y-114898750D01*
X139218250Y-114740000D01*
X137998690Y-114740000D01*
X137765301Y-114836673D01*
X137586673Y-115015302D01*
X137490000Y-115248691D01*
X133447609Y-115248691D01*
X133126541Y-115115372D01*
X132277185Y-115114630D01*
X131492200Y-115438980D01*
X130891091Y-116039041D01*
X130565372Y-116823459D01*
X130564630Y-117672815D01*
X123910000Y-117672815D01*
X123910000Y-108172815D01*
X130564630Y-108172815D01*
X130888980Y-108957800D01*
X131489041Y-109558909D01*
X132273459Y-109884628D01*
X133122815Y-109885370D01*
X133907800Y-109561020D01*
X134508909Y-108960959D01*
X134687132Y-108531750D01*
X137490000Y-108531750D01*
X137490000Y-109751309D01*
X137586673Y-109984698D01*
X137765301Y-110163327D01*
X137998690Y-110260000D01*
X139218250Y-110260000D01*
X139377000Y-110101250D01*
X139377000Y-108373000D01*
X140623000Y-108373000D01*
X140623000Y-110101250D01*
X140781750Y-110260000D01*
X142001310Y-110260000D01*
X142234699Y-110163327D01*
X142413327Y-109984698D01*
X142510000Y-109751309D01*
X142510000Y-108531750D01*
X142351250Y-108373000D01*
X140623000Y-108373000D01*
X139377000Y-108373000D01*
X137648750Y-108373000D01*
X137490000Y-108531750D01*
X134687132Y-108531750D01*
X134805337Y-108247080D01*
X142989565Y-108247080D01*
X143370885Y-109169943D01*
X144076343Y-109876634D01*
X144998540Y-110259564D01*
X145997080Y-110260435D01*
X146919943Y-109879115D01*
X147626634Y-109173657D01*
X148009564Y-108251460D01*
X148010435Y-107252920D01*
X147629115Y-106330057D01*
X146923657Y-105623366D01*
X146001460Y-105240436D01*
X145002920Y-105239565D01*
X144080057Y-105620885D01*
X143373366Y-106326343D01*
X142990436Y-107248540D01*
X142989565Y-108247080D01*
X134805337Y-108247080D01*
X134834628Y-108176541D01*
X134835370Y-107327185D01*
X134511020Y-106542200D01*
X133910959Y-105941091D01*
X133447609Y-105748691D01*
X137490000Y-105748691D01*
X137490000Y-106968250D01*
X137648750Y-107127000D01*
X139377000Y-107127000D01*
X139377000Y-105398750D01*
X140623000Y-105398750D01*
X140623000Y-107127000D01*
X142351250Y-107127000D01*
X142510000Y-106968250D01*
X142510000Y-105748691D01*
X142413327Y-105515302D01*
X142234699Y-105336673D01*
X142001310Y-105240000D01*
X140781750Y-105240000D01*
X140623000Y-105398750D01*
X139377000Y-105398750D01*
X139218250Y-105240000D01*
X137998690Y-105240000D01*
X137765301Y-105336673D01*
X137586673Y-105515302D01*
X137490000Y-105748691D01*
X133447609Y-105748691D01*
X133126541Y-105615372D01*
X132277185Y-105614630D01*
X131492200Y-105938980D01*
X130891091Y-106539041D01*
X130565372Y-107323459D01*
X130564630Y-108172815D01*
X123910000Y-108172815D01*
X123910000Y-98672815D01*
X130564630Y-98672815D01*
X130888980Y-99457800D01*
X131489041Y-100058909D01*
X132273459Y-100384628D01*
X133122815Y-100385370D01*
X133907800Y-100061020D01*
X134508909Y-99460959D01*
X134687132Y-99031750D01*
X137490000Y-99031750D01*
X137490000Y-100251309D01*
X137586673Y-100484698D01*
X137765301Y-100663327D01*
X137998690Y-100760000D01*
X139218250Y-100760000D01*
X139377000Y-100601250D01*
X139377000Y-98873000D01*
X140623000Y-98873000D01*
X140623000Y-100601250D01*
X140781750Y-100760000D01*
X142001310Y-100760000D01*
X142234699Y-100663327D01*
X142413327Y-100484698D01*
X142510000Y-100251309D01*
X142510000Y-99031750D01*
X142351250Y-98873000D01*
X140623000Y-98873000D01*
X139377000Y-98873000D01*
X137648750Y-98873000D01*
X137490000Y-99031750D01*
X134687132Y-99031750D01*
X134805337Y-98747080D01*
X142989565Y-98747080D01*
X143370885Y-99669943D01*
X144076343Y-100376634D01*
X144998540Y-100759564D01*
X145997080Y-100760435D01*
X146919943Y-100379115D01*
X147626634Y-99673657D01*
X148009564Y-98751460D01*
X148010435Y-97752920D01*
X147629115Y-96830057D01*
X146923657Y-96123366D01*
X146001460Y-95740436D01*
X145002920Y-95739565D01*
X144080057Y-96120885D01*
X143373366Y-96826343D01*
X142990436Y-97748540D01*
X142989565Y-98747080D01*
X134805337Y-98747080D01*
X134834628Y-98676541D01*
X134835370Y-97827185D01*
X134511020Y-97042200D01*
X133910959Y-96441091D01*
X133447609Y-96248691D01*
X137490000Y-96248691D01*
X137490000Y-97468250D01*
X137648750Y-97627000D01*
X139377000Y-97627000D01*
X139377000Y-95898750D01*
X140623000Y-95898750D01*
X140623000Y-97627000D01*
X142351250Y-97627000D01*
X142510000Y-97468250D01*
X142510000Y-96248691D01*
X142413327Y-96015302D01*
X142234699Y-95836673D01*
X142001310Y-95740000D01*
X140781750Y-95740000D01*
X140623000Y-95898750D01*
X139377000Y-95898750D01*
X139218250Y-95740000D01*
X137998690Y-95740000D01*
X137765301Y-95836673D01*
X137586673Y-96015302D01*
X137490000Y-96248691D01*
X133447609Y-96248691D01*
X133126541Y-96115372D01*
X132277185Y-96114630D01*
X131492200Y-96438980D01*
X130891091Y-97039041D01*
X130565372Y-97823459D01*
X130564630Y-98672815D01*
X123910000Y-98672815D01*
X123910000Y-95616761D01*
X160414294Y-95616761D01*
X160612402Y-95875127D01*
X161462665Y-95999434D01*
X162087598Y-95875127D01*
X162285706Y-95616761D01*
X161350000Y-94681055D01*
X160414294Y-95616761D01*
X123910000Y-95616761D01*
X123910000Y-93912665D01*
X159150566Y-93912665D01*
X159274873Y-94537598D01*
X159533239Y-94735706D01*
X160468945Y-93800000D01*
X162231055Y-93800000D01*
X163166761Y-94735706D01*
X163425127Y-94537598D01*
X163549434Y-93687335D01*
X163425127Y-93062402D01*
X163166761Y-92864294D01*
X162231055Y-93800000D01*
X160468945Y-93800000D01*
X159533239Y-92864294D01*
X159274873Y-93062402D01*
X159150566Y-93912665D01*
X123910000Y-93912665D01*
X123910000Y-91983239D01*
X160414294Y-91983239D01*
X161350000Y-92918945D01*
X162285706Y-91983239D01*
X162087598Y-91724873D01*
X161237335Y-91600566D01*
X160612402Y-91724873D01*
X160414294Y-91983239D01*
X123910000Y-91983239D01*
X123910000Y-89147815D01*
X130589630Y-89147815D01*
X130913980Y-89932800D01*
X131514041Y-90533909D01*
X132298459Y-90859628D01*
X133147815Y-90860370D01*
X133932800Y-90536020D01*
X134533909Y-89935959D01*
X134712132Y-89506750D01*
X137515000Y-89506750D01*
X137515000Y-90726309D01*
X137611673Y-90959698D01*
X137790301Y-91138327D01*
X138023690Y-91235000D01*
X139243250Y-91235000D01*
X139402000Y-91076250D01*
X139402000Y-89348000D01*
X140648000Y-89348000D01*
X140648000Y-91076250D01*
X140806750Y-91235000D01*
X142026310Y-91235000D01*
X142259699Y-91138327D01*
X142438327Y-90959698D01*
X142535000Y-90726309D01*
X142535000Y-89506750D01*
X142376250Y-89348000D01*
X140648000Y-89348000D01*
X139402000Y-89348000D01*
X137673750Y-89348000D01*
X137515000Y-89506750D01*
X134712132Y-89506750D01*
X134830337Y-89222080D01*
X143014565Y-89222080D01*
X143395885Y-90144943D01*
X144101343Y-90851634D01*
X145023540Y-91234564D01*
X146022080Y-91235435D01*
X146944943Y-90854115D01*
X147651634Y-90148657D01*
X148034564Y-89226460D01*
X148035435Y-88227920D01*
X147712798Y-87447080D01*
X150189565Y-87447080D01*
X150570885Y-88369943D01*
X151276343Y-89076634D01*
X152198540Y-89459564D01*
X153197080Y-89460435D01*
X154119943Y-89079115D01*
X154826634Y-88373657D01*
X155209564Y-87451460D01*
X155210435Y-86452920D01*
X154829115Y-85530057D01*
X154123657Y-84823366D01*
X153201460Y-84440436D01*
X152202920Y-84439565D01*
X151280057Y-84820885D01*
X150573366Y-85526343D01*
X150190436Y-86448540D01*
X150189565Y-87447080D01*
X147712798Y-87447080D01*
X147654115Y-87305057D01*
X146948657Y-86598366D01*
X146026460Y-86215436D01*
X145027920Y-86214565D01*
X144105057Y-86595885D01*
X143398366Y-87301343D01*
X143015436Y-88223540D01*
X143014565Y-89222080D01*
X134830337Y-89222080D01*
X134859628Y-89151541D01*
X134860370Y-88302185D01*
X134536020Y-87517200D01*
X133935959Y-86916091D01*
X133472609Y-86723691D01*
X137515000Y-86723691D01*
X137515000Y-87943250D01*
X137673750Y-88102000D01*
X139402000Y-88102000D01*
X139402000Y-86373750D01*
X140648000Y-86373750D01*
X140648000Y-88102000D01*
X142376250Y-88102000D01*
X142535000Y-87943250D01*
X142535000Y-86723691D01*
X142438327Y-86490302D01*
X142259699Y-86311673D01*
X142026310Y-86215000D01*
X140806750Y-86215000D01*
X140648000Y-86373750D01*
X139402000Y-86373750D01*
X139243250Y-86215000D01*
X138023690Y-86215000D01*
X137790301Y-86311673D01*
X137611673Y-86490302D01*
X137515000Y-86723691D01*
X133472609Y-86723691D01*
X133151541Y-86590372D01*
X132302185Y-86589630D01*
X131517200Y-86913980D01*
X130916091Y-87514041D01*
X130590372Y-88298459D01*
X130589630Y-89147815D01*
X123910000Y-89147815D01*
X123910000Y-82231750D01*
X150190000Y-82231750D01*
X150190000Y-83451310D01*
X150286673Y-83684699D01*
X150465302Y-83863327D01*
X150698691Y-83960000D01*
X151918250Y-83960000D01*
X152077000Y-83801250D01*
X152077000Y-82073000D01*
X153323000Y-82073000D01*
X153323000Y-83801250D01*
X153481750Y-83960000D01*
X154701309Y-83960000D01*
X154934698Y-83863327D01*
X155113327Y-83684699D01*
X155210000Y-83451310D01*
X155210000Y-82231750D01*
X155051250Y-82073000D01*
X153323000Y-82073000D01*
X152077000Y-82073000D01*
X150348750Y-82073000D01*
X150190000Y-82231750D01*
X123910000Y-82231750D01*
X123910000Y-79647815D01*
X130589630Y-79647815D01*
X130913980Y-80432800D01*
X131514041Y-81033909D01*
X132298459Y-81359628D01*
X133147815Y-81360370D01*
X133932800Y-81036020D01*
X134533909Y-80435959D01*
X134712132Y-80006750D01*
X137515000Y-80006750D01*
X137515000Y-81226309D01*
X137611673Y-81459698D01*
X137790301Y-81638327D01*
X138023690Y-81735000D01*
X139243250Y-81735000D01*
X139402000Y-81576250D01*
X139402000Y-79848000D01*
X140648000Y-79848000D01*
X140648000Y-81576250D01*
X140806750Y-81735000D01*
X142026310Y-81735000D01*
X142259699Y-81638327D01*
X142438327Y-81459698D01*
X142535000Y-81226309D01*
X142535000Y-80006750D01*
X142376250Y-79848000D01*
X140648000Y-79848000D01*
X139402000Y-79848000D01*
X137673750Y-79848000D01*
X137515000Y-80006750D01*
X134712132Y-80006750D01*
X134830337Y-79722080D01*
X143014565Y-79722080D01*
X143395885Y-80644943D01*
X144101343Y-81351634D01*
X145023540Y-81734564D01*
X146022080Y-81735435D01*
X146944943Y-81354115D01*
X147651634Y-80648657D01*
X148034564Y-79726460D01*
X148034806Y-79448690D01*
X150190000Y-79448690D01*
X150190000Y-80668250D01*
X150348750Y-80827000D01*
X152077000Y-80827000D01*
X152077000Y-79098750D01*
X153323000Y-79098750D01*
X153323000Y-80827000D01*
X155051250Y-80827000D01*
X155210000Y-80668250D01*
X155210000Y-79448690D01*
X155113327Y-79215301D01*
X154934698Y-79036673D01*
X154701309Y-78940000D01*
X153481750Y-78940000D01*
X153323000Y-79098750D01*
X152077000Y-79098750D01*
X151918250Y-78940000D01*
X150698691Y-78940000D01*
X150465302Y-79036673D01*
X150286673Y-79215301D01*
X150190000Y-79448690D01*
X148034806Y-79448690D01*
X148035435Y-78727920D01*
X147654115Y-77805057D01*
X146948657Y-77098366D01*
X146026460Y-76715436D01*
X145027920Y-76714565D01*
X144105057Y-77095885D01*
X143398366Y-77801343D01*
X143015436Y-78723540D01*
X143014565Y-79722080D01*
X134830337Y-79722080D01*
X134859628Y-79651541D01*
X134860370Y-78802185D01*
X134536020Y-78017200D01*
X133935959Y-77416091D01*
X133472609Y-77223691D01*
X137515000Y-77223691D01*
X137515000Y-78443250D01*
X137673750Y-78602000D01*
X139402000Y-78602000D01*
X139402000Y-76873750D01*
X140648000Y-76873750D01*
X140648000Y-78602000D01*
X142376250Y-78602000D01*
X142535000Y-78443250D01*
X142535000Y-77223691D01*
X142438327Y-76990302D01*
X142259699Y-76811673D01*
X142026310Y-76715000D01*
X140806750Y-76715000D01*
X140648000Y-76873750D01*
X139402000Y-76873750D01*
X139243250Y-76715000D01*
X138023690Y-76715000D01*
X137790301Y-76811673D01*
X137611673Y-76990302D01*
X137515000Y-77223691D01*
X133472609Y-77223691D01*
X133151541Y-77090372D01*
X132302185Y-77089630D01*
X131517200Y-77413980D01*
X130916091Y-78014041D01*
X130590372Y-78798459D01*
X130589630Y-79647815D01*
X123910000Y-79647815D01*
X123910000Y-74572815D01*
X150564630Y-74572815D01*
X150888980Y-75357800D01*
X151489041Y-75958909D01*
X152273459Y-76284628D01*
X153122815Y-76285370D01*
X153907800Y-75961020D01*
X154508909Y-75360959D01*
X154834628Y-74576541D01*
X154835370Y-73727185D01*
X154511020Y-72942200D01*
X153910959Y-72341091D01*
X153126541Y-72015372D01*
X152277185Y-72014630D01*
X151492200Y-72338980D01*
X150891091Y-72939041D01*
X150565372Y-73723459D01*
X150564630Y-74572815D01*
X123910000Y-74572815D01*
X123910000Y-70197815D01*
X130589630Y-70197815D01*
X130913980Y-70982800D01*
X131514041Y-71583909D01*
X132298459Y-71909628D01*
X133147815Y-71910370D01*
X133932800Y-71586020D01*
X134533909Y-70985959D01*
X134712132Y-70556750D01*
X137515000Y-70556750D01*
X137515000Y-71776309D01*
X137611673Y-72009698D01*
X137790301Y-72188327D01*
X138023690Y-72285000D01*
X139243250Y-72285000D01*
X139402000Y-72126250D01*
X139402000Y-70398000D01*
X140648000Y-70398000D01*
X140648000Y-72126250D01*
X140806750Y-72285000D01*
X142026310Y-72285000D01*
X142259699Y-72188327D01*
X142438327Y-72009698D01*
X142535000Y-71776309D01*
X142535000Y-70556750D01*
X142376250Y-70398000D01*
X140648000Y-70398000D01*
X139402000Y-70398000D01*
X137673750Y-70398000D01*
X137515000Y-70556750D01*
X134712132Y-70556750D01*
X134830337Y-70272080D01*
X143014565Y-70272080D01*
X143395885Y-71194943D01*
X144101343Y-71901634D01*
X145023540Y-72284564D01*
X146022080Y-72285435D01*
X146944943Y-71904115D01*
X147651634Y-71198657D01*
X148034564Y-70276460D01*
X148035435Y-69277920D01*
X147654115Y-68355057D01*
X146948657Y-67648366D01*
X146026460Y-67265436D01*
X145027920Y-67264565D01*
X144105057Y-67645885D01*
X143398366Y-68351343D01*
X143015436Y-69273540D01*
X143014565Y-70272080D01*
X134830337Y-70272080D01*
X134859628Y-70201541D01*
X134860370Y-69352185D01*
X134536020Y-68567200D01*
X133935959Y-67966091D01*
X133472609Y-67773691D01*
X137515000Y-67773691D01*
X137515000Y-68993250D01*
X137673750Y-69152000D01*
X139402000Y-69152000D01*
X139402000Y-67423750D01*
X140648000Y-67423750D01*
X140648000Y-69152000D01*
X142376250Y-69152000D01*
X142535000Y-68993250D01*
X142535000Y-67773691D01*
X142438327Y-67540302D01*
X142259699Y-67361673D01*
X142026310Y-67265000D01*
X140806750Y-67265000D01*
X140648000Y-67423750D01*
X139402000Y-67423750D01*
X139243250Y-67265000D01*
X138023690Y-67265000D01*
X137790301Y-67361673D01*
X137611673Y-67540302D01*
X137515000Y-67773691D01*
X133472609Y-67773691D01*
X133151541Y-67640372D01*
X132302185Y-67639630D01*
X131517200Y-67963980D01*
X130916091Y-68564041D01*
X130590372Y-69348459D01*
X130589630Y-70197815D01*
X123910000Y-70197815D01*
X123910000Y-65510000D01*
X157273000Y-65510000D01*
X157273000Y-89600000D01*
X157273000Y-89600000D01*
G37*
X157273000Y-89600000D02*
X157283006Y-89649410D01*
X157311447Y-89691035D01*
X157353841Y-89718315D01*
X157400000Y-89727000D01*
X163873000Y-89727000D01*
X163873000Y-96600000D01*
X163883006Y-96649410D01*
X163911447Y-96691035D01*
X163953841Y-96718315D01*
X164000000Y-96727000D01*
X175375465Y-96727000D01*
X175473024Y-101702490D01*
X175483997Y-101751694D01*
X175513248Y-101792753D01*
X175556169Y-101819197D01*
X175601560Y-101826990D01*
X194311517Y-101597138D01*
X194240376Y-101768464D01*
X194239626Y-102627766D01*
X194567773Y-103421943D01*
X195174861Y-104030091D01*
X195968464Y-104359624D01*
X196827766Y-104360374D01*
X197621943Y-104032227D01*
X198230091Y-103425139D01*
X198559624Y-102631536D01*
X198560374Y-101772234D01*
X198466933Y-101546089D01*
X211197656Y-101389692D01*
X211040376Y-101768464D01*
X211039626Y-102627766D01*
X211367773Y-103421943D01*
X211974861Y-104030091D01*
X212768464Y-104359624D01*
X213627766Y-104360374D01*
X214421943Y-104032227D01*
X215030091Y-103425139D01*
X215359624Y-102631536D01*
X215360374Y-101772234D01*
X215182086Y-101340743D01*
X216173884Y-101328559D01*
X216270615Y-115354583D01*
X216052198Y-115573000D01*
X190427000Y-115573000D01*
X190427000Y-113516761D01*
X203864294Y-113516761D01*
X204062402Y-113775127D01*
X204912665Y-113899434D01*
X205537598Y-113775127D01*
X205735706Y-113516761D01*
X204800000Y-112581055D01*
X203864294Y-113516761D01*
X190427000Y-113516761D01*
X190427000Y-111812665D01*
X202600566Y-111812665D01*
X202724873Y-112437598D01*
X202983239Y-112635706D01*
X203918945Y-111700000D01*
X205681055Y-111700000D01*
X206616761Y-112635706D01*
X206875127Y-112437598D01*
X206999434Y-111587335D01*
X206875127Y-110962402D01*
X206616761Y-110764294D01*
X205681055Y-111700000D01*
X203918945Y-111700000D01*
X202983239Y-110764294D01*
X202724873Y-110962402D01*
X202600566Y-111812665D01*
X190427000Y-111812665D01*
X190427000Y-109883239D01*
X203864294Y-109883239D01*
X204800000Y-110818945D01*
X205735706Y-109883239D01*
X205537598Y-109624873D01*
X204687335Y-109500566D01*
X204062402Y-109624873D01*
X203864294Y-109883239D01*
X190427000Y-109883239D01*
X190427000Y-108000000D01*
X190416994Y-107950590D01*
X190388553Y-107908965D01*
X190346159Y-107881685D01*
X190299625Y-107873001D01*
X156527000Y-107972625D01*
X156527000Y-102627766D01*
X167589626Y-102627766D01*
X167917773Y-103421943D01*
X168524861Y-104030091D01*
X169318464Y-104359624D01*
X170177766Y-104360374D01*
X170971943Y-104032227D01*
X171580091Y-103425139D01*
X171909624Y-102631536D01*
X171910374Y-101772234D01*
X171582227Y-100978057D01*
X170975139Y-100369909D01*
X170181536Y-100040376D01*
X169322234Y-100039626D01*
X168528057Y-100367773D01*
X167919909Y-100974861D01*
X167590376Y-101768464D01*
X167589626Y-102627766D01*
X156527000Y-102627766D01*
X156527000Y-96600000D01*
X156516994Y-96550590D01*
X156488553Y-96508965D01*
X156446159Y-96481685D01*
X156400000Y-96473000D01*
X155895405Y-96473000D01*
X155830327Y-96407808D01*
X155486799Y-96265162D01*
X155114833Y-96264838D01*
X154771057Y-96406883D01*
X154704825Y-96473000D01*
X148200000Y-96473000D01*
X148150590Y-96483006D01*
X148108965Y-96511447D01*
X148081685Y-96553841D01*
X148073000Y-96600000D01*
X148073000Y-121490000D01*
X123910000Y-121490000D01*
X123910000Y-117672815D01*
X130564630Y-117672815D01*
X130888980Y-118457800D01*
X131489041Y-119058909D01*
X132273459Y-119384628D01*
X133122815Y-119385370D01*
X133907800Y-119061020D01*
X134508909Y-118460959D01*
X134687132Y-118031750D01*
X137490000Y-118031750D01*
X137490000Y-119251309D01*
X137586673Y-119484698D01*
X137765301Y-119663327D01*
X137998690Y-119760000D01*
X139218250Y-119760000D01*
X139377000Y-119601250D01*
X139377000Y-117873000D01*
X140623000Y-117873000D01*
X140623000Y-119601250D01*
X140781750Y-119760000D01*
X142001310Y-119760000D01*
X142234699Y-119663327D01*
X142413327Y-119484698D01*
X142510000Y-119251309D01*
X142510000Y-118031750D01*
X142351250Y-117873000D01*
X140623000Y-117873000D01*
X139377000Y-117873000D01*
X137648750Y-117873000D01*
X137490000Y-118031750D01*
X134687132Y-118031750D01*
X134805337Y-117747080D01*
X142989565Y-117747080D01*
X143370885Y-118669943D01*
X144076343Y-119376634D01*
X144998540Y-119759564D01*
X145997080Y-119760435D01*
X146919943Y-119379115D01*
X147626634Y-118673657D01*
X148009564Y-117751460D01*
X148010435Y-116752920D01*
X147629115Y-115830057D01*
X146923657Y-115123366D01*
X146001460Y-114740436D01*
X145002920Y-114739565D01*
X144080057Y-115120885D01*
X143373366Y-115826343D01*
X142990436Y-116748540D01*
X142989565Y-117747080D01*
X134805337Y-117747080D01*
X134834628Y-117676541D01*
X134835370Y-116827185D01*
X134511020Y-116042200D01*
X133910959Y-115441091D01*
X133447609Y-115248691D01*
X137490000Y-115248691D01*
X137490000Y-116468250D01*
X137648750Y-116627000D01*
X139377000Y-116627000D01*
X139377000Y-114898750D01*
X140623000Y-114898750D01*
X140623000Y-116627000D01*
X142351250Y-116627000D01*
X142510000Y-116468250D01*
X142510000Y-115248691D01*
X142413327Y-115015302D01*
X142234699Y-114836673D01*
X142001310Y-114740000D01*
X140781750Y-114740000D01*
X140623000Y-114898750D01*
X139377000Y-114898750D01*
X139218250Y-114740000D01*
X137998690Y-114740000D01*
X137765301Y-114836673D01*
X137586673Y-115015302D01*
X137490000Y-115248691D01*
X133447609Y-115248691D01*
X133126541Y-115115372D01*
X132277185Y-115114630D01*
X131492200Y-115438980D01*
X130891091Y-116039041D01*
X130565372Y-116823459D01*
X130564630Y-117672815D01*
X123910000Y-117672815D01*
X123910000Y-108172815D01*
X130564630Y-108172815D01*
X130888980Y-108957800D01*
X131489041Y-109558909D01*
X132273459Y-109884628D01*
X133122815Y-109885370D01*
X133907800Y-109561020D01*
X134508909Y-108960959D01*
X134687132Y-108531750D01*
X137490000Y-108531750D01*
X137490000Y-109751309D01*
X137586673Y-109984698D01*
X137765301Y-110163327D01*
X137998690Y-110260000D01*
X139218250Y-110260000D01*
X139377000Y-110101250D01*
X139377000Y-108373000D01*
X140623000Y-108373000D01*
X140623000Y-110101250D01*
X140781750Y-110260000D01*
X142001310Y-110260000D01*
X142234699Y-110163327D01*
X142413327Y-109984698D01*
X142510000Y-109751309D01*
X142510000Y-108531750D01*
X142351250Y-108373000D01*
X140623000Y-108373000D01*
X139377000Y-108373000D01*
X137648750Y-108373000D01*
X137490000Y-108531750D01*
X134687132Y-108531750D01*
X134805337Y-108247080D01*
X142989565Y-108247080D01*
X143370885Y-109169943D01*
X144076343Y-109876634D01*
X144998540Y-110259564D01*
X145997080Y-110260435D01*
X146919943Y-109879115D01*
X147626634Y-109173657D01*
X148009564Y-108251460D01*
X148010435Y-107252920D01*
X147629115Y-106330057D01*
X146923657Y-105623366D01*
X146001460Y-105240436D01*
X145002920Y-105239565D01*
X144080057Y-105620885D01*
X143373366Y-106326343D01*
X142990436Y-107248540D01*
X142989565Y-108247080D01*
X134805337Y-108247080D01*
X134834628Y-108176541D01*
X134835370Y-107327185D01*
X134511020Y-106542200D01*
X133910959Y-105941091D01*
X133447609Y-105748691D01*
X137490000Y-105748691D01*
X137490000Y-106968250D01*
X137648750Y-107127000D01*
X139377000Y-107127000D01*
X139377000Y-105398750D01*
X140623000Y-105398750D01*
X140623000Y-107127000D01*
X142351250Y-107127000D01*
X142510000Y-106968250D01*
X142510000Y-105748691D01*
X142413327Y-105515302D01*
X142234699Y-105336673D01*
X142001310Y-105240000D01*
X140781750Y-105240000D01*
X140623000Y-105398750D01*
X139377000Y-105398750D01*
X139218250Y-105240000D01*
X137998690Y-105240000D01*
X137765301Y-105336673D01*
X137586673Y-105515302D01*
X137490000Y-105748691D01*
X133447609Y-105748691D01*
X133126541Y-105615372D01*
X132277185Y-105614630D01*
X131492200Y-105938980D01*
X130891091Y-106539041D01*
X130565372Y-107323459D01*
X130564630Y-108172815D01*
X123910000Y-108172815D01*
X123910000Y-98672815D01*
X130564630Y-98672815D01*
X130888980Y-99457800D01*
X131489041Y-100058909D01*
X132273459Y-100384628D01*
X133122815Y-100385370D01*
X133907800Y-100061020D01*
X134508909Y-99460959D01*
X134687132Y-99031750D01*
X137490000Y-99031750D01*
X137490000Y-100251309D01*
X137586673Y-100484698D01*
X137765301Y-100663327D01*
X137998690Y-100760000D01*
X139218250Y-100760000D01*
X139377000Y-100601250D01*
X139377000Y-98873000D01*
X140623000Y-98873000D01*
X140623000Y-100601250D01*
X140781750Y-100760000D01*
X142001310Y-100760000D01*
X142234699Y-100663327D01*
X142413327Y-100484698D01*
X142510000Y-100251309D01*
X142510000Y-99031750D01*
X142351250Y-98873000D01*
X140623000Y-98873000D01*
X139377000Y-98873000D01*
X137648750Y-98873000D01*
X137490000Y-99031750D01*
X134687132Y-99031750D01*
X134805337Y-98747080D01*
X142989565Y-98747080D01*
X143370885Y-99669943D01*
X144076343Y-100376634D01*
X144998540Y-100759564D01*
X145997080Y-100760435D01*
X146919943Y-100379115D01*
X147626634Y-99673657D01*
X148009564Y-98751460D01*
X148010435Y-97752920D01*
X147629115Y-96830057D01*
X146923657Y-96123366D01*
X146001460Y-95740436D01*
X145002920Y-95739565D01*
X144080057Y-96120885D01*
X143373366Y-96826343D01*
X142990436Y-97748540D01*
X142989565Y-98747080D01*
X134805337Y-98747080D01*
X134834628Y-98676541D01*
X134835370Y-97827185D01*
X134511020Y-97042200D01*
X133910959Y-96441091D01*
X133447609Y-96248691D01*
X137490000Y-96248691D01*
X137490000Y-97468250D01*
X137648750Y-97627000D01*
X139377000Y-97627000D01*
X139377000Y-95898750D01*
X140623000Y-95898750D01*
X140623000Y-97627000D01*
X142351250Y-97627000D01*
X142510000Y-97468250D01*
X142510000Y-96248691D01*
X142413327Y-96015302D01*
X142234699Y-95836673D01*
X142001310Y-95740000D01*
X140781750Y-95740000D01*
X140623000Y-95898750D01*
X139377000Y-95898750D01*
X139218250Y-95740000D01*
X137998690Y-95740000D01*
X137765301Y-95836673D01*
X137586673Y-96015302D01*
X137490000Y-96248691D01*
X133447609Y-96248691D01*
X133126541Y-96115372D01*
X132277185Y-96114630D01*
X131492200Y-96438980D01*
X130891091Y-97039041D01*
X130565372Y-97823459D01*
X130564630Y-98672815D01*
X123910000Y-98672815D01*
X123910000Y-95616761D01*
X160414294Y-95616761D01*
X160612402Y-95875127D01*
X161462665Y-95999434D01*
X162087598Y-95875127D01*
X162285706Y-95616761D01*
X161350000Y-94681055D01*
X160414294Y-95616761D01*
X123910000Y-95616761D01*
X123910000Y-93912665D01*
X159150566Y-93912665D01*
X159274873Y-94537598D01*
X159533239Y-94735706D01*
X160468945Y-93800000D01*
X162231055Y-93800000D01*
X163166761Y-94735706D01*
X163425127Y-94537598D01*
X163549434Y-93687335D01*
X163425127Y-93062402D01*
X163166761Y-92864294D01*
X162231055Y-93800000D01*
X160468945Y-93800000D01*
X159533239Y-92864294D01*
X159274873Y-93062402D01*
X159150566Y-93912665D01*
X123910000Y-93912665D01*
X123910000Y-91983239D01*
X160414294Y-91983239D01*
X161350000Y-92918945D01*
X162285706Y-91983239D01*
X162087598Y-91724873D01*
X161237335Y-91600566D01*
X160612402Y-91724873D01*
X160414294Y-91983239D01*
X123910000Y-91983239D01*
X123910000Y-89147815D01*
X130589630Y-89147815D01*
X130913980Y-89932800D01*
X131514041Y-90533909D01*
X132298459Y-90859628D01*
X133147815Y-90860370D01*
X133932800Y-90536020D01*
X134533909Y-89935959D01*
X134712132Y-89506750D01*
X137515000Y-89506750D01*
X137515000Y-90726309D01*
X137611673Y-90959698D01*
X137790301Y-91138327D01*
X138023690Y-91235000D01*
X139243250Y-91235000D01*
X139402000Y-91076250D01*
X139402000Y-89348000D01*
X140648000Y-89348000D01*
X140648000Y-91076250D01*
X140806750Y-91235000D01*
X142026310Y-91235000D01*
X142259699Y-91138327D01*
X142438327Y-90959698D01*
X142535000Y-90726309D01*
X142535000Y-89506750D01*
X142376250Y-89348000D01*
X140648000Y-89348000D01*
X139402000Y-89348000D01*
X137673750Y-89348000D01*
X137515000Y-89506750D01*
X134712132Y-89506750D01*
X134830337Y-89222080D01*
X143014565Y-89222080D01*
X143395885Y-90144943D01*
X144101343Y-90851634D01*
X145023540Y-91234564D01*
X146022080Y-91235435D01*
X146944943Y-90854115D01*
X147651634Y-90148657D01*
X148034564Y-89226460D01*
X148035435Y-88227920D01*
X147712798Y-87447080D01*
X150189565Y-87447080D01*
X150570885Y-88369943D01*
X151276343Y-89076634D01*
X152198540Y-89459564D01*
X153197080Y-89460435D01*
X154119943Y-89079115D01*
X154826634Y-88373657D01*
X155209564Y-87451460D01*
X155210435Y-86452920D01*
X154829115Y-85530057D01*
X154123657Y-84823366D01*
X153201460Y-84440436D01*
X152202920Y-84439565D01*
X151280057Y-84820885D01*
X150573366Y-85526343D01*
X150190436Y-86448540D01*
X150189565Y-87447080D01*
X147712798Y-87447080D01*
X147654115Y-87305057D01*
X146948657Y-86598366D01*
X146026460Y-86215436D01*
X145027920Y-86214565D01*
X144105057Y-86595885D01*
X143398366Y-87301343D01*
X143015436Y-88223540D01*
X143014565Y-89222080D01*
X134830337Y-89222080D01*
X134859628Y-89151541D01*
X134860370Y-88302185D01*
X134536020Y-87517200D01*
X133935959Y-86916091D01*
X133472609Y-86723691D01*
X137515000Y-86723691D01*
X137515000Y-87943250D01*
X137673750Y-88102000D01*
X139402000Y-88102000D01*
X139402000Y-86373750D01*
X140648000Y-86373750D01*
X140648000Y-88102000D01*
X142376250Y-88102000D01*
X142535000Y-87943250D01*
X142535000Y-86723691D01*
X142438327Y-86490302D01*
X142259699Y-86311673D01*
X142026310Y-86215000D01*
X140806750Y-86215000D01*
X140648000Y-86373750D01*
X139402000Y-86373750D01*
X139243250Y-86215000D01*
X138023690Y-86215000D01*
X137790301Y-86311673D01*
X137611673Y-86490302D01*
X137515000Y-86723691D01*
X133472609Y-86723691D01*
X133151541Y-86590372D01*
X132302185Y-86589630D01*
X131517200Y-86913980D01*
X130916091Y-87514041D01*
X130590372Y-88298459D01*
X130589630Y-89147815D01*
X123910000Y-89147815D01*
X123910000Y-82231750D01*
X150190000Y-82231750D01*
X150190000Y-83451310D01*
X150286673Y-83684699D01*
X150465302Y-83863327D01*
X150698691Y-83960000D01*
X151918250Y-83960000D01*
X152077000Y-83801250D01*
X152077000Y-82073000D01*
X153323000Y-82073000D01*
X153323000Y-83801250D01*
X153481750Y-83960000D01*
X154701309Y-83960000D01*
X154934698Y-83863327D01*
X155113327Y-83684699D01*
X155210000Y-83451310D01*
X155210000Y-82231750D01*
X155051250Y-82073000D01*
X153323000Y-82073000D01*
X152077000Y-82073000D01*
X150348750Y-82073000D01*
X150190000Y-82231750D01*
X123910000Y-82231750D01*
X123910000Y-79647815D01*
X130589630Y-79647815D01*
X130913980Y-80432800D01*
X131514041Y-81033909D01*
X132298459Y-81359628D01*
X133147815Y-81360370D01*
X133932800Y-81036020D01*
X134533909Y-80435959D01*
X134712132Y-80006750D01*
X137515000Y-80006750D01*
X137515000Y-81226309D01*
X137611673Y-81459698D01*
X137790301Y-81638327D01*
X138023690Y-81735000D01*
X139243250Y-81735000D01*
X139402000Y-81576250D01*
X139402000Y-79848000D01*
X140648000Y-79848000D01*
X140648000Y-81576250D01*
X140806750Y-81735000D01*
X142026310Y-81735000D01*
X142259699Y-81638327D01*
X142438327Y-81459698D01*
X142535000Y-81226309D01*
X142535000Y-80006750D01*
X142376250Y-79848000D01*
X140648000Y-79848000D01*
X139402000Y-79848000D01*
X137673750Y-79848000D01*
X137515000Y-80006750D01*
X134712132Y-80006750D01*
X134830337Y-79722080D01*
X143014565Y-79722080D01*
X143395885Y-80644943D01*
X144101343Y-81351634D01*
X145023540Y-81734564D01*
X146022080Y-81735435D01*
X146944943Y-81354115D01*
X147651634Y-80648657D01*
X148034564Y-79726460D01*
X148034806Y-79448690D01*
X150190000Y-79448690D01*
X150190000Y-80668250D01*
X150348750Y-80827000D01*
X152077000Y-80827000D01*
X152077000Y-79098750D01*
X153323000Y-79098750D01*
X153323000Y-80827000D01*
X155051250Y-80827000D01*
X155210000Y-80668250D01*
X155210000Y-79448690D01*
X155113327Y-79215301D01*
X154934698Y-79036673D01*
X154701309Y-78940000D01*
X153481750Y-78940000D01*
X153323000Y-79098750D01*
X152077000Y-79098750D01*
X151918250Y-78940000D01*
X150698691Y-78940000D01*
X150465302Y-79036673D01*
X150286673Y-79215301D01*
X150190000Y-79448690D01*
X148034806Y-79448690D01*
X148035435Y-78727920D01*
X147654115Y-77805057D01*
X146948657Y-77098366D01*
X146026460Y-76715436D01*
X145027920Y-76714565D01*
X144105057Y-77095885D01*
X143398366Y-77801343D01*
X143015436Y-78723540D01*
X143014565Y-79722080D01*
X134830337Y-79722080D01*
X134859628Y-79651541D01*
X134860370Y-78802185D01*
X134536020Y-78017200D01*
X133935959Y-77416091D01*
X133472609Y-77223691D01*
X137515000Y-77223691D01*
X137515000Y-78443250D01*
X137673750Y-78602000D01*
X139402000Y-78602000D01*
X139402000Y-76873750D01*
X140648000Y-76873750D01*
X140648000Y-78602000D01*
X142376250Y-78602000D01*
X142535000Y-78443250D01*
X142535000Y-77223691D01*
X142438327Y-76990302D01*
X142259699Y-76811673D01*
X142026310Y-76715000D01*
X140806750Y-76715000D01*
X140648000Y-76873750D01*
X139402000Y-76873750D01*
X139243250Y-76715000D01*
X138023690Y-76715000D01*
X137790301Y-76811673D01*
X137611673Y-76990302D01*
X137515000Y-77223691D01*
X133472609Y-77223691D01*
X133151541Y-77090372D01*
X132302185Y-77089630D01*
X131517200Y-77413980D01*
X130916091Y-78014041D01*
X130590372Y-78798459D01*
X130589630Y-79647815D01*
X123910000Y-79647815D01*
X123910000Y-74572815D01*
X150564630Y-74572815D01*
X150888980Y-75357800D01*
X151489041Y-75958909D01*
X152273459Y-76284628D01*
X153122815Y-76285370D01*
X153907800Y-75961020D01*
X154508909Y-75360959D01*
X154834628Y-74576541D01*
X154835370Y-73727185D01*
X154511020Y-72942200D01*
X153910959Y-72341091D01*
X153126541Y-72015372D01*
X152277185Y-72014630D01*
X151492200Y-72338980D01*
X150891091Y-72939041D01*
X150565372Y-73723459D01*
X150564630Y-74572815D01*
X123910000Y-74572815D01*
X123910000Y-70197815D01*
X130589630Y-70197815D01*
X130913980Y-70982800D01*
X131514041Y-71583909D01*
X132298459Y-71909628D01*
X133147815Y-71910370D01*
X133932800Y-71586020D01*
X134533909Y-70985959D01*
X134712132Y-70556750D01*
X137515000Y-70556750D01*
X137515000Y-71776309D01*
X137611673Y-72009698D01*
X137790301Y-72188327D01*
X138023690Y-72285000D01*
X139243250Y-72285000D01*
X139402000Y-72126250D01*
X139402000Y-70398000D01*
X140648000Y-70398000D01*
X140648000Y-72126250D01*
X140806750Y-72285000D01*
X142026310Y-72285000D01*
X142259699Y-72188327D01*
X142438327Y-72009698D01*
X142535000Y-71776309D01*
X142535000Y-70556750D01*
X142376250Y-70398000D01*
X140648000Y-70398000D01*
X139402000Y-70398000D01*
X137673750Y-70398000D01*
X137515000Y-70556750D01*
X134712132Y-70556750D01*
X134830337Y-70272080D01*
X143014565Y-70272080D01*
X143395885Y-71194943D01*
X144101343Y-71901634D01*
X145023540Y-72284564D01*
X146022080Y-72285435D01*
X146944943Y-71904115D01*
X147651634Y-71198657D01*
X148034564Y-70276460D01*
X148035435Y-69277920D01*
X147654115Y-68355057D01*
X146948657Y-67648366D01*
X146026460Y-67265436D01*
X145027920Y-67264565D01*
X144105057Y-67645885D01*
X143398366Y-68351343D01*
X143015436Y-69273540D01*
X143014565Y-70272080D01*
X134830337Y-70272080D01*
X134859628Y-70201541D01*
X134860370Y-69352185D01*
X134536020Y-68567200D01*
X133935959Y-67966091D01*
X133472609Y-67773691D01*
X137515000Y-67773691D01*
X137515000Y-68993250D01*
X137673750Y-69152000D01*
X139402000Y-69152000D01*
X139402000Y-67423750D01*
X140648000Y-67423750D01*
X140648000Y-69152000D01*
X142376250Y-69152000D01*
X142535000Y-68993250D01*
X142535000Y-67773691D01*
X142438327Y-67540302D01*
X142259699Y-67361673D01*
X142026310Y-67265000D01*
X140806750Y-67265000D01*
X140648000Y-67423750D01*
X139402000Y-67423750D01*
X139243250Y-67265000D01*
X138023690Y-67265000D01*
X137790301Y-67361673D01*
X137611673Y-67540302D01*
X137515000Y-67773691D01*
X133472609Y-67773691D01*
X133151541Y-67640372D01*
X132302185Y-67639630D01*
X131517200Y-67963980D01*
X130916091Y-68564041D01*
X130590372Y-69348459D01*
X130589630Y-70197815D01*
X123910000Y-70197815D01*
X123910000Y-65510000D01*
X157273000Y-65510000D01*
X157273000Y-89600000D01*
G36*
X188273000Y-109026574D02*
X188273000Y-115973000D01*
X170295405Y-115973000D01*
X170230327Y-115907808D01*
X169886799Y-115765162D01*
X169514833Y-115764838D01*
X169171057Y-115906883D01*
X169104824Y-115973000D01*
X162445412Y-115973000D01*
X161939882Y-115720235D01*
X161913543Y-115713022D01*
X161890839Y-115697852D01*
X161771363Y-115674087D01*
X161653876Y-115641913D01*
X161626786Y-115645328D01*
X161600000Y-115640000D01*
X158727000Y-115640000D01*
X158727000Y-113516761D01*
X160414294Y-113516761D01*
X160612402Y-113775127D01*
X161462665Y-113899434D01*
X161781021Y-113836109D01*
X180704946Y-113836109D01*
X180869508Y-114068890D01*
X181625062Y-114149535D01*
X182030492Y-114068890D01*
X182195054Y-113836109D01*
X184104946Y-113836109D01*
X184269508Y-114068890D01*
X185025062Y-114149535D01*
X185430492Y-114068890D01*
X185595054Y-113836109D01*
X184850000Y-113091055D01*
X184104946Y-113836109D01*
X182195054Y-113836109D01*
X181450000Y-113091055D01*
X180704946Y-113836109D01*
X161781021Y-113836109D01*
X162087598Y-113775127D01*
X162285706Y-113516761D01*
X161350000Y-112581055D01*
X160414294Y-113516761D01*
X158727000Y-113516761D01*
X158727000Y-111812665D01*
X159150566Y-111812665D01*
X159274873Y-112437598D01*
X159533239Y-112635706D01*
X160468945Y-111700000D01*
X162231055Y-111700000D01*
X163166761Y-112635706D01*
X163425127Y-112437598D01*
X163432807Y-112385062D01*
X179510465Y-112385062D01*
X179591110Y-112790492D01*
X179823891Y-112955054D01*
X180568945Y-112210000D01*
X182331055Y-112210000D01*
X183076109Y-112955054D01*
X183150000Y-112902818D01*
X183223891Y-112955054D01*
X183968945Y-112210000D01*
X185731055Y-112210000D01*
X186476109Y-112955054D01*
X186708890Y-112790492D01*
X186789535Y-112034938D01*
X186708890Y-111629508D01*
X186476109Y-111464946D01*
X185731055Y-112210000D01*
X183968945Y-112210000D01*
X183223891Y-111464946D01*
X183150000Y-111517182D01*
X183076109Y-111464946D01*
X182331055Y-112210000D01*
X180568945Y-112210000D01*
X179823891Y-111464946D01*
X179591110Y-111629508D01*
X179510465Y-112385062D01*
X163432807Y-112385062D01*
X163549434Y-111587335D01*
X163425127Y-110962402D01*
X163166761Y-110764294D01*
X162231055Y-111700000D01*
X160468945Y-111700000D01*
X159533239Y-110764294D01*
X159274873Y-110962402D01*
X159150566Y-111812665D01*
X158727000Y-111812665D01*
X158727000Y-109883239D01*
X160414294Y-109883239D01*
X161350000Y-110818945D01*
X161585054Y-110583891D01*
X180704946Y-110583891D01*
X181450000Y-111328945D01*
X182195054Y-110583891D01*
X184104946Y-110583891D01*
X184850000Y-111328945D01*
X185595054Y-110583891D01*
X185430492Y-110351110D01*
X184674938Y-110270465D01*
X184269508Y-110351110D01*
X184104946Y-110583891D01*
X182195054Y-110583891D01*
X182030492Y-110351110D01*
X181274938Y-110270465D01*
X180869508Y-110351110D01*
X180704946Y-110583891D01*
X161585054Y-110583891D01*
X162285706Y-109883239D01*
X162087598Y-109624873D01*
X161237335Y-109500566D01*
X160612402Y-109624873D01*
X160414294Y-109883239D01*
X158727000Y-109883239D01*
X158727000Y-108927427D01*
X188273000Y-109026574D01*
X188273000Y-109026574D01*
G37*
X188273000Y-109026574D02*
X188273000Y-115973000D01*
X170295405Y-115973000D01*
X170230327Y-115907808D01*
X169886799Y-115765162D01*
X169514833Y-115764838D01*
X169171057Y-115906883D01*
X169104824Y-115973000D01*
X162445412Y-115973000D01*
X161939882Y-115720235D01*
X161913543Y-115713022D01*
X161890839Y-115697852D01*
X161771363Y-115674087D01*
X161653876Y-115641913D01*
X161626786Y-115645328D01*
X161600000Y-115640000D01*
X158727000Y-115640000D01*
X158727000Y-113516761D01*
X160414294Y-113516761D01*
X160612402Y-113775127D01*
X161462665Y-113899434D01*
X161781021Y-113836109D01*
X180704946Y-113836109D01*
X180869508Y-114068890D01*
X181625062Y-114149535D01*
X182030492Y-114068890D01*
X182195054Y-113836109D01*
X184104946Y-113836109D01*
X184269508Y-114068890D01*
X185025062Y-114149535D01*
X185430492Y-114068890D01*
X185595054Y-113836109D01*
X184850000Y-113091055D01*
X184104946Y-113836109D01*
X182195054Y-113836109D01*
X181450000Y-113091055D01*
X180704946Y-113836109D01*
X161781021Y-113836109D01*
X162087598Y-113775127D01*
X162285706Y-113516761D01*
X161350000Y-112581055D01*
X160414294Y-113516761D01*
X158727000Y-113516761D01*
X158727000Y-111812665D01*
X159150566Y-111812665D01*
X159274873Y-112437598D01*
X159533239Y-112635706D01*
X160468945Y-111700000D01*
X162231055Y-111700000D01*
X163166761Y-112635706D01*
X163425127Y-112437598D01*
X163432807Y-112385062D01*
X179510465Y-112385062D01*
X179591110Y-112790492D01*
X179823891Y-112955054D01*
X180568945Y-112210000D01*
X182331055Y-112210000D01*
X183076109Y-112955054D01*
X183150000Y-112902818D01*
X183223891Y-112955054D01*
X183968945Y-112210000D01*
X185731055Y-112210000D01*
X186476109Y-112955054D01*
X186708890Y-112790492D01*
X186789535Y-112034938D01*
X186708890Y-111629508D01*
X186476109Y-111464946D01*
X185731055Y-112210000D01*
X183968945Y-112210000D01*
X183223891Y-111464946D01*
X183150000Y-111517182D01*
X183076109Y-111464946D01*
X182331055Y-112210000D01*
X180568945Y-112210000D01*
X179823891Y-111464946D01*
X179591110Y-111629508D01*
X179510465Y-112385062D01*
X163432807Y-112385062D01*
X163549434Y-111587335D01*
X163425127Y-110962402D01*
X163166761Y-110764294D01*
X162231055Y-111700000D01*
X160468945Y-111700000D01*
X159533239Y-110764294D01*
X159274873Y-110962402D01*
X159150566Y-111812665D01*
X158727000Y-111812665D01*
X158727000Y-109883239D01*
X160414294Y-109883239D01*
X161350000Y-110818945D01*
X161585054Y-110583891D01*
X180704946Y-110583891D01*
X181450000Y-111328945D01*
X182195054Y-110583891D01*
X184104946Y-110583891D01*
X184850000Y-111328945D01*
X185595054Y-110583891D01*
X185430492Y-110351110D01*
X184674938Y-110270465D01*
X184269508Y-110351110D01*
X184104946Y-110583891D01*
X182195054Y-110583891D01*
X182030492Y-110351110D01*
X181274938Y-110270465D01*
X180869508Y-110351110D01*
X180704946Y-110583891D01*
X161585054Y-110583891D01*
X162285706Y-109883239D01*
X162087598Y-109624873D01*
X161237335Y-109500566D01*
X160612402Y-109624873D01*
X160414294Y-109883239D01*
X158727000Y-109883239D01*
X158727000Y-108927427D01*
X188273000Y-109026574D01*
G36*
X179873005Y-89301144D02*
X179883456Y-89350462D01*
X179912270Y-89391829D01*
X179954909Y-89418726D01*
X180000000Y-89427000D01*
X184320117Y-89427000D01*
X184398540Y-89459564D01*
X185397080Y-89460435D01*
X185477999Y-89427000D01*
X187573000Y-89427000D01*
X187573000Y-100773000D01*
X176227000Y-100773000D01*
X176227000Y-100363109D01*
X180704946Y-100363109D01*
X180869508Y-100595890D01*
X181625062Y-100676535D01*
X182030492Y-100595890D01*
X182192933Y-100366109D01*
X184104946Y-100366109D01*
X184269508Y-100598890D01*
X185025062Y-100679535D01*
X185430492Y-100598890D01*
X185595054Y-100366109D01*
X184850000Y-99621055D01*
X184104946Y-100366109D01*
X182192933Y-100366109D01*
X182195054Y-100363109D01*
X181450000Y-99618055D01*
X180704946Y-100363109D01*
X176227000Y-100363109D01*
X176227000Y-98912062D01*
X179510465Y-98912062D01*
X179591110Y-99317492D01*
X179823891Y-99482054D01*
X180568945Y-98737000D01*
X182331055Y-98737000D01*
X183076109Y-99482054D01*
X183147878Y-99431318D01*
X183223891Y-99485054D01*
X183968945Y-98740000D01*
X185731055Y-98740000D01*
X186476109Y-99485054D01*
X186708890Y-99320492D01*
X186789535Y-98564938D01*
X186708890Y-98159508D01*
X186476109Y-97994946D01*
X185731055Y-98740000D01*
X183968945Y-98740000D01*
X183223891Y-97994946D01*
X183152122Y-98045682D01*
X183076109Y-97991946D01*
X182331055Y-98737000D01*
X180568945Y-98737000D01*
X179823891Y-97991946D01*
X179591110Y-98156508D01*
X179510465Y-98912062D01*
X176227000Y-98912062D01*
X176227000Y-97110891D01*
X180704946Y-97110891D01*
X181450000Y-97855945D01*
X182192054Y-97113891D01*
X184104946Y-97113891D01*
X184850000Y-97858945D01*
X185595054Y-97113891D01*
X185430492Y-96881110D01*
X184674938Y-96800465D01*
X184269508Y-96881110D01*
X184104946Y-97113891D01*
X182192054Y-97113891D01*
X182195054Y-97110891D01*
X182030492Y-96878110D01*
X181274938Y-96797465D01*
X180869508Y-96878110D01*
X180704946Y-97110891D01*
X176227000Y-97110891D01*
X176227000Y-95900000D01*
X176216994Y-95850590D01*
X176188553Y-95808965D01*
X176146159Y-95781685D01*
X176101427Y-95773008D01*
X167327000Y-95674419D01*
X167327000Y-87447080D01*
X168189565Y-87447080D01*
X168570885Y-88369943D01*
X169276343Y-89076634D01*
X170198540Y-89459564D01*
X171197080Y-89460435D01*
X172119943Y-89079115D01*
X172826634Y-88373657D01*
X173209564Y-87451460D01*
X173209567Y-87447080D01*
X173889565Y-87447080D01*
X174270885Y-88369943D01*
X174976343Y-89076634D01*
X175898540Y-89459564D01*
X176897080Y-89460435D01*
X177819943Y-89079115D01*
X178526634Y-88373657D01*
X178909564Y-87451460D01*
X178910435Y-86452920D01*
X178529115Y-85530057D01*
X177823657Y-84823366D01*
X176901460Y-84440436D01*
X175902920Y-84439565D01*
X174980057Y-84820885D01*
X174273366Y-85526343D01*
X173890436Y-86448540D01*
X173889565Y-87447080D01*
X173209567Y-87447080D01*
X173210435Y-86452920D01*
X172829115Y-85530057D01*
X172123657Y-84823366D01*
X171201460Y-84440436D01*
X170202920Y-84439565D01*
X169280057Y-84820885D01*
X168573366Y-85526343D01*
X168190436Y-86448540D01*
X168189565Y-87447080D01*
X167327000Y-87447080D01*
X167327000Y-82231750D01*
X168190000Y-82231750D01*
X168190000Y-83451310D01*
X168286673Y-83684699D01*
X168465302Y-83863327D01*
X168698691Y-83960000D01*
X169918250Y-83960000D01*
X170077000Y-83801250D01*
X170077000Y-82073000D01*
X171323000Y-82073000D01*
X171323000Y-83801250D01*
X171481750Y-83960000D01*
X172701309Y-83960000D01*
X172934698Y-83863327D01*
X173113327Y-83684699D01*
X173177521Y-83529721D01*
X175201335Y-83529721D01*
X175445025Y-83824320D01*
X176426331Y-84009039D01*
X177354975Y-83824320D01*
X177598665Y-83529721D01*
X176400000Y-82331055D01*
X175201335Y-83529721D01*
X173177521Y-83529721D01*
X173210000Y-83451310D01*
X173210000Y-82231750D01*
X173051250Y-82073000D01*
X171323000Y-82073000D01*
X170077000Y-82073000D01*
X168348750Y-82073000D01*
X168190000Y-82231750D01*
X167327000Y-82231750D01*
X167327000Y-81476331D01*
X173840961Y-81476331D01*
X174025680Y-82404975D01*
X174320279Y-82648665D01*
X175518945Y-81450000D01*
X177281055Y-81450000D01*
X178479721Y-82648665D01*
X178774320Y-82404975D01*
X178959039Y-81423669D01*
X178774320Y-80495025D01*
X178479721Y-80251335D01*
X177281055Y-81450000D01*
X175518945Y-81450000D01*
X174320279Y-80251335D01*
X174025680Y-80495025D01*
X173840961Y-81476331D01*
X167327000Y-81476331D01*
X167327000Y-79448690D01*
X168190000Y-79448690D01*
X168190000Y-80668250D01*
X168348750Y-80827000D01*
X170077000Y-80827000D01*
X170077000Y-79098750D01*
X171323000Y-79098750D01*
X171323000Y-80827000D01*
X173051250Y-80827000D01*
X173210000Y-80668250D01*
X173210000Y-79448690D01*
X173177522Y-79370279D01*
X175201335Y-79370279D01*
X176400000Y-80568945D01*
X177598665Y-79370279D01*
X177354975Y-79075680D01*
X176373669Y-78890961D01*
X175445025Y-79075680D01*
X175201335Y-79370279D01*
X173177522Y-79370279D01*
X173113327Y-79215301D01*
X172934698Y-79036673D01*
X172701309Y-78940000D01*
X171481750Y-78940000D01*
X171323000Y-79098750D01*
X170077000Y-79098750D01*
X169918250Y-78940000D01*
X168698691Y-78940000D01*
X168465302Y-79036673D01*
X168286673Y-79215301D01*
X168190000Y-79448690D01*
X167327000Y-79448690D01*
X167327000Y-78327000D01*
X179774139Y-78327000D01*
X179873005Y-89301144D01*
X179873005Y-89301144D01*
G37*
X179873005Y-89301144D02*
X179883456Y-89350462D01*
X179912270Y-89391829D01*
X179954909Y-89418726D01*
X180000000Y-89427000D01*
X184320117Y-89427000D01*
X184398540Y-89459564D01*
X185397080Y-89460435D01*
X185477999Y-89427000D01*
X187573000Y-89427000D01*
X187573000Y-100773000D01*
X176227000Y-100773000D01*
X176227000Y-100363109D01*
X180704946Y-100363109D01*
X180869508Y-100595890D01*
X181625062Y-100676535D01*
X182030492Y-100595890D01*
X182192933Y-100366109D01*
X184104946Y-100366109D01*
X184269508Y-100598890D01*
X185025062Y-100679535D01*
X185430492Y-100598890D01*
X185595054Y-100366109D01*
X184850000Y-99621055D01*
X184104946Y-100366109D01*
X182192933Y-100366109D01*
X182195054Y-100363109D01*
X181450000Y-99618055D01*
X180704946Y-100363109D01*
X176227000Y-100363109D01*
X176227000Y-98912062D01*
X179510465Y-98912062D01*
X179591110Y-99317492D01*
X179823891Y-99482054D01*
X180568945Y-98737000D01*
X182331055Y-98737000D01*
X183076109Y-99482054D01*
X183147878Y-99431318D01*
X183223891Y-99485054D01*
X183968945Y-98740000D01*
X185731055Y-98740000D01*
X186476109Y-99485054D01*
X186708890Y-99320492D01*
X186789535Y-98564938D01*
X186708890Y-98159508D01*
X186476109Y-97994946D01*
X185731055Y-98740000D01*
X183968945Y-98740000D01*
X183223891Y-97994946D01*
X183152122Y-98045682D01*
X183076109Y-97991946D01*
X182331055Y-98737000D01*
X180568945Y-98737000D01*
X179823891Y-97991946D01*
X179591110Y-98156508D01*
X179510465Y-98912062D01*
X176227000Y-98912062D01*
X176227000Y-97110891D01*
X180704946Y-97110891D01*
X181450000Y-97855945D01*
X182192054Y-97113891D01*
X184104946Y-97113891D01*
X184850000Y-97858945D01*
X185595054Y-97113891D01*
X185430492Y-96881110D01*
X184674938Y-96800465D01*
X184269508Y-96881110D01*
X184104946Y-97113891D01*
X182192054Y-97113891D01*
X182195054Y-97110891D01*
X182030492Y-96878110D01*
X181274938Y-96797465D01*
X180869508Y-96878110D01*
X180704946Y-97110891D01*
X176227000Y-97110891D01*
X176227000Y-95900000D01*
X176216994Y-95850590D01*
X176188553Y-95808965D01*
X176146159Y-95781685D01*
X176101427Y-95773008D01*
X167327000Y-95674419D01*
X167327000Y-87447080D01*
X168189565Y-87447080D01*
X168570885Y-88369943D01*
X169276343Y-89076634D01*
X170198540Y-89459564D01*
X171197080Y-89460435D01*
X172119943Y-89079115D01*
X172826634Y-88373657D01*
X173209564Y-87451460D01*
X173209567Y-87447080D01*
X173889565Y-87447080D01*
X174270885Y-88369943D01*
X174976343Y-89076634D01*
X175898540Y-89459564D01*
X176897080Y-89460435D01*
X177819943Y-89079115D01*
X178526634Y-88373657D01*
X178909564Y-87451460D01*
X178910435Y-86452920D01*
X178529115Y-85530057D01*
X177823657Y-84823366D01*
X176901460Y-84440436D01*
X175902920Y-84439565D01*
X174980057Y-84820885D01*
X174273366Y-85526343D01*
X173890436Y-86448540D01*
X173889565Y-87447080D01*
X173209567Y-87447080D01*
X173210435Y-86452920D01*
X172829115Y-85530057D01*
X172123657Y-84823366D01*
X171201460Y-84440436D01*
X170202920Y-84439565D01*
X169280057Y-84820885D01*
X168573366Y-85526343D01*
X168190436Y-86448540D01*
X168189565Y-87447080D01*
X167327000Y-87447080D01*
X167327000Y-82231750D01*
X168190000Y-82231750D01*
X168190000Y-83451310D01*
X168286673Y-83684699D01*
X168465302Y-83863327D01*
X168698691Y-83960000D01*
X169918250Y-83960000D01*
X170077000Y-83801250D01*
X170077000Y-82073000D01*
X171323000Y-82073000D01*
X171323000Y-83801250D01*
X171481750Y-83960000D01*
X172701309Y-83960000D01*
X172934698Y-83863327D01*
X173113327Y-83684699D01*
X173177521Y-83529721D01*
X175201335Y-83529721D01*
X175445025Y-83824320D01*
X176426331Y-84009039D01*
X177354975Y-83824320D01*
X177598665Y-83529721D01*
X176400000Y-82331055D01*
X175201335Y-83529721D01*
X173177521Y-83529721D01*
X173210000Y-83451310D01*
X173210000Y-82231750D01*
X173051250Y-82073000D01*
X171323000Y-82073000D01*
X170077000Y-82073000D01*
X168348750Y-82073000D01*
X168190000Y-82231750D01*
X167327000Y-82231750D01*
X167327000Y-81476331D01*
X173840961Y-81476331D01*
X174025680Y-82404975D01*
X174320279Y-82648665D01*
X175518945Y-81450000D01*
X177281055Y-81450000D01*
X178479721Y-82648665D01*
X178774320Y-82404975D01*
X178959039Y-81423669D01*
X178774320Y-80495025D01*
X178479721Y-80251335D01*
X177281055Y-81450000D01*
X175518945Y-81450000D01*
X174320279Y-80251335D01*
X174025680Y-80495025D01*
X173840961Y-81476331D01*
X167327000Y-81476331D01*
X167327000Y-79448690D01*
X168190000Y-79448690D01*
X168190000Y-80668250D01*
X168348750Y-80827000D01*
X170077000Y-80827000D01*
X170077000Y-79098750D01*
X171323000Y-79098750D01*
X171323000Y-80827000D01*
X173051250Y-80827000D01*
X173210000Y-80668250D01*
X173210000Y-79448690D01*
X173177522Y-79370279D01*
X175201335Y-79370279D01*
X176400000Y-80568945D01*
X177598665Y-79370279D01*
X177354975Y-79075680D01*
X176373669Y-78890961D01*
X175445025Y-79075680D01*
X175201335Y-79370279D01*
X173177522Y-79370279D01*
X173113327Y-79215301D01*
X172934698Y-79036673D01*
X172701309Y-78940000D01*
X171481750Y-78940000D01*
X171323000Y-79098750D01*
X170077000Y-79098750D01*
X169918250Y-78940000D01*
X168698691Y-78940000D01*
X168465302Y-79036673D01*
X168286673Y-79215301D01*
X168190000Y-79448690D01*
X167327000Y-79448690D01*
X167327000Y-78327000D01*
X179774139Y-78327000D01*
X179873005Y-89301144D01*
M02*
