M48
;DRILL file {KiCad 4.0.7} date 11/16/17 10:54:26
;FORMAT={2:4/ absolute / inch / suppress trailing zeros}
FMAT,2
INCH,LZ
T1C0.016
T2C0.071
T3C0.073
T4C0.093
T5C0.118
%
G90
G05
M72
T1
X0595Y-0475
X061142Y-038268
X065197Y-037559
X066811Y-045945
X0685Y-0475
X079Y-0475
X0855Y-0475
T2
X055118Y-038681
X055118Y-042421
X055118Y-046161
X055128Y-02747
X055128Y-031191
X055128Y-034931
X057283Y-038681
X057283Y-042421
X057283Y-046161
X057293Y-02747
X057293Y-031191
X057293Y-034931
X060118Y-032067
X060118Y-034232
X063858Y-032067
X063858Y-034232
X067205Y-032067
X067205Y-034232
X069449Y-032067
X069449Y-034232
X072795Y-032067
X072795Y-034232
X076535Y-032067
X076535Y-034232
X080276Y-032067
X080276Y-034232
X084016Y-032067
X084016Y-034232
X08685Y-027461
X08685Y-031201
X08685Y-034941
X08685Y-038661
X08685Y-042402
X08685Y-046142
X089016Y-027461
X089016Y-031201
X089016Y-034941
X089016Y-038661
X089016Y-042402
X089016Y-046142
T3
X071437Y-038873
X071437Y-044177
X072776Y-038874
X072776Y-044177
T4
X060217Y-040236
X063524Y-036929
X063524Y-043976
X066831Y-040236
X077323Y-040236
X08063Y-036929
X08063Y-043976
X083937Y-040236
T5
X052244Y-038681
X052244Y-042421
X052244Y-046161
X052254Y-02747
X052254Y-031191
X052254Y-034931
X060118Y-029193
X063858Y-029193
X068327Y-029193
X072795Y-029193
X076535Y-029193
X080276Y-029193
X084016Y-029193
X09189Y-027461
X09189Y-031201
X09189Y-034941
X09189Y-038661
X09189Y-042402
X09189Y-046142
T0
M30
